<svg xmlns="http://www.w3.org/2000/svg" xmlns:xlink="http://www.w3.org/1999/xlink" viewBox="0 0 267.59 375.68" xmlns:v="https://vecta.io/nano"><style><![CDATA[.A{isolation:isolate}.L,.M,.O,.P,.Q,.T,.U,.c,.e,.f,.g,.i,.n,.o,.p,.y,.z,.AA,.AB,.AC,.AD,.AE,.AF,.AG,.F,.AK,.AL,.AM,.AR,.AS,.AT,.I{mix-blend-mode:screen}.W,.d,.AH{mix-blend-mode:overlay}.AX{opacity:.63}.AY{fill:#e4b754}.AZ{fill:#4e060a}.Aa{fill:#3d162b}.Ab{fill:#e45d2d}.Ac{opacity:.24}.Ad{opacity:.33}.Ae{fill:#722245}.Af{fill:#972610}.Ag{fill-rule:evenodd}]]></style><defs><radialGradient id="A" cx="140.9" cy="-524.34" r="100.38" gradientTransform="translate(0 655.36) scale(1 0.64)" xlink:href="#AB"><stop offset="0" stop-color="#d4c1a7"/><stop offset="1" stop-color="#bb9077"/></radialGradient><linearGradient id="B" x1="17.02" y1="24.14" x2="256.88" y2="362.33" xlink:href="#AB"><stop offset="0" stop-color="#e45d2d"/><stop offset=".07" stop-color="#de552e"/><stop offset=".32" stop-color="#c83831"/><stop offset=".55" stop-color="#bb2732"/><stop offset=".71" stop-color="#b62133"/><stop offset="1" stop-color="#971e2a"/></linearGradient><linearGradient id="C" x1="-8.9" y1="197.44" x2="267.91" y2="197.44" xlink:href="#AB"><stop offset=".07" stop-color="#971e2a"/><stop offset=".2" stop-color="#7c1c2a"/><stop offset=".36" stop-color="#60192b"/><stop offset=".53" stop-color="#4d172b"/><stop offset=".7" stop-color="#41162b"/><stop offset=".87" stop-color="#3d162b"/></linearGradient><linearGradient id="D" x1="37.51" y1="341.18" x2="15.59" y2="356.4" xlink:href="#AB"><stop offset="0" stop-color="#4e060a"/><stop offset="1" stop-color="#801c22"/></linearGradient><radialGradient id="E" cx="34.52" cy="349.05" r="13.63" xlink:href="#AB"><stop offset=".27" stop-color="#e4224a"/><stop offset=".36" stop-color="#e02149"/><stop offset=".46" stop-color="#d32045"/><stop offset=".56" stop-color="#be1c3e"/><stop offset=".66" stop-color="#a11834"/><stop offset=".76" stop-color="#7b1228"/><stop offset=".86" stop-color="#4d0c19"/><stop offset=".96" stop-color="#180408"/><stop offset="1"/></radialGradient><radialGradient id="F" cx="30.06" cy="353.52" r="5.31" xlink:href="#AB"><stop offset="0" stop-color="#ff5d18"/><stop offset=".25" stop-color="#b14111"/><stop offset=".52" stop-color="#66250a"/><stop offset=".75" stop-color="#2f1104"/><stop offset=".91" stop-color="#0d0501"/><stop offset="1"/></radialGradient><linearGradient id="G" x1="240.39" y1="52.65" x2="262.31" y2="37.43" xlink:href="#D"/><radialGradient id="H" cx="11480.02" cy="672.24" gradientTransform="translate(11723.4 717.02) rotate(180)" xlink:href="#E"/><radialGradient id="I" cx="11475.72" cy="676.67" r="15.58" gradientTransform="translate(2277.31 11355.42) rotate(-103.54)" xlink:href="#AB"><stop offset="0" stop-color="#e45d2d"/><stop offset=".07" stop-color="#cc5328"/><stop offset=".26" stop-color="#8f3a1c"/><stop offset=".44" stop-color="#5c2512"/><stop offset=".61" stop-color="#34150a"/><stop offset=".77" stop-color="#170a05"/><stop offset=".9" stop-color="#060201"/><stop offset="1"/></radialGradient><radialGradient id="J" cx="11475.55" cy="676.71" gradientTransform="translate(11723.4 717.02) rotate(180)" xlink:href="#F"/><linearGradient id="K" x1="-23.34" y1="25.12" x2="44.11" y2="95.22" gradientTransform="matrix(1, 0, 0, 1, 0, 0)" xlink:href="#I"/><linearGradient id="L" x1="226.93" y1="80.33" x2="276.86" y2="-20.47" gradientTransform="matrix(1, 0, 0, 1, 0, 0)" xlink:href="#I"/><radialGradient id="M" cx="327.72" cy="300.07" r="143.94" gradientTransform="translate(-198.07) scale(1.03 1)" xlink:href="#AB"><stop offset="0" stop-color="#6f1018"/><stop offset=".69" stop-color="#4e060a"/><stop offset=".99" stop-color="#3d162b"/></radialGradient><radialGradient id="N" cx="327.72" cy="287.16" r="89.03" gradientTransform="translate(-198.07) scale(1.03 1)" xlink:href="#AB"><stop offset="0" stop-color="#e45d2d"/><stop offset=".2" stop-color="#e0582d"/><stop offset=".43" stop-color="#d64a2f"/><stop offset=".67" stop-color="#c43331"/><stop offset=".82" stop-color="#b62133"/><stop offset="1" stop-color="#971e2a"/></radialGradient><linearGradient id="O" x1="12102.93" y1="2080.35" x2="12095.96" y2="2099.89" gradientTransform="matrix(-0.96, -0.29, -0.29, 0.96, 12259.88, 1836.38)" xlink:href="#AB"><stop offset="0" stop-color="#921a13"/><stop offset=".16" stop-color="#821511"/><stop offset=".49" stop-color="#650d0d"/><stop offset=".79" stop-color="#54080b"/><stop offset="1" stop-color="#4e060a"/></linearGradient><radialGradient id="P" cx="327.72" cy="280.14" r="140.59" gradientTransform="translate(-198.07) scale(1.03 1)" xlink:href="#AB"><stop offset="0" stop-color="#921a13"/><stop offset=".02" stop-color="#8e1912"/><stop offset=".26" stop-color="#5b100c"/><stop offset=".48" stop-color="#340907"/><stop offset=".69" stop-color="#170403"/><stop offset=".87" stop-color="#060101"/><stop offset="1"/></radialGradient><radialGradient id="Q" cx="327.72" cy="280.39" r="147.61" gradientTransform="translate(-198.07) scale(1.03 1)" xlink:href="#I"/><linearGradient id="R" x1="244.13" y1="-1552.75" x2="237.37" y2="-1533.8" gradientTransform="translate(425.58 1836.38) rotate(-17.04)" xlink:href="#O"/><radialGradient id="S" cx="327.72" cy="260.59" r="85.05" gradientTransform="translate(-198.07) scale(1.03 1)" xlink:href="#AB"><stop offset="0" stop-color="#e4b754"/><stop offset=".18" stop-color="#e4b151"/><stop offset=".42" stop-color="#e4a04a"/><stop offset=".7" stop-color="#e4833e"/><stop offset="1" stop-color="#e45d2d"/></radialGradient><radialGradient id="T" cx="328.58" cy="261.05" r="68.89" gradientTransform="translate(-198.07) scale(1.03 1)" xlink:href="#AB"><stop offset="0" stop-color="#831721"/><stop offset=".38" stop-color="#72121a"/><stop offset="1" stop-color="#4e060a"/></radialGradient><radialGradient id="U" cx="329.42" cy="233.49" r="81.51" xlink:href="#T"/><linearGradient id="V" x1="129.82" y1="283.81" x2="151.84" y2="248.86" xlink:href="#B"/><linearGradient id="W" x1="117.37" y1="254.16" x2="145.67" y2="268.46" gradientTransform="matrix(1, 0, 0, 1, 0, 0)" xlink:href="#P"/><linearGradient id="X" x1="128.61" y1="287.85" x2="154.64" y2="273.35" gradientTransform="matrix(1, 0, 0, 1, 0, 0)" xlink:href="#I"/><linearGradient id="Y" x1="114.86" y1="268.3" x2="136.13" y2="256.45" gradientTransform="matrix(1, 0, 0, 1, 0, 0)" xlink:href="#I"/><linearGradient id="Z" x1="141.73" y1="242.83" x2="110.62" y2="242.83" xlink:href="#AB"><stop offset="0" stop-color="#80140b"/><stop offset=".5" stop-color="#8c1810"/><stop offset="1" stop-color="#921a13"/></linearGradient><linearGradient id="a" x1="119.22" y1="265.15" x2="109.01" y2="265.15" xlink:href="#Z"/><linearGradient id="b" x1="141.19" y1="288.57" x2="109.01" y2="288.57" xlink:href="#Z"/><linearGradient id="c" x1="173.06" y1="288.45" x2="141.19" y2="288.45" xlink:href="#AB"><stop offset="0" stop-color="#80140b"/><stop offset=".27" stop-color="#8f1714"/><stop offset=".69" stop-color="#a01b1f"/><stop offset="1" stop-color="#a61c23"/></linearGradient><linearGradient id="d" x1="168.82" y1="250.79" x2="167.57" y2="276.03" xlink:href="#B"/><linearGradient id="e" x1="145.05" y1="230.9" x2="164.79" y2="255.04" xlink:href="#B"/><linearGradient id="f" x1="128.85" y1="277.24" x2="120.33" y2="286.94" gradientTransform="matrix(1, 0, 0, 1, 0, 0)" xlink:href="#O"/><linearGradient id="g" x1="169.05" y1="267.98" x2="173.79" y2="282.22" gradientTransform="matrix(1, 0, 0, 1, 0, 0)" xlink:href="#O"/><linearGradient id="h" x1="149.91" y1="225.31" x2="172.89" y2="294.25" gradientTransform="matrix(1, 0, 0, 1, 0, 0)" xlink:href="#P"/><linearGradient id="i" x1="118.81" y1="275.37" x2="138.19" y2="333.53" gradientTransform="matrix(1, 0, 0, 1, 0, 0)" xlink:href="#P"/><linearGradient id="j" x1="104.49" y1="248.55" x2="127.29" y2="316.94" gradientTransform="matrix(1, 0, 0, 1, 0, 0)" xlink:href="#P"/><linearGradient id="k" x1="122.87" y1="236.78" x2="132.46" y2="265.57" gradientTransform="matrix(1, 0, 0, 1, 0, 0)" xlink:href="#P"/><linearGradient id="l" x1="154.22" y1="282.81" x2="162.69" y2="308.24" gradientTransform="matrix(1, 0, 0, 1, 0, 0)" xlink:href="#P"/><linearGradient id="m" x1="151.95" y1="249.2" x2="160.88" y2="231.19" gradientTransform="matrix(1, 0, 0, 1, 0, 0)" xlink:href="#I"/><linearGradient id="n" x1="172.45" y1="275.8" x2="163.73" y2="275.8" gradientTransform="matrix(1, 0, 0, 1, 0, 0)" xlink:href="#I"/><linearGradient id="o" x1="166.34" y1="273.92" x2="183.52" y2="239.25" gradientTransform="matrix(1, 0, 0, 1, 0, 0)" xlink:href="#I"/><linearGradient id="p" x1="153.35" y1="253.24" x2="157.92" y2="247.27" gradientTransform="matrix(1, 0, 0, 1, 0, 0)" xlink:href="#O"/><radialGradient id="q" cx="333.61" cy="258.54" r="41.37" gradientTransform="translate(-198.07) scale(1.03 1)" xlink:href="#AB"><stop offset="0" stop-color="#e45d2d"/><stop offset=".16" stop-color="#b84b24"/><stop offset=".46" stop-color="#6a2b15"/><stop offset=".72" stop-color="#31140a"/><stop offset=".9" stop-color="#0d0503"/><stop offset="1"/></radialGradient><radialGradient id="r" cx="11693.34" cy="364.22" gradientTransform="translate(2414.41 11806.27) rotate(-103.54)" xlink:href="#I"/><linearGradient id="s" x1=".057" y1="32.486" x2="52.795" y2="29.233" xlink:href="#AB"><stop offset="0" stop-color="#3d162b"/><stop offset=".56" stop-color="#460e1a"/><stop offset="1" stop-color="#4e060a"/></linearGradient><radialGradient id="t" cx="29.01" cy="6.29" r="47.99" gradientTransform="translate(0.77 -0.8) rotate(1.59)" xlink:href="#T"/><linearGradient id="u" x1="36.82" y1="4.945" x2="20.332" y2="51.274" xlink:href="#B"/><linearGradient id="v" x1="11614.41" y1="2337.8" x2="11644.37" y2="2352.94" gradientTransform="translate(11796.48 -1554.14) rotate(160.93)" xlink:href="#P"/><linearGradient id="w" x1="11623.86" y1="2371.97" x2="11651.18" y2="2356.75" gradientTransform="translate(11796.48 -1554.14) rotate(160.93)" xlink:href="#I"/><linearGradient id="x" x1="11612.69" y1="2353.16" x2="11637.15" y2="2339.53" gradientTransform="translate(11796.48 -1554.14) rotate(160.93)" xlink:href="#I"/><linearGradient id="y" x1="32.75" y1="37.34" x2="35.98" y2="37.34" xlink:href="#AB"><stop offset="0" stop-color="#fff"/><stop offset="1" stop-color="#f15e60"/></linearGradient><linearGradient id="z" x1="9.41" y1="26.67" x2="34.68" y2="26.67" xlink:href="#y"/><linearGradient id="AA" x1="25.8" y1="30.39" x2="49.34" y2="30.39" xlink:href="#y"/><linearGradient id="AB" gradientUnits="userSpaceOnUse"/></defs><g class="A"><g><g><path d="M258 270.34l2.14.6c-48.09 2.06-96.34 1.91-144.53 1.75l-94-.3c-2.83 24.35-4 50.21 11.22 72.58a39.52 39.52 0 0 0 15.26 13.83c12 5.93 28.34 6.12 43.46 6.05 33.82 0 67.08-.58 100.81.69 18.15.68 35.83.48 51.64-6 14.52-5.91 14.4-18.75 14.85-28.92.82-18.83 5-38.72 2-57.42-.34-1.73-1.18-1.43-2.85-2.86z" fill="url(#A)"/><path d="M38.33 303.8c4.17 15.58 11.91 30 24.43 40.2C76 354.77 94 362.74 112.92 362.62c-20.84.13-38.57 2.52-58.11-6.3-16.49-7.43-29.36-20.43-34.14-35.45-2.71-8.51-2.87-17.41-3-26.2-.17-10.09-.61.26 1-9.81.79-4.84-1.19-12.29 2.38-16.52 4.46-5.29 11.89-2.62 18.2-3-3.8 17.23-6.25 18.45-.92 38.46z" opacity=".38" class="Ae"/><path d="M27.26 276.6c2.59 44.68 25 81.52 73 86.36-14-1.41-25.58 1-39.27-5a65.17 65.17 0 0 1-27.51-22.26c-10.34-14.62-14.4-32.93-14.79-50.84-.12-5.27-5.27-64.8-3.83-64.63 2.44.29 6.33-.76 8.77-.46-2.22 14.57 2.42 35.94 3.63 56.83z" opacity=".66" class="Aa"/><path d="M245.61 298q-.17 3.93-.31 7.87c-.45 11.79-1.06 24.11-7 34.33-8.5 14.75-26.62 21.86-43.64 21.48 13.5 2.36 28.8 2.63 41.85-1.74 6.38-2.15 12.66-5.3 17-10.49 5.29-6.37 6.93-15 7.65-23.22 1.57-17.79-.28-35.59-1.23-53.35-.46-8.57 2.5 34.4 2.87 25.81.25-5.79 2.77-15.34-1-20.35-12-15.91-10.94 20.41-11.14 25.43-.59 15.23-4.46-21.06-5.05-5.77z" opacity=".38" class="Ae"/><path d="M251.74 314.87c-.47 11-1.26 22.78-8.29 31.2-12.17 14.57-35.68 13.79-52.88 15.5 8.16 2.4 16.47 1 24.83.7 8.78-.28 18-1.36 25.74-5.84a35.78 35.78 0 0 0 16.62-22.24c1.73-7.15 1.2-14.63.65-22-.88-11.77-.29-23.72-1.68-35.44-1.24-10.41-2.85-21-2.85-31.59-1.67 23.37-1.13 46.42-2.14 69.71z" opacity=".66" class="Aa"/><path d="M266.55,44.68c-.35-23.08-.73-26.45-24.45-26.44H36.48c-17.87-.37-24.92.92-24.92,15.27V350.35c0,11.55,1.89,17.4,5.15,21.64,2.12,2.78,6.68,3.54,10.29,3.66H227.22c13,.09,22.36.16,30.07-3.32,7.17-3.24,9.22-11,9.26-18.38ZM261.13,328c0,19.73-16.16,38.65-52.28,39.4H71.24c-25.77-2.66-51.15-41.19-52.1-67.07V51c0-16.67,8.14-23.59,18.83-23.53H212.2c12.5,4.93,25.67,17.59,33.62,29.61,8.72,13.2,15.07,30.77,15.31,46.59Z" fill="url(#B)"/><g class="F AX AY"><path d="M73.51 369.68h137.62c36.11-.74 52.26-19.66 52.28-39.39V106c-.25-15.83-6.6-33.39-15.32-46.59a93.76 93.76 0 0 0-12.93-15.44 92.48 92.48 0 0 1 10.66 13.16c8.72 13.2 15.07 30.77 15.31 46.59V328c0 19.73-16.16 38.65-52.28 39.4H71.24c-8.9-.92-17.75-6.12-25.56-13.59 8.32 8.69 18.06 14.86 27.83 15.87zm-59.67-17.06V35.78c0-14.35 7-15.63 24.91-15.27h205.63c9.94 0 15.77.6 19.23 3-2.94-4.31-9-5.26-21.51-5.25H36.48c-17.87-.37-24.92.92-24.92 15.27v316.82c0 11.55 1.89 17.4 5.15 21.64a6.84 6.84 0 0 0 1.74 1.55c-2.93-4.19-4.61-10.01-4.61-20.92z"/></g><path d="M245.82 57.08c-7.95-12-21.12-24.68-33.62-29.61H38C27.28 27.41 19.14 34.33 19.14 51v249.34c.95 25.88 26.33 64.41 52.1 67.07h137.61c36.12-.75 52.27-19.67 52.28-39.4V103.67c-.24-15.82-6.59-33.39-15.31-46.59zM254.31 328c0 14.58-11.94 31.86-45.53 32.57H71.61C50 358 26.89 323.51 26 300.2V51c0-16.71 8.94-16.71 11.88-16.71h173c9.92 4.34 21.54 14.84 29.28 26.55 8.55 12.92 14 29.38 14.19 42.94z" fill="url(#C)"/><path class="I AX AY" d="M19.72 317.4l-1.11 36.67c.21 8.41 4 13.47 13.59 13.59l24.94-1.16c-17.4-8.07-31.69-24.58-37.42-49.1z"/><path d="M19.58 314.26v38.39a13.91 13.91 0 0 0 13.87 13.87H57.7c-17.41-8.07-32.39-27.74-38.12-52.26z" fill="url(#D)"/><path d="M33.56,364.47a12.11,12.11,0,0,1-12.11-12.08V325.71c5.31,17.4,15.67,31.41,29.67,38.76Z" class="Aa"/><path class="L" d="M22.52,334v19.82c2,5.77,5.4,8.61,9.49,9.5l14.52.84C35.72,355.94,29.67,348,22.52,334Z" opacity=".8" fill="url(#E)"/><path class="M" d="M35.36 353.52a5.31 5.31 0 1 1-5.3-5.31 5.3 5.3 0 0 1 5.3 5.31z" fill="url(#F)"/><path class="I AX AY" d="M258.6 81.18l1-38.82A14.32 14.32 0 0 0 246 28l-25.1-.3c18.15 7.54 31.97 28.96 37.7 53.48z"/><path d="M258.32 79.57V41.18a13.92 13.92 0 0 0-13.87-13.87H220.2c17.41 8.07 32.39 27.74 38.12 52.26z" fill="url(#G)"/><path d="M244.34,29.36a12.12,12.12,0,0,1,12.12,12.08V68.12c-5.32-17.4-15.68-31.41-29.68-38.76Z" class="Aa"/><path class="O" d="M255.39 59.86V40c-2-5.77-5.41-8.6-9.5-9.5l-14.52-.83c10.81 8.23 16.86 16.19 24.02 30.19z" opacity=".8" fill="url(#H)"/><circle class="P" cx="247.68" cy="40.35" r="15.58" transform="matrix(.234124 -.972207 .972207 .234124 150.44 271.69)" opacity=".94" fill="url(#I)"/><path class="Q" d="M242.54 40.32a5.31 5.31 0 1 1 5.31 5.3 5.31 5.31 0 0 1-5.31-5.3z" fill="url(#J)"/><path d="M257 365.57c.94-1.32 2.19-4.53-.19-5.14-2.76-.71-6.85 2.58-8.55 4.43a5.1 5.1 0 0 0-1.17 1.85 2.17 2.17 0 0 0 .36 2.09c2.37 2.61 8.1-1.21 9.55-3.23z" opacity=".71" class="Aa"/><path d="M21 32.39c1.83-1 9-6.08 5-8.37-3.45-1.95-8 2.36-8.85 5.42-.32 1.18-.24 2.68.81 3.31s2.04.14 3.04-.36z" class="AX AZ"/><path class="T AX" d="M15.74 66.32a171.88 171.88 0 0 1 1.15-18.15c1.61-11.88 4.84-20.42 17.39-23.8a59.62 59.62 0 0 1 11.47-1.55l34.46-2.42c-7 .52-14.69-.53-21.69-.73q-12.73-.39-25.52-.74c-3.76-.11-7.59-.21-11.22.79-8.5 2.35-9 8.59-9.65 16.22-.38 4.88-.39 9.78-.4 14.68q-.06 28.58-.1 57.15 0 13.14-.05 26.26c0 13.75 0 27.54 1.42 41.22 1.09-17.72.63-35.43 1.09-53.23l1.65-55.7z" fill="url(#K)"/><path class="U AX" d="M203.85 19.59c15.68-.79 31.43-.18 47.18-.48 3.52-.07 7.33-.05 10.16 2.05 3.4 2.54 4.25 7.22 4.66 11.44 1.83 30-1.81 56 .13 82.32a534.38 534.38 0 0 0-9-80c-.82-4.37-4.2-6-8.3-7.09-15.68-4.05-31.78-6.13-47.86-8.2z" fill="url(#L)"/><g opacity=".51" fill="#191516"><path class="W Ac" d="M50.9 285.41c.25-.63.9-.79.89-1.73-.53 0-.87-.13-.94-.59.53.17 1.19.61 1.61.14 0-1.82-.15-3 1.29-4 2.28.78 5.66 1.6 5.59 4a2.68 2.68 0 0 1 2.08.68l.06 2.84c1.11-.6 1.56-2 2.46-2.89.61.32.8 1.09 1.4 1.4-.2-1 .26-1.2.18-2-1.43-.23-2.22.31-3.44-.3a5.11 5.11 0 0 1-.26-1.82l-1.61-.14a27.79 27.79 0 0 1-1.44-2.95c-2 0-4.6-.7-6.2-.22.34.07.22.63.26 1-2.73.17-5.24 5.26-1.93 6.58zm174.37-1.66a35.83 35.83 0 0 1-3.69 2.19c-1.83 8.35 8.88 7.73 6.49.58 1.76.21 2.72-.6 2.52-2.87a1.53 1.53 0 0 1-.7-.89c-2.11-.56-2.78.71-2.52 3.14-.87-.54-1.05-1.8-2.1-2.15zm1 4.13l-2.31-.31c-.2 1.83 1.36 1.83 1.19 3.62-1-.31-1.25-1.39-2.33-1.63.77-.56.79-1.62.21-2.64.82-.44 1.36-1.24 2.76-1a2.46 2.46 0 0 1 .44 1.96zm-4.84-13.95c-2 .57-2.45 1.78-2 5.08a7.46 7.46 0 0 0 4.9 2c.57-2.6.06-6.86-2.19-6.41.49.58.34 1.83.74 2.49-.63.08-1.85-.57-2.09 0 .59.57 1.55.75 1.88 1.57-3.1 1.2-2.16-2.95-1.24-4.73zm-10.57 29.75c-.75 2.25 2.26 4.21 2.33 6.67s-1.53 3.83-3.91 4.27c1.55 1.14 2.65.91 4.39.57 2.27-3.88-1.33-9.08 1.34-11.76a2 2 0 0 0-1.84-1 2.88 2.88 0 0 0 0 2.12c-.78-.09-.79.77-1.62.59-.21-.53.01-1.46-.69-1.46zm-188.68.98c-.11.21-.19.44-.28.66l-.34 7.29A6.86 6.86 0 0 0 23.7 316a10.47 10.47 0 0 0-2.27 1.55l-.05 1.82a24.22 24.22 0 0 1 1.68 2.42c1.55.31 2.38-.22 3.89.05a6.61 6.61 0 0 1 1.58-2.67c.66 0 .69.63 1.36.62a10.19 10.19 0 0 0-.47-3.09 8.91 8.91 0 0 0 3.15-4.33 1.46 1.46 0 0 1-.7-.82c-1.63-.07-1.28 2.17-2.25 2.87-.62.11-1.82-.47-2.05.09.22.39 1.05 1.45.69 1.59-.58-.68-1.39-1.12-1.84-1.92-.85-.35-.64.58-1.37.39-.71-1.31-1.81-2.2-2.09-4a9.07 9.07 0 0 1 2.74.46c.12-.44-.29-1.51.21-1.5.8.53 1.76.89 2.53 1.46a9.59 9.59 0 0 1 1.82-1.13c.17.78-.39.72-.21 1.51 2.22.27 2.86-1.32 5.24-.86-.62.71-1 1.63-2 1.88a2.07 2.07 0 0 0 1.35 1.61c1.84-.57 1.83-3.36.63-5a4.29 4.29 0 0 0 .9-1.46c-1-.2-1.38-1.14-2.53-1.22-.71 1.93-1.68 3.54-4.77 2.69a9.27 9.27 0 0 1-2.32-3.24c1.68-1.95 4.68-2.36 5.4-5.44.42.26 1.8.83 2.06.42-1.19-.48-2-1.34-3.23-1.79-1.26 3.76-5.59 3.96-8.6 5.7zm198.89 11.53c0-1 .79-2.51.23-3.42-.13 1.15-1.85 2.52-2.78 1 .35-1.2 1.77-1.49.69-3.09.41-.53.78-1.13 1.85-.82-.07.62-.8.38-.69 1.23 1.57 2.22 3.07 4.51 5.55 5.81.08-2.91-.73-4.93-2.32-6.17.31-.13.43-.51.47-1a7.37 7.37 0 0 1-2.33-1.64c.21-.54 1-.29 1.39-.61-.06-3.44 1.29-5.05 2-7.44.79 2 3 2.52 3.5 4.73-.29 1.22-1.26 1.56-1.37 3 .65.37 1.59-.23 1.62.21a6.06 6.06 0 0 1 .23 2.17c.65.7 1-.7 1.85-.55-3.18-3.12 1.25-2.94 1.6-6.44.13-1.3-.59-1.55-.47-3.27 3.29 2.36 6.83 1.2 6.46-2.59-.33-3.37-4.24-4.35-5.38-7.13-2.78.81-2.21 4.81-1.57 8.59-3.32-3.21-8.26-4.75-12.31-7.22 1.51 2.12 4.57 2.64 5.82 5-1.49 1.43-2 4.19-2.49 6.85-.82-.42-1.59-2.28-2.33-1.9.77 1.36 1.85 2.39 2.1 4.27-2 .05-1.79-2.08-3.25-2.56a8.81 8.81 0 0 1 .24 2.95l-1.85-.24c.34 2.6.88 5.56-.44 7.11 1.34 1.06 2.15 2.64 3.98 3.17zm-.71-9.13v1.32c-.27-.07-.41 0-.47.22-.65-.15-1-.6-.92-1.46.28-.27.81-.14 1.39-.08zM197 323.33c-6.65 1.36-5.29 16.82 2.21 18.77v3.16c1.73.12 1.74-2 1.89-4a14.34 14.34 0 0 0 6.94-2.5c2.12-6.87-1.38-12.8-4.55-16.74a4.78 4.78 0 0 0-2.77.17c-.82-1.2-1-3.06-3-3a12.71 12.71 0 0 0-.72 4.14zm3-1.2a3.45 3.45 0 0 1-1.62.58 2.07 2.07 0 0 1-.22-1.34 3.67 3.67 0 0 0 1.84.76zm-60.88 27.53c-.35 1.66.93 3.91.86 5.57 0 1.22-1.09 1.31-.71 2.51a4.17 4.17 0 0 1 1.38-1.39 5.12 5.12 0 0 0 3.64 3.57c5.69 1.63 11-3.94 8.16-11-.21.43-.09 1.3-.48 1.5-1.64-1-4.25-1.9-3.4-4.58a12.33 12.33 0 0 0 2.51 1.87c-.41-1.76.91-2.7.72-3.31a4 4 0 0 1-2.3 1.29 3.34 3.34 0 0 0-4.38-.26 5.61 5.61 0 0 1 2.06 1.8 8.1 8.1 0 0 1-4.59-1.59c-1 1.53-3.01 1.83-3.47 4.02zm11.88 4.57l1.84.23a4.19 4.19 0 0 1-1.85 1.08l.01-1.31zm-.94 2.49c-3.51 5.64-12.5-2.89-8.19-8.28l2.53.3a4.7 4.7 0 0 0-1.19 3.49c-.42-.16-.56-.62-1.14-.65.36 3.32 4.06 7.47 8 5.14zm-22.21-52.57c.13-.45-.29-1.56.22-1.54l2.07.22c-.17 1.23.78 1.3.71 2.42a3.68 3.68 0 0 0 2.53-.51c.17-1.14-.33-1.59-.25-2.64-1.67-.64-2.44-2.22-3.49-3.49-.32.38-.18 1.32-.68 1.48-.28-.49-.05-1.51-.48-1.87a10 10 0 0 1-3.43.94 7 7 0 0 0 2.8 4.99zM159 336.93c-4.53 1.17-3.17 11 1.05 13.2 2.15 1.1 3.82-.12 6.43 1.07 3.52-5.58.45-15.34-7.48-14.27zm18.28-44.28a7.53 7.53 0 0 0-2.31-.54 15.16 15.16 0 0 1-3.17 5.95c-.38-.12-1.85-1.13-1.63-.19.82 1.38 1.93 2.44 2.58 4a9.09 9.09 0 0 0-1.59 2.7c1.62-.32 3.4-.45 4.37-1.59-.54-.68-.11-2.36-.27-3.45.55.15.88.52 1.62.46.1-.49.5-.6.45-1.27-.2-.77-.91-1-1.39-1.48 1.36-.39.97-2.96 1.34-4.59zM46 306l1.76-5.23a1.91 1.91 0 0 0-1.38-.37 4.56 4.56 0 0 0-.49-1.83 8.54 8.54 0 0 0-2.74 0c-.15-.62.26-1.83-.26-2.06-.31.65-.95.89-1.11 1.7l2.54 2.51c-1 1.88-2.61 3.12-3.58 5.07A25.67 25.67 0 0 0 46 306zm133.24 30.84c-1.8.56-4.13 8.77-3.09 10.89 1.88 3.8 6.44 1.86 7.84 0a8.87 8.87 0 0 1 1.89-5.8c-.57-1.42-1.47-2.53-2-3.95-2.04-.36-3-1.66-4.64-1.14zM83.46 299a14.53 14.53 0 0 0-1-5.25c-1.65.22-2.85 1-4.34 1.42.31 2.3 1.3 3.86 1.92 5.84a4.15 4.15 0 0 0 3.42-2.01zm2.73 23.19c-.38 4.7 2.18 6.38 6.43 6.3 3.39-4.74-2.66-12.93-6-7a7.28 7.28 0 0 1 2.75.53 8.73 8.73 0 0 0-.68 3c-1.03-.71-1.17-2.39-2.5-2.83zm15.94-16.77c-.24 1.92-.16 4.26-1.33 5-1.16-.1-1.9-.63-3.22-.57.26 2.59 3.46 2.14 3.25 5.23l-3 1c1 2 2.57 4.1 2.33 6.69a10.24 10.24 0 0 0 .45-3.57 3.94 3.94 0 0 0 3.43-2 22.36 22.36 0 0 1-.71-3.17c-.72-.56-1.6-.95-2.31-1.52 2.17-.77 4.38-5.51 1.11-7.09zm.08 10.36c0 1.49-1 1.8-1.82 2.39-1.45-1.08-.06-3.08 1.82-2.39z"/><path class="W Ac" d="M113.32 300.31a1.58 1.58 0 0 0 2.54 0c.38-.95-.7-1.69-.26-1.84l.92.09v2.35c-2.26.36-4.26 2.61-2.46 5.71 1.57-.05 3.28 1.14 4.59.48a12.33 12.33 0 0 1-.49-3.17c-.87-.12-2.36.35-2.76 0 .14-.44-.28-1.55.23-1.53 1.36 1.1 4.24 1.19 4.16 3 0-.85.64-.93.44-2a9.66 9.66 0 0 1-2.09-1.52 12.62 12.62 0 0 1 3-1.77c-.72-2.07-2.19-3.34-3.28-5-1.25.28-2.65.37-3.9.65-.12.95-.53 1.58-.66 2.53.28.06.66 0 .7.33-.59.08-.79.68-.68 1.69zm-61.53-4.06c-.72 1.62-2.86 3.71-1.29 5.78 2.39.05 4.31-.44 6.87-.2.32-1.16 2.27-2.09 1.09-3.49-1.25.19-1.19 2-2 2.65-.87-.47-1.44-1.26-2.31-1.73-1 .21-2 1.61-2.73 1.31a18.23 18.23 0 0 0 .37-4.32zm13.95-24.05c-1-.21-2.07 1.54-2.7 2.62 1.5 1.58 2.06 4.13 4 5.22.59-.31.76-1.12 1.58-1.16-.17-.88-.21-1.9-.74-2.39a1.74 1.74 0 0 1-1.6.39 6.86 6.86 0 0 0-1.46-3.21c.18-.67.98-.56.92-1.47zm-1.57 1.68c.72.11.42 1.31.5 2.1a1.27 1.27 0 0 1-.5-2.1zM61 355.14c.2-1 .73-1.68.94-2.72a18.47 18.47 0 0 1-2.5-3.05c1.51-.57-.07-3.32-1.59-3.22-2.23 1.2-1.56 4.34 1.12 5a3.09 3.09 0 0 0 2.03 3.99zm.09-49.14c6.52 4.94 9.79-7 3.34-7.42-2.95-.18-5.29 4.05-3.34 7.42zm90.34-14.72a13.61 13.61 0 0 0-1.57 3.49 14.34 14.34 0 0 1 1.86 1.52c-1 1.37-2.19 4.41.51 5 .65-2.22-.34-6.46 2.24-6.3a9.62 9.62 0 0 0-3.04-3.71zm2.65 10.25c-2.23 1.31-2.78 4.46-.87 7.24 1.09-.38 3 .29 4.14 0 0-1.68-2.06-1.64-3.24-1.42-1.77-1.21-1.31-5.25 1.35-4.56-.36.59-.35 1.64-.67 2.28.91-.09 2-1.32 2.53-1a18.44 18.44 0 0 1 .25 3.17c1.8-.13.55-3.34.2-4.43a12.13 12.13 0 0 1-3.69-1.28zm-73.26-32.22c-1.52.31-3.07.6-3.62 2 3.09.45 4.46-1.13 6.38-2 .24 3 2.5 7.5 5 5.61-1-.69-2.59-.79-3-2.07l5.21-2.92c1.06 1.37 1.33 3.56 2.87 4.4.06-1.37.77-2 1.08-3-.89 0-.88 1-1.58 1.16-2.94-2 1.16-4.17 2.15-6a18.23 18.23 0 0 1 1 4c2.24.54 2 3.73 2.44 6.18.36-.58 1.59-.13 1.58-1.14-.34-.18-1.18.19-1.16-.38a56.36 56.36 0 0 0 3.77-6.4c1.9.16 3.12-.51 5.29 0a33.49 33.49 0 0 0 2.15 3.06c.37-.4.14-1.51.16-2.33-1.2-1.3-3.15-1.8-5.56-1.81.16-1.68-1.27-1.67-1.23-3.23.72 0 1.69.33 2.07-.07.11-.92-.3-1.29-.51-1.87-1.38-.46-1.55.52-2.52.55-1-.41-.73-1.88-.54-2.9.51.26.81.74 1.63.66.06-1.2 1-1.38 1.08-2.5-.65-.2-1.21-.49-1.86-.69-1 2.77-3.25 3.32-6.17 1.53.32 1.37 1.6 1.69 1.93 3-.06 2.06-2.91 1.55-3.68.19.41-.79 1.63-1.93 1.06-3-1.54 1.44-2.58.48-5 .6.26.78.25 1.85.75 2.4a3.13 3.13 0 0 1 2.76 0c-.16 2 1.34 2.12 1.71 3.52-1 .53-1.84-.45-2.56-1-.35 2.69-1.77 4.13-5 3.45l-1-4-2.3-.19-.14-4.93c-2.1 1.38-.16 7.5-2.29 8.87-1.15-.72-1.11-2.72-2.37-3.31-.8 1.17.2 2.92.02 4.56zm16.67-4.51c2.15-.23 1.39-3.91 3.33-4.38-.36 2.54 5.17 7.12.45 8.1-.43.68-.55 1.71-1.34 2-2.93-.26-2.42-2.84-2.44-5.72zm-10.81.1c.6 1.4 2.87 5.45-.08 5.69a2.78 2.78 0 0 1-2.6-2.81c.09-1.7 2-1.39 2.68-2.88zm19.84 24.61c-3.29 1.4-7.93 1.18-8.42 5.94 2.33 1.94 3.11 5.51 5.61 7.27-.75-.12-1 .36-1.83.08a4.71 4.71 0 0 0 1.63 2.49c1.22-4.83 7.83-3.13 7.46-9.89a12.33 12.33 0 0 0-4.45-5.89zM99.68 293c.92.26.69 1.73.73 2.92a6.57 6.57 0 0 1-.73-2.92zm155.62 30.69c1.35.46 2.78-.32 4.63-.65v1.87c2.22-.83-.28-5.12.48-6.89-1.69-1.4-2.42-4.14-5.08-4-3.45.28-4.33 8.23-.03 9.67zm-30.3-5.38c1.72 2.08 2.44 5.15 5.77 5.6 4-1.8 1.39-7.2-1.37-9.24.7-.34 1.14-2.46 0-2.93.66 2.18-1.17 1.16-1.85 1.61a2.36 2.36 0 0 1 .93 2.25c-.62 1.63-2.04 2.19-3.48 2.71zm8.25 16.33c1.32 1.14 1.93 3 3.44 3.95.45-2 1.78-2.87 1.89-5.32a6.84 6.84 0 0 0-2.54.7c-.52-.47.14-2.08-.69-2.23-.1.68-.7.71-.71 1.5s.75 1 .68 2c-.51-.24-1.72-1.11-2.07-.6zM206.77 270c.29 1.05 1.28 1.36 2.56 1.38-.13.7-1 .54-.89 1.48a21.58 21.58 0 0 0 8.87 5.1c1.19-4.16.67-9.46-3.4-10.28-1.11 3.46-5.53-.03-7.14 2.32zm56.66 38c-.66-.51-1.07-1.25-2.09-1.39-.71 4.46 1.32 6.42 2.32 8.39-.2.81-1.34.4-1.39 1.4 1.11-.06 1.66-.86 2.78-.93a6.75 6.75 0 0 1 .92 2.29c-.27.64-1.12.51-.94 1.73l.7.91c1.1.46.86-.85 1.85-.53.12-2.78-1-4.31-1.83-6.18-.2.38-.59.5-1.16.37-1.46-.92-1.15-3.65-1.16-6.06zm-215.01-7.16c2.47-2.57-3.38-2 0 0zm70.96 7.36c-2.46 2.32 3 2.2 0 0zm22.89-39.64c-4.81-2.14-.43 5.22 0 0zM159.2 253c.74-6.1-5.64.43 0 0zm81.51 69.64c1.81-3.31-3.74-1.36 0 0z"/></g><path d="M26.53,323.74c61.76-20.52,159.52-21.16,227.73,0l-1.14-29.82c-68.89-17.83-139.08-18-229.25-5.45Z" opacity=".38" class="Ae"/><g opacity=".66" class="Aa"><path d="M26.15,319.24c49.05-24.31,196.66-19.7,227.73-.38V298.78c-77.16-26.88-137.35-28.66-230.2-8.36Z" opacity=".57"/></g><path d="M262.13 313.91c-.71-4.84-5-10.71-5.17-15.59-.19-5.36 1-10.62 2.36-15.8.78-3.08 1.57-6.1-.48-8.92-1.5-2.06-5.56-4.67-8-5.63a129.46 129.46 0 0 0-18.84-6.05 193.8 193.8 0 0 0-27-4.21c-21.46-2.12-43.14-2-64.67-1.09-21.52-1-43.2-1-64.64 1.09a195.67 195.67 0 0 0-27 4.21A129.33 129.33 0 0 0 29.73 268c-2.41 1-6.46 3.57-8 5.63-2.06 2.82-1.27 5.84-.48 8.92 1.32 5.18 2.55 10.44 2.36 15.8-.18 4.88-4.46 10.75-5.18 15.59-.36 2.45.85 4.31 1.72 6.54 1 2.52 1.54 5.15 2.32 7.73a74.52 74.52 0 0 0 7 15.89c-.77-3.48-2.45-19.45-2.36-23.47 0-1.62-.45-4.29.12-5.8.46-1.2 1.93-2.08 3.21-2.91a31.39 31.39 0 0 1 6-2.73c9.31-3.53 19.21-5.65 29-7.41 27.08-4.84 54.53-6.3 82-5.58 11.21.29 22.35.15 33.56 1.09q8.58.72 17.11 1.85c5.43.72 9.29 1.51 16.93 2.64 9.81 1.76 19.7 3.88 29 7.4a31.76 31.76 0 0 1 6 2.74c1.29.83 2.75 1.71 3.21 2.91.57 1.5.09 4.18.13 5.8.08 4-3.36 20.09-4.14 23.56 2.47-4.54 6.9-10.73 8.5-16.05.78-2.58 1.64-5.14 2.61-7.66.93-2.26 2.14-4.12 1.78-6.57z" fill="url(#M)"/><path d="M264 309c-.71-4.84-2.89-9.44-3.06-14.33-.19-5.35 1-10.62 2.36-15.8.78-3.08 1.57-6.09-.48-8.91-1.5-2.06-5.56-4.68-8-5.63a128.29 128.29 0 0 0-18.89-6.06c-68.34-16.63-157.7-8.16-191.24 0a128.17 128.17 0 0 0-18.88 6.06c-2.41.95-6.46 3.57-8 5.63-2.06 2.82-1.27 5.83-.48 8.91 1.32 5.18 2.55 10.45 2.36 15.8-.18 4.89-2.35 9.49-3.07 14.33-1 6.7 3.23 10.82 5.87 16.57-1.43-3-3.56-8.2-2.48-11.45 1-3.1 5.29-5.33 8-6.72 14-6.55 39-11.29 64-13.55 23.8-2.16 72.2-2.94 100.38.59 23.4 2.93 47.1 6.88 60.15 13 2.71 1.39 7 3.62 8 6.71 1.08 3.26-1.05 8.47-2.48 11.46 2.66-5.77 6.88-9.89 5.94-16.61z" fill="url(#N)"/><path d="M19.72 294.69c-.18 4.89-2.35 9.49-3.07 14.33-.95 6.44 2.91 10.52 5.55 15.94-6.52-16.62 2.29-7.65 4-32 .64-9.12-1.05-18.33-3.08-27.21a20.33 20.33 0 0 0-5.28 4.25h0c-3.84 5.29 2.33 12.07 1.88 24.69z" class="AX AZ"/><path d="M80.05 299.74l.8-4.3 3.91-11.86-10.51 12.66-.42 4.09 6.22-.59z" fill="url(#O)"/><path class="c AY Ad" d="M28.44 287.69c.62 6.51-.21 13.28-3.31 19.08 1.09-2 9.18-4 11.41-4.86a123.52 123.52 0 0 1 13.21-4c8.57-2.1 17.43-3.12 26.2-4.08-.93 1.17-.64 2.3-2.62 2.54-4.15.48-8.3 1.16-12.47 1.91-6.71 1.21-13.37 2.67-19.92 4.54-6.82 2-19.74 4.9-20.74 13.17-.38 3.15.63 6.28 1.65 9.3-2.06-5.24-4-8.9-1.09-14.24a46.65 46.65 0 0 0 5.93-20.93 54.6 54.6 0 0 0-3.11-21.38c2.26 6.12 4.25 12.44 4.86 18.95z"/><path d="M21 309.76c-1.52 3.23-2.66 6.93-1.48 10.3-3.22-5.89-4.08-13.21-.17-19.06a2 2 0 0 1 .44-.51c.95-.7 1.73-.67 2.5-1.68a10.94 10.94 0 0 0 1.43-3.08 27.7 27.7 0 0 0 1.28-8.94 80.24 80.24 0 0 0-.29-8.35 10.67 10.67 0 0 0-1.44-5.21 4.28 4.28 0 0 0-4.85-1.82c1.55-.63 3-1.42 4.49-2.14 2 7 4 13.31 3.76 20.72-.15 6.58-2.89 13.79-5.67 19.77z" class="AX AZ"/><path class="d Ab Ac" d="M22.86 278.78a9.53 9.53 0 0 1 1 3.26 10 10 0 0 1-.25 3 102.26 102.26 0 0 1-4.53 16.54c1.62-4.42 1.11-10.53.55-15.09a47.66 47.66 0 0 0-1.63-7.84c-.64-2.15-1.67-4.59-1.58-6.87a20.26 20.26 0 0 1 6.44 7z"/><g class="Af"><path class="e AX" d="M107 285.52a1.32 1.32 0 0 0 .9 1.66 1.38 1.38 0 0 0 1.71-.88 1.32 1.32 0 0 0-.91-1.65 1.37 1.37 0 0 0-1.7.87zM50.05 290a2.34 2.34 0 0 0 1.61 2.94 2.44 2.44 0 0 0 3-1.56 2.34 2.34 0 0 0-1.61-2.93 2.44 2.44 0 0 0-3 1.55zM61 268.35a1.75 1.75 0 0 0 1.21 2.2 1.83 1.83 0 0 0 2.27-1.17 1.76 1.76 0 0 0-1.21-2.2 1.82 1.82 0 0 0-2.27 1.17zm-22.8.91a1.76 1.76 0 0 0 1.21 2.2 1.82 1.82 0 0 0 2.27-1.17 1.75 1.75 0 0 0-1.2-2.2 1.84 1.84 0 0 0-2.28 1.17zm87.87-6.96a1.32 1.32 0 0 0 .93 1.7 1.37 1.37 0 0 0 1.7-.87 1.32 1.32 0 0 0-.9-1.66 1.38 1.38 0 0 0-1.73.83zm4.22 18.77a1.31 1.31 0 0 0 .9 1.65 1.38 1.38 0 0 0 1.71-.88 1.32 1.32 0 0 0-.91-1.65 1.37 1.37 0 0 0-1.7.88zm-36.35-14.48a1.9 1.9 0 0 0 1.31 2.41 2 2 0 0 0 2.46-1.27 1.9 1.9 0 0 0-1.31-2.38 2 2 0 0 0-2.46 1.24z"/></g><path d="M263.31 305.91c-8.57-24.79 9.83-30.93-5.8-40.19-2 8.89-3.72 18.1-3.09 27.22 1.51 21.79 10.61 17.31 4.08 31.75 0 .1-.08.2-.11.3 3.72-7.65 7.23-9.79 4.92-19.08z" class="AX AZ"/><path class="f" d="M258.83 311.55c-3.85-6.62-4.6-17.52-4.9-24.59-.28-6.6 2.22-14.51 4.35-20.76a18.82 18.82 0 0 0-1.75-1l-.19-.1a16.86 16.86 0 0 0-1.53-.72 137 137 0 0 0-14.27-4.86c-1.46-.41-3-.8-4.62-1.2-68.34-16.63-157.7-8.16-191.24 0A126 126 0 0 0 31 262.37c-1.75.64-3.49 1.29-5.21 2-.46.18-1 .44-1.54.72l-.18.1a68.42 68.42 0 0 0-1.76 1c2.14 6.25 4.63 14.16 4.35 20.76-.3 7.07-1 18-4.9 24.59.19-.19.36-.37.56-.55 10.43-14.64 20.54-26.57 39.37-30.65 4.09-.89 8.22-1.66 12.35-2.33 3.43-.55 8-.33 11-2.18l-11.7-3.67c5.41.14 10.68 1.61 16 2.68 9.68 1.95 18.41-.51 28.09-1 18.71-.93 38.09 1.68 56.19-4.21a57.15 57.15 0 0 0-7.32 4.42c6.8.67 14 .5 20.68 1.58a227.28 227.28 0 0 1 28.84 4.11c18.82 4.08 31.77 16.54 42.42 31.2a8.38 8.38 0 0 1 .59.61z" fill="url(#P)"/><path class="g AX" d="M24.1 265.16l-1.67 1a8.06 8.06 0 0 0 .37 1A50.89 50.89 0 0 1 20.42 312c1.93-3.39 4.15-6.54 5.59-10.18 4.41-11.22 9-20.37 20.2-26.39 9.25-5 19.84-6.89 30-9.26 15.6-3.64 31.18-3.11 47-2.8 3.89.07 7.73-1.13 11.58-1.59 4-.48 8.6.2 12.51-.55a125.72 125.72 0 0 0-13.54 3.37c11.79-.72 25-3 36.72-2 10.56 1 21.46 4.87 32 6.69 8.37 1.44 17 2.44 25.33.76a4.6 4.6 0 0 0-2.09 1.95c6 2 11.63 3 16.43 7.05 4.14 3.52 7.76 8 9.4 13.18 1.06 3.15 1.74 6.46 3 9.55 1.43 3.64 3.66 6.79 5.58 10.18a50.89 50.89 0 0 1-2.38-44.87 6.55 6.55 0 0 0 .37-1.05c-.56-.35-1.13-.67-1.66-1l-.24-.13a15.17 15.17 0 0 0-1.46-.68c-6.62-2.63-13.44-4.18-20.13-6.3l-.41-.14c-68.13-16.1-156.32-7.72-189.59.38a127.73 127.73 0 0 0-16.36 5.07l-2.52 1a15.17 15.17 0 0 0-1.46.68z" fill="url(#Q)"/><path d="M200.64 299.6l-.88-4.16 7.12-10.57-.52 11.37.35 4.38-6.07-1.02z" fill="url(#R)"/><path class="i AX" d="M17.84 270a6.44 6.44 0 0 0-.7 1.2.42.42 0 0 1 0 .1 7.48 7.48 0 0 0-.38 1.16 12.51 12.51 0 0 1 3.33-3.07 50.69 50.69 0 0 1 9.87-5c28.88-8.56 73.85-11.41 103.78-11.41 43.69 0 73.28 1.43 117 11.41 2.83.65 7.45 3.47 9.87 5a12.71 12.71 0 0 1 3.33 3.08 7.48 7.48 0 0 0-.38-1.16v-.1a6.08 6.08 0 0 0-.69-1.2c-1.31-1.8-4.58-4-7-5.2a9.41 9.41 0 0 0-1-.43c-2.52-1-4.81-1.87-7.06-2.64-2.42-.83-4.8-1.56-7.36-2.26l-4.47-1.16c-64.18-15.62-146.89-9.1-184.5-1.49l-6.74 1.49-3.24.83-3.38.94c-4.07 1.19-7.81 2.52-12.26 4.29a26 26 0 0 0-6.43 4 10.26 10.26 0 0 0-1.59 1.62z" fill="url(#S)"/><path class="c AY Ad" d="M252.16 287.69c-.62 6.51.21 13.28 3.31 19.08a123.67 123.67 0 0 0-45.65-12.19 86.22 86.22 0 0 0-2.64-9 52.55 52.55 0 0 0-.33 5.31c.05 1.79-.55 3.6-.49 5.38 11 1.55 22.64 3.49 33.3 6.54 6.83 2 19.74 4.9 20.74 13.17.38 3.15-1.07 6.31-2.09 9.33 2.06-5.24 4.47-8.93 1.54-14.27a46.66 46.66 0 0 1-5.94-20.93A54.79 54.79 0 0 1 257 268.7c-2.24 6.16-4.23 12.47-4.84 18.99z"/><path d="M259.64 309.75c1.53 3.24 2.67 6.94 1.48 10.31a23.73 23.73 0 0 0 2.08-4.53c1.11-3.74.82-11.63-2.07-14.68-.56-.6-1.6-.71-2.26-1.4a10.7 10.7 0 0 1-1.95-3.72 27.7 27.7 0 0 1-1.34-8.94 83 83 0 0 1 .29-8.35 10.61 10.61 0 0 1 1.45-5.22 4.28 4.28 0 0 1 4.84-1.81c-1.55-.63-3-1.42-4.48-2.14-2 7-4 13.31-3.77 20.72.18 6.58 2.92 13.79 5.73 19.76z" class="AX AZ"/><path class="d Ab Ac" d="M257.74 278.78a9.5 9.5 0 0 0-1 3.26 10.33 10.33 0 0 0 .24 3 100.89 100.89 0 0 0 4.54 16.53c-1.62-4.41-1.12-10.52-.56-15.08a47.69 47.69 0 0 1 1.64-7.82c.64-2.15 1.67-4.59 1.57-6.87a20.17 20.17 0 0 0-6.43 6.98z"/><g class="Af"><path class="e AX" d="M173.62 285.52a1.32 1.32 0 0 1-.91 1.65 1.36 1.36 0 0 1-1.7-.87 1.31 1.31 0 0 1 .9-1.65 1.37 1.37 0 0 1 1.71.87zm56.93 4.48a2.33 2.33 0 0 1-1.6 2.94 2.45 2.45 0 0 1-3-1.56 2.35 2.35 0 0 1 1.61-2.94 2.44 2.44 0 0 1 2.99 1.56zm-10.97-21.65a1.75 1.75 0 0 1-1.2 2.2 1.85 1.85 0 0 1-2.28-1.17 1.76 1.76 0 0 1 1.21-2.2 1.82 1.82 0 0 1 2.27 1.17zm22.82.91a1.75 1.75 0 0 1-1.21 2.2 1.82 1.82 0 0 1-2.27-1.17 1.76 1.76 0 0 1 1.21-2.2 1.82 1.82 0 0 1 2.27 1.17zm-87.87-6.96a1.31 1.31 0 0 1-.9 1.65 1.37 1.37 0 0 1-1.71-.88 1.32 1.32 0 0 1 .91-1.65 1.37 1.37 0 0 1 1.7.88zm-4.21 18.77a1.32 1.32 0 0 1-.91 1.65 1.39 1.39 0 0 1-1.71-.88 1.32 1.32 0 0 1 .91-1.65 1.39 1.39 0 0 1 1.71.88z"/><ellipse class="e AX" cx="184.78" cy="267.15" rx="1.97" ry="1.91"/></g><path d="M103.08 250.05l-.33 2-.07 1.5-1.66 36 39 21.16 41-21.1-1.7-37.71-.26-2.19a582.31 582.31 0 0 0-75.98.34z" opacity=".3" class="Aa Ag"/><path class="c AY Ad" d="M199.76 295.44l1.89-3.14c-45.64-4.39-80.11-4.57-119.73-.2l-1.07 3.34c40.77-4.9 72.99-4.54 118.91 0z"/><path d="M104.91 287.39l1.51-32.51.05-1.35 2.32-6.48 33.17-11.73 31.45 11.6 2.16 6.48 1.54 34.05-35.99 18.78-36.21-18.84z" fill="url(#T)"/><path d="M107.33 283.41l1.4-34.99.06-1.37 1.87-1.03 31.31-17.57 31.44 18.47 1.43 36.54-33.65 18.73-33.86-18.78z" fill="url(#U)"/><path d="M141.59,241.78c-.22,0-23.1,13-23.1,13L117.87,277,141,290.79l23-14.2-1.13-20.37Z" fill="url(#V)"/><path class="n" d="M155.63 261.44l-2.1-5.57c-.73-2.16-1-5.45-2.27-7.29-2-2.85-6.89-4.88-9.67-6.8-.22 0-23.1 13-23.1 13l-.62 22.22 22.29 13.33v-1c0 .24 11.19-5.32 12.19-5.71a13.65 13.65 0 0 0 1.93-.92l2.17-1.34c3.42-2.3 6.33-2.61 4.56-6.81l-3.48-8.53-1.9-4.58z" fill="url(#W)"/><path class="o AX" d="M124.92 277.66c3.5.5 7.29 3.25 10.84 4.28 4.35 1.26 9.14 2.07 13.32-.2a156.1 156.1 0 0 0 18.49-12.46c-2.52 1.9-4.27 6.8-6.63 9.24s-5.63 4.21-8.53 6.29c-3.48 2.49-9 9-13.54 7.94s-9.71-5.62-13.25-8.43c-1.47-1.17-1.68-.7-1.67-2.56 0-1.51 1.39-3 1.46-4.18a1.36 1.36 0 0 0-.49.08z" fill="url(#X)"/><path class="p AX" d="M140.73 242.4c-3.53 4.83-9.66 5.49-13.35 9.62-3.57 3.95-4.12 10.56-4.66 15.69-.2 1.82-1.2 5.59-.48 7.47 1.21 3.15 3.4-.09 4.94-1.25-2.21 3.65-6.85 7-9.8 1.63-1.57-2.86.32-8.45.41-11.62.11-3.86-.15-7.68.07-11.52 4.7-.6 9.86-3.71 14-6.1 1.87-1.12 8.48-4.95 8.87-3.92z" fill="url(#Y)"/><path d="M141.72 230.46l-.13 11.79-22.24 12.95-8.73-7.33 31.1-17.41z" fill="url(#Z)"/><path d="M119.21 254.97l-.59 21.85-9.61 5.62 1.32-34.57 8.88 7.1z" fill="url(#a)"/><path d="M141.19 290.17l-22.57-13.35-9.61 5.62 32.18 17.88v-10.15z" fill="url(#b)"/><path d="M163.07 276.59l-21.88 13.58v10.15l31.87-17.72-9.99-6.01z" fill="url(#c)"/><path d="M171.92 248.18l1.29 34.42-10.14-6.01-.51-19.83 9.36-8.58z" fill="url(#d)"/><path d="M171.92 248.18l-9.43 8.66-20.9-14.59-.01-11.79 30.34 17.72z" fill="url(#e)"/><path d="M117.71 285.55l4.86-5.38c-.41-1.13-2.17-1.64-2.74-2.71.42.23.75.63 1.17.85.58.29 1.3.82 1.93.53 1.69-.76 2.54-2.95 4.06-4a6.84 6.84 0 0 0-.52 1.18c-.28.5-.61 1-.92 1.45a10.8 10.8 0 0 0-1.1 3c.65 0 1.19.65 1.77.93l1.94.85a13.43 13.43 0 0 1 3.17 2.22c-1.36-.51-2.66-1.25-4.08-1.67a15.5 15.5 0 0 0-1.61-.36c-1.91-.31-3.82 1.07-5.51 1.79-.8.35-1.65 1.09-2.42 1.32z" fill="url(#f)"/><path d="M172.71 267.38v-.13c-1.45 2.42-2.81 6.26-5.27 7.63a11.71 11.71 0 0 0 3.4-.13c.22-.07 2.18-1.05 2.17-1l-.3-6.37z" fill="url(#g)"/><path class="y" d="M169.76 250.18l1.63-2.3-.89-.52a10.12 10.12 0 0 1-6.21.26c-5.35-1.64-11.24-4.14-15.68-7.78-2.23-1.83-3.66-4.64-5.22-7.12-.26-.42-.52-.91-.79-1.4l-.22-.39-.8-.47v11.79l4.55 3.22c1.37.72 2.76 1.43 4.06 2.28a48.34 48.34 0 0 1 6.46 4.44c1.88 1.69 4.22 2.61 5.91 4.58z" fill="url(#h)"/><path class="z Ad" d="M133.86 289.58c-1.38-2.46-3.18-5.2-5.52-6.75-2.09-1.38-4.56-1.48-6.51-3.08s-3.12-2.72-5.64-1.41l-.64.29-6.22 3.63a1 1 0 0 0 0 .35l29.25 16.28a56.43 56.43 0 0 0-4.72-9.31z" fill="url(#i)"/><path class="AA" d="M110.29 249l-.14 3.61a17.26 17.26 0 0 1-.12 3l-1 26.82.61-.35.55-1a63.73 63.73 0 0 0 3.16-6.5c1.79-4.26 2.74-8 2-12.61a35.78 35.78 0 0 0-5.06-12.97z" opacity=".39" fill="url(#j)"/><path class="AB" d="M110.74 247.8l3.19 2.09c1.51.92 3.08 2.75 4.91 2.93 1.53.16 2.51-1.32 3.71-2.46 2.54-2.42 5-4.91 7.38-7.49 2.54-2.73 6.16-6.09 7.46-9.94z" fill="url(#k)"/><path class="AC" d="M169.8 281.65c-2-.72-6.17-1.4-8-.46a77.68 77.68 0 0 0-13.69 9.16 23.69 23.69 0 0 0-4.91 5.46c-.21.32-1.28 2.63-2.05 4.47h0L173 282.62l-3.2-.97z" opacity=".54" fill="url(#l)"/><path class="AD AX" d="M141.33 230.77a7.83 7.83 0 0 0-.53 1.45 12.12 12.12 0 0 0-.21 3.94c.07 1.54-.36 5.11.4 6.37.4.66 1.6 1 2.25 1.37l5.11 2.72c1.3.68 3.12.7 4.52 1.3a16.92 16.92 0 0 1 4 2.4 15.8 15.8 0 0 1 2.73 3.21c.8 1.08 2.4 2.1 2.69 3.52 1.21-.13 1.87-1.26 2.75-2.08 2.23-2.09 5.66-3.79 7.08-6.61-2.8-.17-4.85 1.2-7.52 1.69-1 .17-2.57.82-3.52.63s-1.21-1-1.9-1.65l-4.55-4.58c-1.18-1-2.7-1.45-3.89-2.38a51.92 51.92 0 0 1-4.51-4.15 22 22 0 0 1-3.18-3.63c-.72-1.14-.55-2.24-1-3.37-.27-.6-.51-.5-.72-.15z" fill="url(#m)"/><g class="AY"><path class="I AX" d="M146.68 245.45c1.81 1.13 2.33 1.63 4.4 1.63 3.45 0 6.3 2.75 8.61 5.31 1.18 1.3 2.07 3.23 3.26 4.35a24.17 24.17 0 0 1 4.56-4.09c1.58-1.28 3-2.82 4.59-4a22.78 22.78 0 0 1-4.87 3.57c-.75.43-3.15 2.47-4 2.36s-1.93-2-2.35-2.6a11.92 11.92 0 0 0-3-3c-2.58-1.74-5.31-1.84-8-3.05-1-.44-1.85-1-2.8-1.46-3.6-1.88-4.47-2.56-4.88-7.05-.19-2-.88-4.86-.65-6.47.22 2.33-.2 4.9-.21 7.29a10.77 10.77 0 0 0 .21 3.51c.73 1.8 3.66 2.77 5.13 3.7zm-27.33 18.1c-.1 3.6-1.27 8.42-.54 11.83a3.55 3.55 0 0 0 3.11 2.87c2.1.5 2.56-.58 3.79-2.67-5.45 6.46-6.79-4.35-6.69-8.05zm6.74 16.86c1.71.93 2.93 2.56 4.66 3.52l5.4 2.86c1.37.83 3.76 1.44 4.53 3s.42 4.14.69 5.78v-5.51c3.61-.75 7.56-4.84 10.53-6.94 3.24-2.3 7.68-4.12 10.39-6.88-4.71 3-9.78 5.6-14.77 8.3a16.23 16.23 0 0 1-7.43 2.21c-3 0-5.4-1.57-8.06-2.76-1.89-.87-4.23-2.74-5.94-3.58z"/></g><path class="AE AX" d="M173 273.78a12.57 12.57 0 0 1-2.62 1.52c-1.16.33-2.16-.32-3.24-.44 1.77.75 5 1.42 6.13 3a15.6 15.6 0 0 0-.27-4.08z" fill="url(#n)"/><path class="AF AX" d="M162.82 258.29c-.33 4 .2 8.64.32 12.64.07 2.3-.69 3.61-.51 6 3.59.34 7.61 4.68 11 5.77-.32-.11-.49-7.46-.82-8.32-1.07.28-2.06 1-3.26 1.15s-2.32-.44-3.58-.51c2-4.65 3.85-7.59 2.93-13.07-.8-4.8-2.31-8.83 1.32-12.33-2.11 1.98-7.14 5.38-7.4 8.67z" fill="url(#o)"/><path class="AG AX Ab" d="M162.56 256.76l.51 19.83 9.96 6.03-7.92-7.44-2.55-18.42z"/><path d="M110.87 247.89c.86 1.69 2.42 3 3.22 4.81a37.42 37.42 0 0 1 1.72 5.31 68.85 68.85 0 0 1 2.08 12.65l.28 6.19a69.75 69.75 0 0 0 .22-7.79 60 60 0 0 1 .44-8.26c.1-1.39-.26-4.15.53-5.24 1-1.35 3.89-2.52 5.24-3.47l4.14-2.82c3.21-2 7.33-3.31 10.08-5.94-3 .77-6.18 2.71-9 4-4.62 2.12-7.93 5.49-13 3.07-1.91-.92-4.29-1.48-6-2.72z" class="AX AZ"/><path class="AG AX Ab" d="M140.99 242.53l-21.78 12.44-.59 21.85 1.88-20.99 20.49-13.3z"/><path d="M122.44 279.4a2.92 2.92 0 0 1 1.2.77 16.15 16.15 0 0 1-3.19 3.15c.79-.82 3.24-1.46 4.33-1.59a9 9 0 0 1 4.77 1.49c2 1.31 3.89 4.25 5.36 6.15a32.63 32.63 0 0 1 4.11 6c.68 1.46 1.16 3.1 1.82 4.55l-.16-8.61c-.08-2.29-1.56-2.37-3.44-3.24-3.29-1.54-5.76-4.44-9.16-5.93a29.24 29.24 0 0 1-2.83-1.06c-.79-.42-1.45-1.51-2.81-1.68z" class="AX AZ"/><g class="Af"><path class="e AX" d="M157.55 257.7a.66.66 0 0 1-.64.7.7.7 0 0 1-.67-.7.66.66 0 0 1 .64-.7.69.69 0 0 1 .67.7zm2.86 10.42a1 1 0 0 1-1 1.05 1.05 1.05 0 0 1-1-1.05 1 1 0 0 1 1-1.05 1.05 1.05 0 0 1 1 1.05zM133 261.21a1.6 1.6 0 0 1-1.55 1.64 1.57 1.57 0 0 1-1.52-1.64 1.62 1.62 0 0 1 1.56-1.64 1.57 1.57 0 0 1 1.51 1.64zm30.29 24a1.46 1.46 0 0 1-1.44 1.53 1.54 1.54 0 0 1-1.5-1.53 1.45 1.45 0 0 1 1.43-1.52 1.54 1.54 0 0 1 1.51 1.52zm-7.12-43.43a1.32 1.32 0 0 1-1.26 1.4 1.37 1.37 0 0 1-1.31-1.4 1.32 1.32 0 0 1 1.26-1.41 1.38 1.38 0 0 1 1.31 1.41zm-31.82 3.74a.93.93 0 0 1-.88.94.87.87 0 0 1-.84-.94.92.92 0 0 1 .88-.93.88.88 0 0 1 .84.93zm-7.5 20.61a1.42 1.42 0 0 1-1.37 1.4 1.3 1.3 0 0 1-1.28-1.4 1.41 1.41 0 0 1 1.37-1.41 1.32 1.32 0 0 1 1.28 1.41zm29.63 5.27a1 1 0 0 1-1 1.05 1.06 1.06 0 1 1 1-1.05zM138 240.37a1.37 1.37 0 0 1-1.3 1.41 1.33 1.33 0 0 1-1.27-1.41 1.29 1.29 0 1 1 2.57 0z"/></g><g class="Ab"><path class="AH" d="M110.07 282.05c1.37-1.84 4-2.74 6-3.69 3.13-1.52 3.4.14 6 1.63-.49 2.05-3.27 3.86-4.15 6 2.81-1.26 6.53-3.51 9.18-1.5 1.57 1.19 2.49 3.52 3.63 5.09s2.72 2.76 3.53 4.36c-2 .37-5.2-2.17-7.17-2.76a39.21 39.21 0 0 1-6.43-2.93 36.67 36.67 0 0 1-5.09-3.17c-1.32-.88-5.01-2.73-5.5-3.03zm.86-31.05l-.59 11.9c-.16 4.34.13 8.52 0 12.84-.07 1.69-.59 4.26-.06 5.8a27.27 27.27 0 0 0 .43-3.67 42.59 42.59 0 0 1 1.21-4.86c.79-2.59 1.59-4.71 1.12-7.37-.85-4.64-2.49-9.4-2.11-14.64zm32.8 46c.88-1.5 2.65-2.61 3.81-3.89a24.38 24.38 0 0 1 3.67-3.85c1.9-1.26 5-1.41 7.25-2.11-1.94 1-3.74 3-5.61 4.24l-4 2.87a35.92 35.92 0 0 1-5.12 2.74z" opacity=".37"/></g><path class="I AX AY" d="M173.03 282.62l-9.96-6.03-.26-6.84 1.28 6.07 8.94 6.8z"/><path d="M149.88 248.29l-.35-.31a7.73 7.73 0 0 0-2.41-1.88 42.67 42.67 0 0 0 5.16 2.06 25 25 0 0 1 4.14 1.34c2.87 1.46 3.83 4.87 6.2 6.89a17.46 17.46 0 0 0-2.45-.88l-2.27-1.11a12.12 12.12 0 0 1-4.84-3.13 21.78 21.78 0 0 0-3.18-2.98z" fill="url(#p)"/><path d="M104.91 287.39l36.21 18.84 35.33-18.42-35.9 16.63-35.64-17.05z" fill="#15c3d1"/><g class="AY Ag"><path class="AK" d="M109.01 282.44l32.18 17.88v-8.13l-1.15 6.08-31.03-15.83zm32.86 17.43A217.68 217.68 0 0 1 173 282.62zm-23.12-45.1l-8.42-6.9-1.34 32.99 2.01-30.98 7.75 4.89zm-6.63-7.77a231.26 231.26 0 0 0 28.56-15.89q-14.16 7.99-28.56 15.89z" opacity=".58"/></g><path class="AL Ag" d="M175.57 253.4l-2.16-6.48-31.44-18.47-31.31 17.57-1.87 1.03-2.32 6.48-.05 1.35-1.51 32.51 36.21 18.84 35.99-18.78-1.54-34.05z" opacity=".44" fill="url(#q)"/><circle class="AM" cx="30.06" cy="352.8" r="15.58" transform="matrix(.234124 -.972207 .972207 .234124 -319.98 299.4)" opacity=".94" fill="url(#r)"/><circle cx="28.8" cy="37.41" r="28.79" transform="matrix(.02 -1 1 .02 -9.16 65.48)" fill="#1a192d" opacity=".42"/><circle cx="28.8" cy="30.72" r="28.79" transform="matrix(.019197 -.999816 .999816 .019197 -2.47 58.92)" fill="url(#s)"/><circle cx="29.12" cy="27.2" r="27.2" transform="matrix(.999615 -.027747 .027747 .999615 -.74 .82)" fill="url(#t)"/><path d="M3.85,37A25.7,25.7,0,1,1,36.54,52.88,25.7,25.7,0,0,1,3.85,37Z" fill="#15c3d1"/><path d="M4.82,35.59a25.7,25.7,0,1,1,32.69,15.9A25.71,25.71,0,0,1,4.82,35.59Z" fill="url(#u)"/><path class="AR" d="M53.41 18.8A25.69 25.69 0 0 0 3.49 28.85c4.49 2.55 7.79 6.63 11 10.8l3.21 4.18c1.37 1.71 2.8 3.37 4.23 5a31.8 31.8 0 0 0 3.74 3.78A25.66 25.66 0 0 0 53.41 18.8z" fill="url(#v)"/><path class="AS AX" d="M20.72,2.9A25.69,25.69,0,0,0,4.4,34.14a12.46,12.46,0,0,1,.81-4.23,26.76,26.76,0,0,1,4-6.65C16.55,13.75,28.5,7.11,40.8,8.78l.77.11c1.6.26,3.36.78,4.17,2.18a30.42,30.42,0,0,0-3.27-5.84A25.67,25.67,0,0,0,20.72,2.9Z" fill="url(#w)"/><path class="AT AX" d="M37.51 51.49a25.67 25.67 0 0 0 3.76-46.91 14.09 14.09 0 0 1 2.34 2.29 17.5 17.5 0 0 1 2.57 5c3.9 11 2.58 26-5.68 34.78-2.18 2.35-4.65 4.66-7.5 5.9a25.09 25.09 0 0 0 4.51-1.06z" fill="url(#x)"/><path class="I AX AY" d="M45.07,9c7.72,5.41,8.78,14.61,8.59,23.39a22.29,22.29,0,0,1-.42,3.67A25.7,25.7,0,0,0,20.72,2.9C15.86,4.58,12.46,7.5,9,11.2,18,1.46,34.69,1.73,45.07,9Z"/><path d="M7.21 39a22.5 22.5 0 0 0 21.38 13.63c9.11-.31 17.82-6.63 20.62-15.28-6.27 8.26-18.94 10.47-28 5.47-9.88-5.43-16.56-20.73-10.83-31.23C7.22 14.48 6.1 19 5.61 23.23a34.61 34.61 0 0 0 .75 13.3A22 22 0 0 0 7.21 39z" class="AX AZ"/><g><path d="M34.36 41.75c.92 0 1.62-.48 1.62-1.13v-6.57c0-.65-.7-1.13-1.62-1.13s-1.61.48-1.61 1.13v6.57c0 .65.75 1.13 1.61 1.13z" fill="url(#y)"/><g><path d="M21.49 14.6c-7.22.33-12.39 5.66-12.07 12.88s5.82 11.64 13 11.26a10.11 10.11 0 0 0 8.08-4.1l-3.72-2.8a7.8 7.8 0 0 1-4.42 1.89c-3.93.21-6.62-2.7-6.78-6.52s2.15-6.95 6.14-7.17c3.82-.21 6.46 2.53 6.73 6.3h0A3.08 3.08 0 0 0 31.72 29a3.15 3.15 0 0 0 3-3h0c-.47-7.14-6.07-11.77-13.23-11.4z" fill="url(#z)"/></g><path d="M26.87 31.73c2.64-2.58 5.12-5.17 7.49-7.59a8.68 8.68 0 0 1 7.06-2.32 8.55 8.55 0 0 1 7.65 6.41 12.65 12.65 0 0 1 .22 1.35.18.18 0 0 0 .05.16v.92a9.71 9.71 0 0 1-.16 1.19A8.27 8.27 0 0 1 44.71 38a14.29 14.29 0 0 1-1.78.7 8.29 8.29 0 0 1-8.08-2c-.59-.53-1.13-1.07-1.72-1.61a1.53 1.53 0 0 1-.06-2.16 1.62 1.62 0 0 1 2.26-.16l.49.49 1.13 1.07a5.16 5.16 0 0 0 5.33 1.24 4.88 4.88 0 0 0 3.72-4c.38-3.07-1.29-5.6-4.42-6a5.29 5.29 0 0 0-4.68 1.78c-2.91 3-4.31 5-6.9 8.08a2.4 2.4 0 0 1-4.2-1.57 2.55 2.55 0 0 1 .59-1.67.79.79 0 0 1 .27-.21z" fill="url(#AA)"/></g></g></g></g></svg>