<svg id="spaceship" xmlns="http://www.w3.org/2000/svg" viewBox="0 0 300 300"><defs><style>.cls-1{fill:none;}.cls-2{fill:#fff;}.cls-3{fill:#ededed;}</style></defs><rect class="cls-1" x="0.04" width="300" height="300"/><path d="M134,89.61a20.66,20.66,0,0,0-13.24,6.23.48.48,0,0,1-.78-.53c1.32-2.87,3.85-6,6.16-7a9.55,9.55,0,0,1,8,.58A.39.39,0,0,1,134,89.61Z"/><path class="cls-2" d="M145,105.51A15,15,0,0,0,132.3,99.4a15.32,15.32,0,0,0-12,7.51,17.92,17.92,0,0,0-.31,17.21,15.3,15.3,0,0,0,14.11,8.06,15.73,15.73,0,0,0,13-10A17.86,17.86,0,0,0,145,105.51Z"/><path d="M144.55,105.87s-.27-.28-.76-.82a6.21,6.21,0,0,0-.93-.91,10.83,10.83,0,0,0-1.33-1.06,15.57,15.57,0,0,0-4.13-2,15.06,15.06,0,0,0-5.84-.56l-.88.09-.78.19-.81.19-.82.3-.83.32-.81.42a10,10,0,0,0-1.58,1A15,15,0,0,0,120,109a17.63,17.63,0,0,0-1.51,8.43,15.15,15.15,0,0,0,10.23,13.73,13,13,0,0,0,8.64.06,15.33,15.33,0,0,0,6.68-4.62l.63-.73.52-.8a10.17,10.17,0,0,0,.94-1.62c.24-.55.55-1.1.72-1.62s.35-1.15.52-1.71a18.53,18.53,0,0,0,.34-6.12c-.08-.91-.32-1.75-.46-2.53l-.69-2.06-.76-1.58a10.5,10.5,0,0,0-.66-1.11l-.58-.9Zm.87-.69.61,1a13,13,0,0,1,.71,1.18c.23.5.5,1.06.79,1.7s.46,1.4.72,2.2.38,1.72.46,2.68a19.62,19.62,0,0,1-.45,6.52c-.18.56-.36,1.12-.54,1.7s-.53,1.16-.8,1.77a11.26,11.26,0,0,1-1,1.69c-.19.28-.37.57-.57.84l-.67.77a16.17,16.17,0,0,1-7.11,4.8,13.68,13.68,0,0,1-9.1-.17,16.84,16.84,0,0,1-7.54-5.58,17.73,17.73,0,0,1-3.47-8.71,19.21,19.21,0,0,1,1.11-9.23,16.42,16.42,0,0,1,5.27-7,11.86,11.86,0,0,1,1.78-1.17l.91-.51,1-.4c.31-.13.62-.27.94-.39l1-.27c.33-.09.67-.19,1-.26l.88-.12.85-.12h1a9.43,9.43,0,0,1,1.78.15,10.47,10.47,0,0,1,1.65.33c.52.18,1,.33,1.5.51a16,16,0,0,1,4.4,2.79,14.9,14.9,0,0,1,1.38,1.36,7.61,7.61,0,0,1,.88,1.06l.66.89Z"/><path class="cls-3" d="M146.76,121.93a16.56,16.56,0,0,0,1-4.18A22.6,22.6,0,0,1,147,120c-2.19,5.66-7.4,9.75-13,10.15s-11.22-2.9-14.05-8.21a17.09,17.09,0,0,1-1.49-4,16.51,16.51,0,0,0,1.7,6.1c2.75,5.15,8.41,8.44,13.81,8S144.64,127.43,146.76,121.93Z"/><path d="M142,119.23a6.08,6.08,0,1,1-6.08-6.08A6.08,6.08,0,0,1,142,119.23Z"/><path class="cls-2" d="M136.1,117a2,2,0,1,1-2-2A2,2,0,0,1,136.1,117Z"/><path d="M167.34,89.61a20.66,20.66,0,0,1,13.24,6.23.48.48,0,0,0,.78-.53c-1.32-2.87-3.85-6-6.17-7a9.53,9.53,0,0,0-8,.58A.39.39,0,0,0,167.34,89.61Z"/><path class="cls-2" d="M156.37,105.51a15,15,0,0,1,12.68-6.11,15.29,15.29,0,0,1,12,7.51,17.9,17.9,0,0,1,.32,17.21,15.3,15.3,0,0,1-14.11,8.06,15.7,15.7,0,0,1-13-10A17.86,17.86,0,0,1,156.37,105.51Z"/><path d="M155.92,105.18s.27-.33.71-.91a8.72,8.72,0,0,1,.9-1,13.15,13.15,0,0,1,1.41-1.31,16.42,16.42,0,0,1,4.42-2.61,14,14,0,0,1,6.67-.78l.87.13c.31.07.63.16.95.25l1,.27.92.38.92.39.89.5a12.08,12.08,0,0,1,1.73,1.15,16.24,16.24,0,0,1,5.28,6.82,18.57,18.57,0,0,1,1.21,9.11,17.62,17.62,0,0,1-3.44,8.65,16,16,0,0,1-7.53,5.41,14.25,14.25,0,0,1-8.92.1,15.94,15.94,0,0,1-7-4.63l-.68-.76c-.2-.27-.38-.55-.56-.82a10,10,0,0,1-1-1.67c-.27-.58-.59-1.11-.81-1.73s-.38-1.13-.56-1.69a19.46,19.46,0,0,1-.52-6.47c.07-1,.3-1.85.43-2.68s.47-1.55.69-2.21l.77-1.7a10.28,10.28,0,0,1,.72-1.19Zm.89.68-.59.88a10.5,10.5,0,0,0-.66,1.11c-.21.46-.46,1-.73,1.59s-.43,1.32-.67,2.07-.36,1.61-.43,2.53a18.33,18.33,0,0,0,.41,6.07c.18.56.36,1.12.54,1.7s.49,1,.73,1.59a10.12,10.12,0,0,0,.94,1.58c.18.26.34.53.53.79l.63.72a15.1,15.1,0,0,0,6.6,4.45,13.62,13.62,0,0,0,8.47,0,14.78,14.78,0,0,0,7.22-5.11,15.4,15.4,0,0,0,3-8.39,16.88,16.88,0,0,0-1.61-8.3,14.71,14.71,0,0,0-5.08-5.88,9.63,9.63,0,0,0-1.55-1l-.78-.41-.81-.31-.79-.29-.77-.19c-.25-.05-.49-.13-.75-.18l-.88-.09-.86-.09h-.67a6.42,6.42,0,0,0-1.46.06,23.81,23.81,0,0,0-2.71.48,16,16,0,0,0-4.16,1.87,10.29,10.29,0,0,0-1.35,1,7.08,7.08,0,0,0-1,.89C157.12,105.55,156.86,105.82,156.81,105.86Z"/><path d="M171.51,119.23a6.08,6.08,0,1,1-6.08-6.08A6.08,6.08,0,0,1,171.51,119.23Z"/><path class="cls-2" d="M165.62,117a2,2,0,1,1-2-2A2,2,0,0,1,165.62,117Z"/><path class="cls-3" d="M154.85,122.07a16.48,16.48,0,0,1-1-4.11,16,16,0,0,0,.62,2,15.47,15.47,0,0,0,12.85,9.89,15.1,15.1,0,0,0,13.93-8,16.48,16.48,0,0,0,1.48-3.93,17.78,17.78,0,0,1-1.77,6.28,14.54,14.54,0,0,1-13.61,7.5A15,15,0,0,1,154.85,122.07Z"/></svg>