<svg id="spaceship" xmlns="http://www.w3.org/2000/svg" viewBox="0 0 300 300"><defs><style>.cls-1{fill:none;}.cls-2{fill:#1d1d1b;}</style></defs><rect class="cls-1" x="0.04" width="300" height="300"/><path class="cls-2" d="M143.54,108l.05-.18c0-.12.07-.29.17-.52l.16-.39.22-.42a7.43,7.43,0,0,1,.64-.93,6.55,6.55,0,0,1,1-.93,6.94,6.94,0,0,1,1.26-.8,7.45,7.45,0,0,1,1.51-.51,6.61,6.61,0,0,1,1.68-.1,7.67,7.67,0,0,1,1.57.35,7.46,7.46,0,0,1,1.46.66,9.05,9.05,0,0,1,1.18.88l.51.46.42.48a6.85,6.85,0,0,1,.67.88l.26.38.19.35.35.66a.33.33,0,0,1-.14.44.32.32,0,0,1-.43-.12l0,0-.36-.6-.19-.31-.26-.34a8.48,8.48,0,0,0-.65-.8l-.4-.43-.48-.4a9,9,0,0,0-1.08-.77,6.86,6.86,0,0,0-1.27-.57,7.3,7.3,0,0,0-1.47-.31s.07,0,0,0h-.34c-.12,0-.23,0-.35,0s-.47,0-.71.08a6.4,6.4,0,0,0-1.32.44,7.21,7.21,0,0,0-1.12.67,6.16,6.16,0,0,0-.87.8,6.41,6.41,0,0,0-.6.8l-.21.36-.15.31c-.09.18-.14.37-.19.48l-.06.18a.34.34,0,0,1-.41.22A.33.33,0,0,1,143.54,108Z"/><path class="cls-2" d="M144.86,108.53s0,0,0-.07a.41.41,0,0,0-.13-.19c-.1-.1-.24-.16-.36-.26a3.68,3.68,0,0,1-.33-.35c-.11-.13-.2-.17-.27-.31-.28-.59-1.3-.17-1.06.45a1.62,1.62,0,0,0,1.27,1,1.08,1.08,0,0,0,.73,0C144.8,108.78,144.91,108.63,144.86,108.53Z"/><path class="cls-2" d="M156.13,109.18a1.89,1.89,0,0,0,1.37-.82c.23-.36-.22-.75-.57-.56s-.67.54-1.06.76A.34.34,0,0,0,156.13,109.18Z"/></svg>