<svg id="spaceship" xmlns="http://www.w3.org/2000/svg" viewBox="0 0 300 300"><defs><style>.cls-1{fill:none;}.cls-2{fill:#eee;}</style></defs><rect class="cls-1" x="0.04" width="300" height="300"/><g id="Path_247" data-name="Path 247"><path class="cls-2" d="M155.21,57.28s0-.05,0-.07,0-.09,0-.14a.25.25,0,0,1,0-.09v-.23s0-.07,0-.1,0-.09,0-.13a.14.14,0,0,0,0-.07l0-.16s0,0,0,0,0-.11-.06-.15L152,49.31a1.81,1.81,0,0,0-3.29,0l-3.11,6.8-.06.15s0,0,0,0a.94.94,0,0,0,0,.16.14.14,0,0,0,0,.07.59.59,0,0,0,0,.13.41.41,0,0,0,0,.1V57s0,.06,0,.1a.69.69,0,0,0,0,.13.14.14,0,0,0,0,.07.94.94,0,0,0,0,.16s0,0,0,0l.06.15,3.11,6.8a1.8,1.8,0,0,0,2.4.89,1.83,1.83,0,0,0,.89-.89l3.11-6.8.06-.15a0,0,0,0,1,0,0C155.18,57.38,155.2,57.33,155.21,57.28Z"/></g></svg>