<svg id="spaceship" xmlns="http://www.w3.org/2000/svg" xmlns:xlink="http://www.w3.org/1999/xlink" viewBox="0 0 300 300"><defs><style>.cls-1{fill:none;}.cls-2{fill:url(#linear-gradient);}.cls-3{fill:url(#linear-gradient-2);}.cls-4{fill:url(#linear-gradient-3);}.cls-5{fill:#fff;}.cls-6{fill:url(#linear-gradient-4);}.cls-7{fill:url(#linear-gradient-5);}.cls-8{fill:url(#linear-gradient-6);}</style><linearGradient id="linear-gradient" x1="167.26" y1="141.52" x2="184.01" y2="141.52" gradientUnits="userSpaceOnUse"><stop offset="0" stop-color="#8c3a92"/><stop offset="1" stop-color="#f15e60"/></linearGradient><linearGradient id="linear-gradient-2" x1="128.2" y1="152.5" x2="172.48" y2="152.5" xlink:href="#linear-gradient"/><linearGradient id="linear-gradient-3" x1="-2975.81" y1="141.52" x2="-2959.06" y2="141.52" gradientTransform="matrix(-1, 0, 0, 1, -2842.38, 0)" xlink:href="#linear-gradient"/><linearGradient id="linear-gradient-4" x1="151.72" y1="154.69" x2="152.97" y2="154.69" xlink:href="#linear-gradient"/><linearGradient id="linear-gradient-5" x1="142.66" y1="150.55" x2="152.47" y2="150.55" xlink:href="#linear-gradient"/><linearGradient id="linear-gradient-6" x1="149.02" y1="151.99" x2="158.16" y2="151.99" xlink:href="#linear-gradient"/></defs><rect class="cls-1" x="0.04" width="300" height="300"/><path class="cls-2" d="M167.26,123.94A37.73,37.73,0,0,1,172,126s5.95,9.2,12,24.8a107.36,107.36,0,0,1-13.93,8.27S167.23,134.12,167.26,123.94Z"/><path class="cls-3" d="M167.26,123.94c-4.68-2-9.5-3.36-9.5-3.36l-.15,2.2a7.24,7.24,0,0,1-1.45,3.79c-2.15,2.27-5.82,2.07-5.82,2.07s-3.66.2-5.81-2.07a7.24,7.24,0,0,1-1.45-3.79l-.15-2.2s-4.82,1.41-9.5,3.36c0,0-.18,17.21-5.23,54.52,0,0,5.87,5.81,22.14,6,16.28-.15,22.14-6,22.14-6C167.44,141.15,167.26,123.94,167.26,123.94Z"/><path class="cls-4" d="M133.43,123.94a37.73,37.73,0,0,0-4.76,2.1s-5.95,9.2-12,24.8a107.36,107.36,0,0,0,13.93,8.27S133.46,134.12,133.43,123.94Z"/><g id="Logo_-_White_on_Gradation" data-name="Logo - White on Gradation"><circle id="Ellipse_5446" data-name="Ellipse 5446" class="cls-5" cx="150.34" cy="151.19" r="9.59"/><g id="Group_10743" data-name="Group 10743"><path id="Path_226" data-name="Path 226" class="cls-6" d="M152.34,156.4c.36,0,.63-.19.63-.44v-2.55c0-.25-.27-.44-.63-.44s-.62.19-.62.44V156C151.72,156.21,152,156.4,152.34,156.4Z"/><g id="Group_9443" data-name="Group 9443"><path id="Path_11" data-name="Path 11" class="cls-7" d="M147.35,145.86a4.7,4.7,0,0,0-4.69,5,4.49,4.49,0,0,0,5.06,4.37,3.93,3.93,0,0,0,3.14-1.59l-1.44-1.09a3,3,0,0,1-1.72.74,2.67,2.67,0,0,1-.25-5.32,2.45,2.45,0,0,1,2.61,2.45h0a1.2,1.2,0,0,0,1.26,1,1.22,1.22,0,0,0,1.15-1.17h0A4.64,4.64,0,0,0,147.35,145.86Z"/></g><path id="Path_227" data-name="Path 227" class="cls-8" d="M149.44,152.51c1-1,2-2,2.9-2.95a3.41,3.41,0,0,1,2.74-.9,3.33,3.33,0,0,1,3,2.49,4.89,4.89,0,0,1,.09.53s0,0,0,.06v.36c0,.15,0,.3-.07.45a3.2,3.2,0,0,1-1.73,2.39,5.8,5.8,0,0,1-.69.27,3.23,3.23,0,0,1-3.14-.77l-.67-.63a.61.61,0,0,1,0-.84.64.64,0,0,1,.88-.06l.19.19.44.42a2,2,0,0,0,2.07.48,1.9,1.9,0,0,0,1.44-1.57,2,2,0,0,0-1.71-2.34,2,2,0,0,0-1.82.69c-1.13,1.17-1.68,1.94-2.68,3.13a.93.93,0,0,1-1.32.09,1,1,0,0,1-.08-1.34.43.43,0,0,1,.1-.09Z"/></g></g></svg>