<svg id="spaceship" xmlns="http://www.w3.org/2000/svg" viewBox="0 0 300 300"><defs><style>.cls-1{fill:none;}.cls-2{fill:#1c1c1c;}.cls-3{fill:#fff;}.cls-4{fill:#ededed;}</style></defs><rect class="cls-1" x="0.04" width="300" height="300"/><path class="cls-2" d="M134.25,78.62A19.21,19.21,0,0,0,122,84.41a.45.45,0,0,1-.72-.5c1.23-2.66,3.57-5.6,5.73-6.51a8.82,8.82,0,0,1,7.43.54A.36.36,0,0,1,134.25,78.62Z"/><path class="cls-3" d="M144.42,93.39a14,14,0,0,0-11.76-5.68,14.19,14.19,0,0,0-11.14,7,16.62,16.62,0,0,0-.3,16,14.19,14.19,0,0,0,13.1,7.47,14.53,14.53,0,0,0,12.09-9.24A16.53,16.53,0,0,0,144.42,93.39Z"/><path class="cls-2" d="M144,93.72l-.7-.76a6.3,6.3,0,0,0-.86-.85,11,11,0,0,0-1.24-1,14.16,14.16,0,0,0-3.84-1.9,13.91,13.91,0,0,0-5.42-.52l-.81.08c-.25,0-.48.12-.73.18l-.75.17-.76.28-.77.29-.75.39a9.35,9.35,0,0,0-1.47.9,13.87,13.87,0,0,0-4.71,5.65,16.28,16.28,0,0,0-1.41,7.82,14.1,14.1,0,0,0,9.5,12.75,12.06,12.06,0,0,0,8,0,14.18,14.18,0,0,0,6.19-4.28l.59-.69c.17-.24.33-.49.49-.74a9.42,9.42,0,0,0,.87-1.5c.22-.51.51-1,.67-1.51l.48-1.58a17.19,17.19,0,0,0,.32-5.68c-.08-.85-.3-1.62-.43-2.35L145.87,97l-.71-1.47a9.37,9.37,0,0,0-.61-1L144,93.7Zm.81-.65.56.92a9.4,9.4,0,0,1,.66,1.09l.74,1.58c.21.61.42,1.3.66,2s.35,1.59.43,2.49a18.09,18.09,0,0,1-.42,6c-.16.52-.33,1-.5,1.58s-.49,1.08-.74,1.64a9.73,9.73,0,0,1-.94,1.57l-.52.78-.63.72a15,15,0,0,1-6.6,4.45,12.68,12.68,0,0,1-8.44-.16,15.62,15.62,0,0,1-7-5.18,16.43,16.43,0,0,1-3.21-8.08,17.87,17.87,0,0,1,1-8.57,15.41,15.41,0,0,1,4.9-6.53,10.88,10.88,0,0,1,1.65-1.08l.84-.48.88-.37.88-.35.93-.26.92-.24.81-.11.79-.11h.95a8.89,8.89,0,0,1,1.65.14,10.5,10.5,0,0,1,1.54.3c.48.17,1,.31,1.39.48A14.57,14.57,0,0,1,142.11,90a14,14,0,0,1,1.28,1.26,7.1,7.1,0,0,1,.81,1l.62.83Z"/><path class="cls-4" d="M146.08,108.62a15.58,15.58,0,0,0,.93-3.88,21.09,21.09,0,0,1-.72,2.07c-2,5.26-6.87,9-12,9.42a14.07,14.07,0,0,1-13-7.61,15.78,15.78,0,0,1-1.39-3.75,15.36,15.36,0,0,0,1.58,5.66c2.55,4.78,7.8,7.84,12.82,7.48S144.11,113.73,146.08,108.62Z"/><path class="cls-2" d="M141.66,106.12a5.65,5.65,0,1,1-5.64-5.64A5.65,5.65,0,0,1,141.66,106.12Z"/><path class="cls-3" d="M136.19,104.06a1.87,1.87,0,1,1-1.87-1.86A1.87,1.87,0,0,1,136.19,104.06Z"/><path class="cls-2" d="M165.18,78.62a19.16,19.16,0,0,1,12.29,5.79.45.45,0,0,0,.73-.5c-1.23-2.66-3.58-5.6-5.73-6.51a8.82,8.82,0,0,0-7.43.54A.36.36,0,0,0,165.18,78.62Z"/><path class="cls-3" d="M155,93.39a14,14,0,0,1,11.77-5.68,14.19,14.19,0,0,1,11.14,7,16.62,16.62,0,0,1,.29,16,14.19,14.19,0,0,1-13.1,7.47A14.52,14.52,0,0,1,153,108.89,16.55,16.55,0,0,1,155,93.39Z"/><path class="cls-2" d="M154.59,93.08l.65-.85a8.5,8.5,0,0,1,.84-1,13.08,13.08,0,0,1,1.3-1.21,15.31,15.31,0,0,1,4.11-2.42,12.84,12.84,0,0,1,6.19-.72l.8.11.89.23.9.26c.29.1.56.23.85.35l.86.36.82.47a10.4,10.4,0,0,1,1.61,1.06,15.24,15.24,0,0,1,4.9,6.33,17.27,17.27,0,0,1,1.12,8.46,16.36,16.36,0,0,1-3.19,8,14.87,14.87,0,0,1-7,5,13.32,13.32,0,0,1-8.28.09,14.76,14.76,0,0,1-6.53-4.3l-.62-.7c-.19-.25-.35-.51-.53-.76a10,10,0,0,1-.94-1.55,15.69,15.69,0,0,1-.75-1.61c-.18-.53-.35-1-.52-1.56a18,18,0,0,1-.48-6,23.61,23.61,0,0,1,.4-2.49c.23-.75.43-1.44.63-2l.72-1.58A9.63,9.63,0,0,1,154,94Zm.82.63-.55.81a10.42,10.42,0,0,0-.61,1L153.57,97c-.19.58-.4,1.22-.62,1.92s-.34,1.5-.4,2.35a16.73,16.73,0,0,0,.38,5.63c.16.52.33,1,.5,1.58s.45,1,.68,1.48a8.93,8.93,0,0,0,.88,1.47c.16.24.31.49.48.72l.59.67a14,14,0,0,0,6.12,4.14,12.6,12.6,0,0,0,7.87,0,13.74,13.74,0,0,0,6.7-4.74,14.3,14.3,0,0,0,2.74-7.79,15.7,15.7,0,0,0-1.49-7.7,13.64,13.64,0,0,0-4.72-5.46,8.87,8.87,0,0,0-1.43-.88l-.73-.38-.75-.28-.74-.28-.71-.17c-.23,0-.45-.12-.7-.17l-.81-.09-.8-.08c.16,0,0,0,.07,0H166a6.82,6.82,0,0,0-1.36.06,20.76,20.76,0,0,0-2.51.45,14.78,14.78,0,0,0-3.86,1.73,10.31,10.31,0,0,0-1.26.94,6.5,6.5,0,0,0-.88.82Z"/><path class="cls-2" d="M169.05,106.12a5.64,5.64,0,1,1-5.64-5.64A5.64,5.64,0,0,1,169.05,106.12Z"/><path class="cls-3" d="M163.58,104.06a1.86,1.86,0,1,1-1.86-1.86A1.86,1.86,0,0,1,163.58,104.06Z"/><path class="cls-4" d="M153.59,108.75a14.65,14.65,0,0,1-.93-3.81,12.8,12.8,0,0,0,.57,1.82,14.34,14.34,0,0,0,11.92,9.17,14,14,0,0,0,12.93-7.41,15.17,15.17,0,0,0,1.38-3.65,16.37,16.37,0,0,1-1.65,5.83,13.49,13.49,0,0,1-12.63,7A14,14,0,0,1,153.59,108.75Z"/></svg>