<svg id="spaceship" xmlns="http://www.w3.org/2000/svg" xmlns:xlink="http://www.w3.org/1999/xlink" viewBox="0 0 300 300"><defs><style>.cls-1{fill:none;}.cls-2{fill:url(#linear-gradient);}.cls-3{fill:url(#linear-gradient-2);}.cls-4{fill:url(#linear-gradient-3);}.cls-5{fill:#fff;}.cls-6{fill:url(#linear-gradient-4);}.cls-7{fill:url(#linear-gradient-5);}.cls-8{fill:url(#linear-gradient-6);}</style><linearGradient id="linear-gradient" x1="180.5" y1="152.13" x2="202.94" y2="152.13" gradientUnits="userSpaceOnUse"><stop offset="0" stop-color="#8c3a92"/><stop offset="1" stop-color="#f15e60"/></linearGradient><linearGradient id="linear-gradient-2" x1="99.88" y1="177.35" x2="199.97" y2="177.35" xlink:href="#linear-gradient"/><linearGradient id="linear-gradient-3" x1="-8572" y1="152.13" x2="-8549.56" y2="152.13" gradientTransform="matrix(-1, 0, 0, 1, -8452.65, 0)" xlink:href="#linear-gradient"/><linearGradient id="linear-gradient-4" x1="152.57" y1="188.49" x2="154.99" y2="188.49" xlink:href="#linear-gradient"/><linearGradient id="linear-gradient-5" x1="135.09" y1="180.5" x2="154.03" y2="180.5" xlink:href="#linear-gradient"/><linearGradient id="linear-gradient-6" x1="147.37" y1="183.28" x2="165.01" y2="183.28" xlink:href="#linear-gradient"/></defs><rect class="cls-1" x="0.04" width="300" height="300"/><path class="cls-2" d="M202.94,155.44l-9,6.37-.72.51a182,182,0,0,0-12.76-14.55c.61-.56,1.18-1.14,1.73-1.73a34.74,34.74,0,0,0,3.3-4.11C189.83,144.16,195.62,148.19,202.94,155.44Z"/><path class="cls-3" d="M194,161.81A51.9,51.9,0,0,0,182.23,146c-.55.59-1.12,1.17-1.73,1.73-6.45,6-16.11,10.36-30.58,10.37s-24.13-4.38-30.58-10.37c-.61-.56-1.18-1.14-1.73-1.73a51.9,51.9,0,0,0-11.75,15.77c-4.19,8.57-7.19,20.32-5.51,35.68,0,0,15.28,10.41,49.57,11.16,34.29-.75,49.57-11.16,49.57-11.16C201.17,182.13,198.17,170.38,194,161.81Z"/><path class="cls-4" d="M96.9,155.44l9,6.37.72.51a182,182,0,0,1,12.76-14.55c-.61-.56-1.18-1.14-1.73-1.73a34.74,34.74,0,0,1-3.3-4.11C110,144.16,104.22,148.19,96.9,155.44Z"/><g id="Logo_-_White_on_Gradation" data-name="Logo - White on Gradation"><circle id="Ellipse_5446" data-name="Ellipse 5446" class="cls-5" cx="149.92" cy="181.74" r="18.51"/><g id="Group_10743" data-name="Group 10743"><path id="Path_226" data-name="Path 226" class="cls-6" d="M153.78,191.8c.69,0,1.21-.37,1.21-.85V186c0-.48-.52-.84-1.21-.84s-1.21.36-1.21.84V191C152.57,191.43,153.14,191.8,153.78,191.8Z"/><g id="Group_9443" data-name="Group 9443"><path id="Path_11" data-name="Path 11" class="cls-7" d="M144.14,171.45c-5.41.25-9.29,4.24-9,9.65s4.36,8.72,9.76,8.44a7.58,7.58,0,0,0,6.06-3.07l-2.79-2.1a5.78,5.78,0,0,1-3.31,1.41,5.14,5.14,0,0,1-.48-10.25,4.73,4.73,0,0,1,5,4.72h0a2.31,2.31,0,0,0,2.43,2A2.36,2.36,0,0,0,154,180h0C153.7,174.64,149.51,171.17,144.14,171.45Z"/></g><path id="Path_227" data-name="Path 227" class="cls-8" d="M148.17,184.29c2-1.94,3.84-3.88,5.61-5.69a6.5,6.5,0,0,1,5.29-1.74,6.42,6.42,0,0,1,5.73,4.81,6.93,6.93,0,0,1,.16,1,.17.17,0,0,0,0,.13v.68a8.67,8.67,0,0,1-.13.89,6.17,6.17,0,0,1-3.35,4.6,10.23,10.23,0,0,1-1.33.53,6.21,6.21,0,0,1-6-1.5c-.45-.4-.85-.8-1.29-1.21a1.13,1.13,0,0,1,0-1.61,1.2,1.2,0,0,1,1.69-.12l.36.36c.29.28.57.53.85.81a3.88,3.88,0,0,0,4,.93,3.66,3.66,0,0,0,2.78-3,3.8,3.8,0,0,0-3.31-4.52,4,4,0,0,0-3.51,1.33c-2.18,2.26-3.23,3.75-5.16,6.06a1.81,1.81,0,0,1-2.54.16,1.78,1.78,0,0,1-.61-1.34,1.91,1.91,0,0,1,.44-1.25,1,1,0,0,1,.2-.16Z"/></g></g></svg>