<svg id="spaceship" xmlns="http://www.w3.org/2000/svg" viewBox="0 0 300 300"><defs><style>.cls-1{fill:none;}.cls-2{fill:#eee;}</style></defs><rect class="cls-1" x="0.04" width="300" height="300"/><g id="Path_247" data-name="Path 247"><path class="cls-2" d="M160.25,66.16s0-.1,0-.14,0-.2,0-.3a1.76,1.76,0,0,0,0-.19,2.08,2.08,0,0,0,0-.25V65a1.12,1.12,0,0,0,0-.2c0-.07,0-.2,0-.29a.83.83,0,0,0,0-.15,2,2,0,0,0-.09-.33s0,0,0-.07a2.08,2.08,0,0,0-.12-.32l-6.59-14.42a3.84,3.84,0,0,0-7,0l-6.6,14.42c-.05.11-.08.22-.12.33s0,0,0,.06l-.09.34,0,.14a2.93,2.93,0,0,0-.05.29c0,.1,0,.13,0,.2v.5c0,.08,0,.13,0,.2s0,.19.05.29a.58.58,0,0,0,0,.14l.09.34s0,0,0,.06.07.22.12.33l6.6,14.42a3.84,3.84,0,0,0,5.09,1.9,3.9,3.9,0,0,0,1.9-1.9L160,66.89a2.67,2.67,0,0,0,.12-.33s0,0,0-.06S160.23,66.26,160.25,66.16Z"/></g></svg>