<svg id="spaceship" xmlns="http://www.w3.org/2000/svg" viewBox="0 0 300 300"><defs><style>.cls-1{fill:none;}.cls-2{fill:#db5b54;}.cls-3{fill:#1d1d1b;}.cls-4{fill:#fff;}</style></defs><rect class="cls-1" x="0.04" width="300" height="300"/><path d="M115.69,127.92c.09,2.89,2.23,5.27,4.41,7.16a45.58,45.58,0,0,0,56,2.75,15,15,0,0,0,4.7-4.74,6.51,6.51,0,0,0,.17-6.42,6.9,6.9,0,0,0-5.74-2.84,26.81,26.81,0,0,0-6.57,1,59.78,59.78,0,0,1-32.18-1.6c-4-1.35-8-3.16-12.26-3S115.55,123.69,115.69,127.92Z"/><path d="M138.13,148.77s.32,0,.88.12,1.34.26,2.28.36c.47.06,1,.13,1.5.22s1.11.1,1.68.18c1.16.16,2.41.21,3.65.31s2.49.1,3.66,0c.59,0,1.16,0,1.69,0l1.53-.06c.95,0,1.73-.13,2.29-.14l.89,0s-.29.13-.82.33a17,17,0,0,1-2.24.7l-1.53.33c-.55.12-1.13.16-1.74.23a14.22,14.22,0,0,1-1.87.12h-1.93l-1.93-.19a15.52,15.52,0,0,1-1.85-.31c-.6-.13-1.17-.23-1.71-.4s-1-.33-1.5-.49a15,15,0,0,1-2.14-.91Z"/><path class="cls-2" d="M149.58,137.5a20.91,20.91,0,0,0-14.44,4.8,39.62,39.62,0,0,0,27.32.69A21,21,0,0,0,149.58,137.5Z"/><path class="cls-3" d="M147.67,127.12l-.92-.13a28,28,0,0,0,.25,8.37l1,.12A27,27,0,0,1,147.67,127.12Z"/><path id="Path_16207" data-name="Path 16207" class="cls-4" d="M170.44,139.63l-2.26,1.57c-.73.5-1.66-.45-2.08-2.13a6.66,6.66,0,0,1-.2-1.35l-.59-13c-.08-1.73.53-3,1.37-2.71a2,2,0,0,1,1,1l5.11,9.85a6,6,0,0,1,.36,4.47,1.44,1.44,0,0,1-.48.66Z"/><path id="Path_16207-2" data-name="Path 16207" class="cls-4" d="M127.37,138.68l2.36,1.6c.76.51,1.71-.43,2.12-2.12a6.65,6.65,0,0,0,.18-1.35l.44-13c.06-1.74-.59-3-1.45-2.73a1.91,1.91,0,0,0-1.05,1l-5.15,9.83a5.86,5.86,0,0,0-.31,4.49,1.48,1.48,0,0,0,.5.66Z"/></svg>