<svg xmlns="http://www.w3.org/2000/svg" xmlns:xlink="http://www.w3.org/1999/xlink" viewBox="0 0 300 300" xmlns:v="https://vecta.io/nano"><style><![CDATA[.B{isolation:isolate}.M,.N{mix-blend-mode:screen}.O{fill-rule:evenodd}.P{fill:#61d3ff}.Q{fill:#b5eaff}.R{fill:#36a9ff}]]></style><defs><clipPath id="A"><path d="M0 0h300v300H0z" fill="none"/></clipPath><clipPath id="B"><path d="M-650 0h950v400h-950z" fill="none"/></clipPath><linearGradient id="C" x1="-164.68" y1="400.37" x2="-164.68" y2="-1.13" gradientUnits="userSpaceOnUse"><stop offset="0" stop-color="#1d0e3d"/><stop offset="1" stop-color="#0f051d"/></linearGradient><radialGradient id="D" cx="-282.32" cy="160.59" r="106.68" gradientTransform="matrix(0.79, 0.79, -0.79, 0.79, 500.44, 256.64)" gradientUnits="userSpaceOnUse"><stop offset="0" stop-color="#b62133"/><stop offset=".36" stop-color="#6a131e"/><stop offset=".66" stop-color="#31090e"/><stop offset=".88" stop-color="#0d0204"/><stop offset="1"/></radialGradient><radialGradient id="E" cx="-311.69" cy="93.53" r="75.49" gradientTransform="translate(465.87 -16.77) scale(1.11)" gradientUnits="userSpaceOnUse"><stop offset="0" stop-color="#db3b3b"/><stop offset=".05" stop-color="#cc3737"/><stop offset=".24" stop-color="#8e2626"/><stop offset=".43" stop-color="#5c1919"/><stop offset=".6" stop-color="#340e0e"/><stop offset=".76" stop-color="#170606"/><stop offset=".9" stop-color="#060202"/><stop offset="1"/></radialGradient><path id="F" d="M89.94 78.49a.28.28 0 1 1 0 .4.28.28 0 0 1 0-.4z"/><path id="G" d="M74.76 39.73a1.51 1.51 0 1 1 0 2.13 1.5 1.5 0 0 1 0-2.13z"/><path id="H" d="M113.68 36.21a.5.5 0 0 1 .71.71.51.51 0 0 1-.71 0 .5.5 0 0 1 0-.71z"/><path id="I" d="M100 38.14a.25.25 0 1 1 0 .35.24.24 0 0 1 0-.35z"/><path id="J" d="M119.62 62.75a.26.26 0 0 1 .35 0 .25.25 0 0 1 0 .36.24.24 0 0 1-.35 0 .25.25 0 0 1 0-.36z"/><path id="K" d="M98.46 42.31a.51.51 0 0 1 .71 0 .5.5 0 1 1-.71.71.51.51 0 0 1 0-.71z"/><path id="L" d="M211.69 64.18a.5.5 0 1 1 0 .71.51.51 0 0 1 0-.71z"/><path id="M" d="M173.46 63.68a.5.5 0 1 1 0 .71.5.5 0 0 1 0-.71z"/><path id="N" d="M127 69.15a.24.24 0 0 1 .35 0 .25.25 0 0 1 0 .36.24.24 0 0 1-.35 0 .25.25 0 0 1 0-.36z"/><path id="O" d="M179.39 90.23a.25.25 0 0 1 .36 0 .26.26 0 0 1 0 .35.25.25 0 0 1-.36 0 .24.24 0 0 1 0-.35z"/><path id="P" d="M233.79 40.69a.51.51 0 0 1 .71 0 .5.5 0 0 1-.71.71.51.51 0 0 1 0-.71z"/></defs><g class="B"><g><g clip-path="url(#A)"><g clip-path="url(#B)"><path d="M-666.56-1.13H337.19v401.5H-666.56z" fill="url(#C)"/><g opacity=".3"><g class="P"><g class="O"><path d="M93 76.85a.85.85 0 0 1 1.2 1.2.85.85 0 0 1-1.2-1.2zm5.58 13.35a.61.61 0 0 1 .85 0 .601.601 0 0 1-.85.85.61.61 0 0 1 0-.85zm-1.78 8.21a.43.43 0 0 1 .63 0 .44.44 0 0 1 0 .62.45.45 0 0 1-.63 0 .44.44 0 0 1 0-.62z"/><use xlink:href="#F"/><path d="M99.72 91.74a.28.28 0 1 1 0 .4.28.28 0 0 1 0-.4zm4.51-4.9a.28.28 0 1 1 0 .4.27.27 0 0 1 0-.4zm-3.78-1.37a.28.28 0 1 1 0 .4.28.28 0 0 1 0-.4z"/></g><circle cx="96.61" cy="88.03" r=".14"/><path d="M107.58,101.82a.14.14,0,1,1,.2.2.14.14,0,0,1-.2-.2Z" class="O"/><circle cx="99.75" cy="87.9" r=".14"/><g class="O"><path d="M95.63 90.28a.29.29 0 1 1 0 .41.3.3 0 0 1 0-.41zm9.01 9.41a.28.28 0 1 1 0 .4.28.28 0 0 1 0-.4zM97.78 143a.28.28 0 1 1 0 .4.28.28 0 0 1 0-.4zm29-50.64a.83.83 0 0 1 1.2 0 .85.85 0 1 1-1.2 0zm41.51-17.17a.85.85 0 1 1 0 1.2.83.83 0 0 1 0-1.2zM144 80a.86.86 0 1 1 0 1.21.86.86 0 0 1 0-1.21zm-28 55.53a.85.85 0 0 1 1.2 1.2.83.83 0 0 1-1.2 0 .85.85 0 0 1 0-1.2zm-4.9-10.05a.86.86 0 1 1 0 1.21.86.86 0 0 1 0-1.21zm7.54 18.9a.85.85 0 1 1 0 1.2.83.83 0 0 1 0-1.2zm18.12-22.48a.85.85 0 1 1 0 1.2.83.83 0 0 1 0-1.2zm-15.35-39.85a.601.601 0 1 1 .85.85.61.61 0 0 1-.85 0 .59.59 0 0 1 0-.85zm33.51-15.61a.601.601 0 0 1 .85.85.601.601 0 1 1-.85-.85zm-4.81 4.68a.59.59 0 0 1 .85 0 .601.601 0 1 1-.85.85.59.59 0 0 1 0-.85zm-17.78 65.79a.601.601 0 0 1 .85.85.61.61 0 0 1-.85 0 .59.59 0 0 1 0-.85zM104.86 90.5a.601.601 0 0 1 .85.85.601.601 0 0 1-.85-.85zm25.69 54.61a.44.44 0 0 1 .62 0 .44.44 0 1 1-.62.62.44.44 0 0 1 0-.62zm3.54 8.65a.44.44 0 0 1 .62 0 .45.45 0 0 1 0 .63.44.44 0 0 1-.62 0 .43.43 0 0 1 0-.63zm-16.95-11.3a.44.44 0 0 1 .62 0 .43.43 0 0 1 0 .63.44.44 0 0 1-.62 0 .45.45 0 0 1 0-.63z"/></g><circle cx="91.8" cy="159.01" r=".44"/><g class="O"><path d="M123.69 94a.28.28 0 1 1 0 .4.27.27 0 0 1 0-.4zm9.78 44.44a.28.28 0 0 1 .4 0 .3.3 0 0 1 0 .41.28.28 0 0 1-.4 0 .3.3 0 0 1 0-.41zm-14.18 3.68a.28.28 0 1 1 0 .4.28.28 0 0 1 0-.4zm31.64-6.19a.28.28 0 0 1 .4 0 .27.27 0 0 1 0 .4.283.283 0 0 1-.4-.4zm8.63-33.3a.28.28 0 1 1 0 .4.28.28 0 0 1 0-.4zm-21.56-.28a.28.28 0 1 1 0 .4.28.28 0 0 1 0-.4z"/></g><circle cx="175.51" cy="67.43" r=".28"/><circle cx="134.4" cy="101.18" r=".28"/><circle cx="109.16" cy="136.56" r=".28"/><circle cx="130.35" cy="103.54" r=".14"/><circle cx="107.96" cy="139.33" r=".14"/><path d="M111.75,136.63a.13.13,0,0,1,.2,0,.15.15,0,0,1,0,.2.14.14,0,1,1-.2-.2Z" class="O"/><circle cx="141.42" cy="148.63" r=".14"/><g class="O"><path d="M141.46 158.48a.14.14 0 1 1 0 .2.15.15 0 0 1 0-.2zm-5.4.14a.141.141 0 0 1 .2.2.141.141 0 0 1-.2-.2z"/></g><circle cx="136.01" cy="156.86" r=".14"/><g class="O"><path d="M118.29 143.9a.141.141 0 0 1 .2.2.141.141 0 0 1-.2-.2zm15.1-40.59a.141.141 0 1 1 .2.2.141.141 0 0 1-.2-.2zm-16.04 38.48a.15.15 0 0 1 .2 0 .141.141 0 0 1-.2.2.15.15 0 0 1 0-.2zm12.03-4.79a.28.28 0 1 1 0 .4.28.28 0 0 1 0-.4zm-17.31 4.55a.28.28 0 1 1 0 .4.28.28 0 0 1 0-.4z"/></g><circle cx="116.03" cy="142.04" r=".28"/><circle cx="138.59" cy="146.59" r=".28"/><g class="O"><path d="M172 89.37a.28.28 0 1 1 0 .4.28.28 0 0 1 0-.4zm-7.06 57.31a.28.28 0 0 1 .4 0 .27.27 0 0 1 0 .4.283.283 0 0 1-.4-.4zm18.29-30.37a.28.28 0 0 1 .4 0 .27.27 0 0 1 0 .4.283.283 0 0 1-.4-.4zm-56.9 40.2a.283.283 0 1 1 .4.4.27.27 0 0 1-.4 0 .28.28 0 0 1 0-.4z"/></g><circle cx="176.16" cy="87.04" r=".28"/><path d="M131.53 158.52a.28.28 0 1 1 0 .4.28.28 0 0 1 0-.4z" class="O"/><circle cx="135.73" cy="171.52" r=".28"/><g class="O"><path d="M120.19 149.49a.28.28 0 0 1 .4 0 .3.3 0 0 1 0 .41.28.28 0 0 1-.4 0 .3.3 0 0 1 0-.41zm118.07 39.07a.51.51 0 1 1-.51-.5.5.5 0 0 1 .51.5z"/></g></g><path d="M206.69 179.64a1.51 1.51 0 1 1-.18-2.12 1.51 1.51 0 0 1 .18 2.12z" class="O Q"/><g class="P O"><path d="M217.74 197a1.06 1.06 0 1 1-.13-1.5 1.06 1.06 0 0 1 .13 1.5zm-5.84-20.73a.51.51 0 0 1-.71.06.49.49 0 0 1-.06-.7.501.501 0 1 1 .77.64zm21.1 6.43a.25.25 0 0 1 .27.23.24.24 0 0 1-.22.27.26.26 0 0 1-.28-.23.25.25 0 0 1 .23-.27zm-3.44-10.59a.5.5 0 1 1-.46.55.51.51 0 0 1 .46-.55zm-37.81.98a.25.25 0 0 1-.33.09.242.242 0 1 1 .24-.42.23.23 0 0 1 .09.33z"/></g><path d="M180.07 199.75a1.51 1.51 0 1 1-.55-2.05 1.49 1.49 0 0 1 .55 2.05z" class="O Q"/><g class="P O"><path d="M192.05 176a1.51 1.51 0 1 1-.55-2.05 1.51 1.51 0 0 1 .55 2.05zm-26.85 15.18a1.06 1.06 0 1 1-.39-1.46 1.06 1.06 0 0 1 .39 1.46zm39.87 16.87a.78.78 0 1 1-.28-1.07.78.78 0 0 1 .28 1.07zm-7.24 24.16a.25.25 0 1 1-.09-.34.25.25 0 0 1 .09.34zm-47.58-31.55a.25.25 0 0 1-.34.1.26.26 0 0 1-.09-.35.25.25 0 1 1 .43.25zm42.85 27.08a.25.25 0 0 1-.34.09.25.25 0 1 1 .25-.43.24.24 0 0 1 .09.34zm10.33 12.43a.25.25 0 0 1-.34.09.25.25 0 0 1-.1-.34.26.26 0 0 1 .35-.09.25.25 0 0 1 .09.34zm-57.58-32.38a.25.25 0 1 1-.09-.34.25.25 0 0 1 .09.34zm12.95-28.2a.51.51 0 0 1-.69.18.502.502 0 0 1 .5-.87.51.51 0 0 1 .19.69zm-1.98-1.72a.502.502 0 0 1-.87-.5.502.502 0 1 1 .87.5zm1.63 21.37a1.06 1.06 0 0 1 1.3.76 1 1 0 0 1-.75 1.3 1.06 1.06 0 0 1-1.31-.75 1.08 1.08 0 0 1 .76-1.31zm7.27-27.11a.48.48 0 1 1 .29-.62.49.49 0 0 1-.29.62z"/><path d="M149.18 184.34a1.07 1.07 0 0 1-1.36-.64 1.065 1.065 0 0 1 2-.73 1.07 1.07 0 0 1-.64 1.37zm7.82-6.5a1.07 1.07 0 0 1 .52 1.42 1.06 1.06 0 1 1-.52-1.42zm2.51-4.84a.25.25 0 0 1-.21.45.248.248 0 1 1 .21-.45zm2.12 5.16a.25.25 0 0 1 .12.33.24.24 0 0 1-.33.12.25.25 0 1 1 .21-.45zm-6.57-5.16a.49.49 0 0 1 .24.66.52.52 0 0 1-.67.25.503.503 0 1 1 .43-.91z"/></g><g class="R"><circle cx=".98" cy="99.85" r="1.51"/><circle cx="-.53" cy="71.35" r="1.51"/><g class="O"><path d="M22.12,137.24a1.07,1.07,0,0,1-2.13,0,1.07,1.07,0,1,1,2.13,0Z"/></g></g><path d="M31.46 29.54a1.07 1.07 0 1 1-1.07-1.07 1.06 1.06 0 0 1 1.07 1.07z" class="O P"/><g class="R O"><path d="M32.26 74.72a1.07 1.07 0 1 1-1.06-1.06 1.06 1.06 0 0 1 1.06 1.06zM4.3 93.92a.5.5 0 1 1-.5-.5.5.5 0 0 1 .5.5zM8.76 61.5a.51.51 0 1 1-.5-.5.5.5 0 0 1 .5.5z"/></g><g class="P"><circle cx="94.92" cy="19.57" r="1.51"/><circle cx="32.26" cy="23.71" r="1.51"/></g><use xlink:href="#G" class="O Q"/><g class="P"><circle cx="85.1" cy="1" r="1.07"/><circle cx="104.44" cy="42.92" r="1.07"/><circle cx="55.78" cy="15.98" r="1.07"/><circle cx="101.09" cy="57.25" r=".78"/><g class="O"><path d="M88.38 21.42a.5.5 0 0 1 .71 0 .51.51 0 0 1 0 .71.502.502 0 0 1-.71-.71zM105.7 44.9a.502.502 0 1 1 .71.71.502.502 0 0 1-.71-.71z"/><use xlink:href="#H"/><path d="M107,33.78a.5.5,0,0,1,.71.71.5.5,0,1,1-.71-.71Z"/></g><circle cx="62.65" cy="41.55" r=".5"/><g class="O"><use xlink:href="#I"/><use xlink:href="#J"/></g><circle cx="105.75" cy="38.08" r=".25"/><use xlink:href="#K" class="O"/><circle cx="114.77" cy="59.33" r=".5"/><circle cx="102.62" cy="80.81" r=".5"/><path d="M82.18 64.47a.5.5 0 0 1 .71.71.51.51 0 0 1-.71 0 .5.5 0 0 1 0-.71z" class="O"/><circle cx="154.69" cy="47.05" r="1.51"/></g><path d="M227.15 15.57a1.51 1.51 0 1 1 0 2.13 1.5 1.5 0 0 1 0-2.13z" class="O Q"/><g class="P"><circle cx="185.22" cy="25.22" r="1.51"/><circle cx="135.6" cy="68.27" r="1.51"/><circle cx="140.27" cy="83.94" r="1.51"/><circle cx="144.87" cy="28.47" r="1.07"/><g class="O"><path d="M203.48.07a1.08 1.08 0 0 1 1.51 0 1.07 1.07 0 1 1-1.51 1.51 1.08 1.08 0 0 1 0-1.51zM195 8.36a1.06 1.06 0 0 1 1.51 0A1.07 1.07 0 0 1 195 9.87a1.06 1.06 0 0 1 0-1.51zm-31.54 61.28a1.08 1.08 0 0 1 1.51 0 1.07 1.07 0 1 1-1.51 1.51 1.08 1.08 0 0 1 0-1.51z"/></g><circle cx="115.55" cy="43.45" r="1.07"/><circle cx="160.86" cy="84.73" r=".78"/><circle cx="167.13" cy="100.05" r=".78"/><circle cx="186.73" cy="110.46" r=".78"/><g class="O"><path d="M136.55 79.49a.78.78 0 0 1 1.11 0 .77.77 0 0 1 0 1.1.781.781 0 0 1-1.11-1.1zm-45.44 59.94a.78.78 0 1 1 0 1.1.78.78 0 0 1 0-1.1z"/></g><circle cx="148.51" cy="49.25" r=".5"/><circle cx="165.83" cy="72.72" r=".5"/><g class="O"><path d="M140.37 78.87a.51.51 0 0 1 .71 0 .51.51 0 0 1 0 .72.51.51 0 0 1-.71 0 .51.51 0 0 1 0-.72zm56.04-10.95a.51.51 0 0 1 .72 0 .51.51 0 0 1 0 .71.53.53 0 0 1-.72 0 .51.51 0 0 1 0-.71z"/><use xlink:href="#L"/><use xlink:href="#M"/><path d="M66.38 26.9a.5.5 0 1 1 0 .71.51.51 0 0 1 0-.71zM239.59 1.48a.502.502 0 0 1 .71.71.502.502 0 1 1-.71-.71z"/></g><circle cx="167.13" cy="61.61" r=".5"/><path d="M122.07 68.67a.5.5 0 1 1 0 .71.5.5 0 0 1 0-.71z" class="O"/><circle cx="8.26" cy="23.71" r=".5"/><circle cx="159.96" cy="65.79" r=".25"/><g class="O"><path d="M120.12 73.76a.25.25 0 1 1 0 .35.24.24 0 0 1 0-.35z"/><use xlink:href="#N"/><path d="M81.6 24.76a.25.25 0 1 1 0 .36.25.25 0 0 1 0-.36z"/><use xlink:href="#O"/><path d="M179.64 139.05a.25.25 0 0 1 .36 0 .24.24 0 0 1 0 .35.25.25 0 0 1-.36 0 .24.24 0 0 1 0-.35z"/></g></g><path d="M24.59 85.27a.24.24 0 0 1 .35 0 .25.25 0 0 1 0 .36.24.24 0 0 1-.35 0 .25.25 0 0 1 0-.36z" class="O R"/><g class="P"><circle cx="170.24" cy="139.48" r=".25"/><path d="M169.81,136a.25.25,0,0,1,.36.36.25.25,0,0,1-.36-.36Z" class="O"/><circle cx="138.76" cy="82.21" r=".25"/><g class="O"><path d="M165.35 65.38a.25.25 0 1 1 0 .35.24.24 0 0 1 0-.35zM136.93 78.3a.25.25 0 0 1 .36 0 .26.26 0 0 1 0 .35.25.25 0 0 1-.36 0 .24.24 0 0 1 0-.35z"/></g><circle cx="158.59" cy="70.14" r=".5"/><path d="M127.58 77.87a.5.5 0 1 1 0 .71.51.51 0 0 1 0-.71z" class="O"/><circle cx="134.6" cy="78.73" r=".5"/><path d="M19.64 36.71a.5.5 0 1 1 0 .71.5.5 0 0 1 0-.71z" class="O"/><circle cx="28.77" cy="20.75" r="1.07"/><circle cx="38.37" cy="14.39" r=".5"/><g class="O"><path d="M31.32 11.61a.5.5 0 1 1 0 .71.51.51 0 0 1 0-.71zM24.34 16a.24.24 0 0 1 .35 0 .25.25 0 0 1 0 .36.26.26 0 0 1-.35 0 .25.25 0 0 1 0-.36zm5.56-.27a.25.25 0 1 1 0 .35.24.24 0 0 1 0-.35zm-7.11 4.41a.5.5 0 1 1 0 .71.51.51 0 0 1 0-.71zm151.4 66.31a.502.502 0 1 1 .71.71.51.51 0 0 1-.71 0 .5.5 0 0 1 0-.71z"/><use xlink:href="#P"/><path d="M221.23 87a.5.5 0 1 1 0 .71.5.5 0 0 1 0-.71z"/></g><circle cx="153.19" cy="135.92" r=".5"/><path d="M240.74,36.21a.5.5,0,1,1,.71.71.5.5,0,0,1-.71-.71Z" class="O"/><circle cx="55.4" cy="80.3" r="1.07"/><path d="M56.09 47.07a1.06 1.06 0 0 1 1.51 0 1.07 1.07 0 0 1-1.51 1.51 1.06 1.06 0 0 1 0-1.51z" class="O"/><circle cx="52.05" cy="94.63" r=".78"/><circle cx="57.02" cy="82.62" r=".5"/><g class="O"><path d="M64.65 73.58a.5.5 0 1 1 0 .71.5.5 0 0 1 0-.71zM74 43.63a.51.51 0 0 1 .71 0 .502.502 0 0 1-.71.71.51.51 0 0 1 0-.71z"/></g><circle cx="58.31" cy="71.51" r=".5"/><g class="O"><path d="M51 75.51a.25.25 0 0 1 .36 0 .26.26 0 0 1 0 .35.25.25 0 0 1-.36 0 .24.24 0 0 1 0-.35z"/></g></g><path d="M41.36 96.18a.25.25 0 0 1 .36 0 .26.26 0 0 1 0 .35.25.25 0 0 1-.36 0 .24.24 0 0 1 0-.35z" class="O R"/><g class="P"><path d="M70.58 100.13a.25.25 0 1 1 0 .35.24.24 0 0 1 0-.35zM56.53 75.28a.25.25 0 0 1 .36 0 .24.24 0 0 1 0 .35.25.25 0 0 1-.36 0 .26.26 0 0 1 0-.35zm28.39 26.81a.25.25 0 0 1 .36 0 .26.26 0 0 1 0 .35.25.25 0 0 1-.36 0 .24.24 0 0 1 0-.35z" class="O"/><circle cx="49.78" cy="80.04" r=".5"/></g><circle cx="15.5" cy="79.73" r=".5" class="R"/><g class="P"><g class="O"><path d="M65.38 96.35a.502.502 0 0 1 .71.71.51.51 0 0 1-.71 0 .5.5 0 0 1 0-.71zM162 139.12a.51.51 0 0 1 .71 0 .502.502 0 0 1-.71.71.51.51 0 0 1 0-.71zm7.13 22.67a.5.5 0 1 1 0 .71.5.5 0 0 1 0-.71zM142 91.94a.5.5 0 1 1 0 .71.51.51 0 0 1 0-.71zm103-4.32a.85.85 0 0 1 1.2 0 .86.86 0 0 1 0 1.21.85.85 0 0 1-1.2 0 .86.86 0 0 1 0-1.21zm-24.26 4.85a.86.86 0 0 1 1.21 0 .85.85 0 1 1-1.21 0zm10.91-13.6a.61.61 0 0 1 .85 0 .6.6 0 0 1 0 .86.61.61 0 0 1-.85 0 .62.62 0 0 1 0-.86zm-4.81 4.68a.601.601 0 0 1 .85.85.601.601 0 1 1-.85-.85z"/></g><circle cx="211.13" cy="166.51" r=".44"/><g class="O"><path d="M210.2 150.88a.28.28 0 1 1 0 .4.28.28 0 0 1 0-.4zm17.46-2.51a.28.28 0 0 1 .4 0 .27.27 0 0 1 0 .4.283.283 0 0 1-.4-.4zm8.63-2.11a.28.28 0 1 1 0 .4.28.28 0 0 1 0-.4z"/></g><circle cx="214.9" cy="146.18" r=".28"/><g class="O"><path d="M252 79.67a.28.28 0 1 1 0 .4.28.28 0 0 1 0-.4zm-41.07 64.94a.28.28 0 1 1 0 .4.28.28 0 0 1 0-.4z"/></g><circle cx="218.15" cy="161.06" r=".14"/><path d="M218.19 170.92a.15.15 0 0 1 .21 0 .15.15 0 0 1 0 .2.17.17 0 0 1-.21 0 .15.15 0 0 1 0-.2z" class="O"/><circle cx="212.89" cy="171.16" r=".14"/><g class="O"><path d="M212.64 169.19a.15.15 0 0 1 .2 0 .141.141 0 1 1-.2.2.15.15 0 0 1 0-.2zm-2.52-22.26a.15.15 0 0 1 .2 0 .141.141 0 0 1-.2.2.15.15 0 0 1 0-.2z"/></g><circle cx="215.32" cy="159.03" r=".28"/><g class="O"><path d="M248.77 101.81a.28.28 0 1 1 0 .4.28.28 0 0 1 0-.4zm-7.1 57.3a.3.3 0 0 1 .41 0 .286.286 0 1 1-.41.4.28.28 0 0 1 0-.4z"/></g><circle cx="252.89" cy="99.47" r=".28"/><circle cx="212.46" cy="183.96" r=".28"/><circle cx="231.42" cy="59.48" r="1.51"/></g><circle cx="261.95" cy="37.66" r="1.51" class="Q"/><g class="P"><circle cx="212.33" cy="80.71" r="1.51"/><g class="O"><path d="M106.47 175.45a1.51 1.51 0 1 1 0 2.13 1.5 1.5 0 0 1 0-2.13zm109.47-80.14a1.52 1.52 0 0 1 2.13 0 1.51 1.51 0 1 1-2.13 0z"/></g><circle cx="221.6" cy="40.91" r="1.07"/><circle cx="280.97" cy="13.26" r="1.07"/><path d="M271.68 20.8a1.06 1.06 0 1 1 0 1.5 1.05 1.05 0 0 1 0-1.5z" class="O"/><circle cx="240.95" cy="82.83" r="1.07"/><g class="O"><path d="M237 96.61a.78.78 0 1 1 0 1.11.78.78 0 0 1 0-1.11zm6.3 46.52a.78.78 0 0 1 1.11 0 .77.77 0 0 1 0 1.1.781.781 0 0 1-1.11-1.1z"/></g><circle cx="213.84" cy="92.48" r=".78"/><path d="M224.88 61.33a.5.5 0 1 1 .71.71.51.51 0 0 1-.71 0 .5.5 0 0 1 0-.71z" class="O"/><circle cx="242.56" cy="85.16" r=".5"/><g class="O"><path d="M217.1 91.31a.51.51 0 0 1 .71 0 .5.5 0 1 1-.71 0zm56.05-10.96a.502.502 0 0 1 .71.71.502.502 0 0 1-.71-.71z"/></g><circle cx="288.78" cy="76.97" r=".5"/><g class="O"><path d="M250.19 76.11a.51.51 0 0 1 .71 0 .53.53 0 0 1 0 .72.51.51 0 0 1-.71 0 .51.51 0 0 1 0-.72zm-6.69-2.42a.51.51 0 0 1 .71 0 .5.5 0 1 1-.71 0zM236.51 78a.27.27 0 0 1 .36 0 .25.25 0 1 1-.36 0z"/></g><circle cx="256.3" cy="102.84" r=".25"/><circle cx="256.55" cy="151.66" r=".25"/><circle cx="246.97" cy="151.91" r=".25"/><g class="O"><path d="M246.54 148.43a.25.25 0 0 1 .36 0 .255.255 0 1 1-.36.36.25.25 0 0 1 0-.36zm-31.22-53.96a.24.24 0 0 1 .35 0 .25.25 0 0 1 0 .36.24.24 0 0 1-.35 0 .25.25 0 0 1 0-.36zm26.76-16.66a.24.24 0 0 1 .35 0 .25.25 0 0 1 0 .36.24.24 0 0 1-.35 0 .25.25 0 0 1 0-.36z"/></g><circle cx="213.84" cy="90.91" r=".25"/><g class="O"><path d="M235 82.22a.51.51 0 0 1 .71 0 .5.5 0 1 1-.71 0zm-24 8.59a.5.5 0 1 1 0 .71.51.51 0 0 1 0-.71zm39.92 8.07a.51.51 0 0 1 .71 0 .5.5 0 1 1-.71 0zm47.08.51a.502.502 0 0 1 .71.71.502.502 0 1 1-.71-.71zM229.56 148a.51.51 0 0 1 .71 0 .502.502 0 1 1-.71.71.51.51 0 0 1 0-.71zm9.21 3.56a.5.5 0 1 1 0 .71.51.51 0 0 1 0-.71zm7.09 22.66a.51.51 0 0 1 .71 0 .51.51 0 0 1 0 .72.51.51 0 0 1-.71 0 .51.51 0 0 1 0-.72z"/></g><circle cx="219.04" cy="135.92" r=".5"/><path d="M300.06 197a1.06 1.06 0 1 1-.13-1.5 1.06 1.06 0 0 1 .13 1.5z" class="O"/><circle cx="299.32" cy="96.38" r="1.51"/><circle cx="299.77" cy="91.67" r=".5"/></g><g class="O"><path d="M278.07 248.33a1.51 1.51 0 1 1 0 2.14 1.52 1.52 0 0 1 0-2.14z" class="Q"/><g class="P"><path d="M290.51 234.24a.5.5 0 1 1 0 .71.5.5 0 0 1 0-.71zm-5.8 39.21a.51.51 0 0 1 .71 0 .53.53 0 0 1 0 .72.51.51 0 0 1-.71 0 .51.51 0 0 1 0-.72zm6.95-4.45a.5.5 0 1 1 0 .71.5.5 0 0 1 0-.71z"/></g></g><circle cx="282.34" cy="292.24" r="1.51" class="P"/><circle cx="272.52" cy="273.67" r="1.07" class="P"/><circle cx="276.15" cy="294.44" r=".5" class="P"/></g><g opacity=".3"><g class="P"><g class="O"><path d="M93 291a.85.85 0 1 1 0 1.21.86.86 0 0 1 0-1.21zm44.29-40.83a.83.83 0 0 1 1.2 0 .85.85 0 0 1-1.2 1.2.83.83 0 0 1 0-1.2zm-47.35 42.49a.28.28 0 1 1 0 .4.28.28 0 0 1 0-.4z"/></g><circle cx="100.65" cy="299.84" r=".28"/><g class="O"><path d="M168.29 289.36a.83.83 0 0 1 1.2 0 .85.85 0 1 1-1.2 1.2.83.83 0 0 1 0-1.2zM144 294.2a.86.86 0 1 1 0 1.21.86.86 0 0 1 0-1.21zm-22.59 2.01a.61.61 0 0 1 .85 0 .6.6 0 1 1-.85 0zm33.51-15.6a.601.601 0 1 1 .85.85.601.601 0 0 1-.85-.85zm-4.81 4.67a.61.61 0 0 1 .85 0 .62.62 0 0 1 0 .86.61.61 0 0 1-.85 0 .6.6 0 0 1 0-.86z"/></g><circle cx="175.51" cy="281.6" r=".28"/></g><circle cx="-.53" cy="285.52" r="1.51" class="R"/><g class="O"><path d="M31.46 243.71a1.07 1.07 0 1 1-1.07-1.07 1.06 1.06 0 0 1 1.07 1.07z" class="P"/><g class="R"><path d="M32.26 288.89a1.07 1.07 0 1 1-1.06-1.07 1.06 1.06 0 0 1 1.06 1.07zm-23.5-13.22a.51.51 0 1 1-.5-.51.51.51 0 0 1 .5.51z"/></g></g><g class="P"><circle cx="94.92" cy="233.74" r="1.51"/><circle cx="32.26" cy="237.88" r="1.51"/></g><path d="M74.76 253.9a1.51 1.51 0 1 1 0 2.13 1.5 1.5 0 0 1 0-2.13z" class="O Q"/><g class="P"><circle cx="85.1" cy="215.17" r="1.07"/><circle cx="112.27" cy="184.92" r="1.07"/><circle cx="104.44" cy="257.09" r="1.07"/><circle cx="55.78" cy="230.15" r="1.07"/><circle cx="101.09" cy="271.42" r=".78"/><circle cx="88.73" cy="235.94" r=".5"/><g class="O"><path d="M82.18 181a.51.51 0 0 1 .71 0 .5.5 0 1 1-.71 0zm23.52 78.06a.51.51 0 0 1 .71 0 .502.502 0 0 1-.71.71.51.51 0 0 1 0-.71zm7.98-8.69a.51.51 0 0 1 .71 0 .5.5 0 1 1-.71 0zM107 248a.502.502 0 0 1 .71.71.502.502 0 1 1-.71-.71z"/></g><circle cx="62.65" cy="255.72" r=".5"/><g class="O"><path d="M100 252.3a.26.26 0 0 1 .35 0 .25.25 0 0 1 0 .36.24.24 0 0 1-.35 0 .25.25 0 0 1 0-.36zm19.62 24.62a.24.24 0 0 1 .35 0 .25.25 0 0 1 0 .36.24.24 0 0 1-.35 0 .25.25 0 0 1 0-.36z"/></g><circle cx="35.41" cy="210.44" r=".25"/><g class="O"><path d="M105.57 252.07a.25.25 0 0 1 .36 0 .27.27 0 0 1 0 .36.255.255 0 0 1-.36-.36zm-7.11 4.41a.51.51 0 0 1 .71 0 .502.502 0 1 1-.71.71.51.51 0 0 1 0-.71z"/></g><circle cx="114.77" cy="273.5" r=".5"/><path d="M14.64 210.58a.51.51 0 0 1 .71 0 .5.5 0 1 1-.71.71.51.51 0 0 1 0-.71z" class="O"/><circle cx="102.62" cy="294.98" r=".5"/><path d="M82.18 278.64a.5.5 0 0 1 .71.71.51.51 0 0 1-.71 0 .5.5 0 0 1 0-.71z" class="O"/><circle cx="154.69" cy="261.22" r="1.51"/></g><path d="M227.15 229.74a1.51 1.51 0 1 1 0 2.13 1.5 1.5 0 0 1 0-2.13z" class="O Q"/><g class="P"><circle cx="185.22" cy="239.39" r="1.51"/><circle cx="135.6" cy="282.44" r="1.51"/><circle cx="140.27" cy="298.11" r="1.51"/><circle cx="144.87" cy="242.64" r="1.07"/><circle cx="204.24" cy="215" r="1.07"/><g class="O"><path d="M195 222.53a1.06 1.06 0 0 1 1.51 0A1.07 1.07 0 0 1 195 224a1.06 1.06 0 0 1 0-1.47zm-31.54 61.28a1.08 1.08 0 0 1 1.51 0 1.06 1.06 0 0 1 0 1.51 1.07 1.07 0 0 1-1.51-1.51z"/></g><circle cx="115.55" cy="257.62" r="1.07"/><circle cx="160.86" cy="298.89" r=".78"/><path d="M136.55,293.66a.78.78,0,0,1,1.11,0,.77.77,0,0,1,0,1.1.78.78,0,1,1-1.11-1.1Z" class="O"/><circle cx="148.51" cy="263.42" r=".5"/><circle cx="165.83" cy="286.89" r=".5"/><g class="O"><path d="M140.37 293a.51.51 0 0 1 .71 0 .5.5 0 1 1-.71 0zm56.04-10.92a.53.53 0 0 1 .72 0 .51.51 0 0 1 0 .71.51.51 0 0 1-.72 0 .51.51 0 0 1 0-.71zm15.28-3.73a.5.5 0 1 1 0 .71.51.51 0 0 1 0-.71zm-38.23-.5a.5.5 0 1 1 0 .71.5.5 0 0 1 0-.71zM66.38 241.07a.502.502 0 0 1 .71.71.502.502 0 1 1-.71-.71zm173.21-25.42a.502.502 0 0 1 .71.71.502.502 0 0 1-.71-.71z"/></g><circle cx="167.13" cy="275.78" r=".5"/><g class="O"><path d="M122.07 282.84a.502.502 0 0 1 .71.71.51.51 0 0 1-.71 0 .5.5 0 0 1 0-.71zM7.9 237.53a.502.502 0 1 1 .71.71.502.502 0 0 1-.71-.71z"/></g><circle cx="159.96" cy="279.95" r=".25"/><g class="O"><path d="M120.12 287.92a.26.26 0 0 1 .35 0 .25.25 0 0 1 0 .36.24.24 0 0 1-.35 0 .25.25 0 0 1 0-.36zm6.88-4.6a.24.24 0 0 1 .35 0 .25.25 0 0 1 0 .36.24.24 0 0 1-.35 0 .25.25 0 0 1 0-.36zm-45.4-44.39a.25.25 0 1 1 0 .36.25.25 0 0 1 0-.36z"/></g></g><circle cx="24.77" cy="299.62" r=".25" class="R"/><g class="P"><circle cx="138.76" cy="296.38" r=".25"/><g class="O"><path d="M165.35 279.55a.25.25 0 1 1 0 .35.24.24 0 0 1 0-.35zm-28.42 12.92a.25.25 0 0 1 .36 0 .26.26 0 0 1 0 .35.25.25 0 0 1-.36 0 .24.24 0 0 1 0-.35z"/></g><circle cx="158.59" cy="284.31" r=".5"/><path d="M127.58 292a.5.5 0 1 1 0 .71.51.51 0 0 1 0-.71z" class="O"/><circle cx="134.6" cy="292.9" r=".5"/><path d="M19.64 250.88a.5.5 0 1 1 0 .71.5.5 0 0 1 0-.71z" class="O"/><circle cx="28.77" cy="234.92" r="1.07"/><circle cx="38.37" cy="228.56" r=".5"/><g class="O"><path d="M31.32 225.78a.502.502 0 1 1 .71.71.502.502 0 0 1-.71-.71zm-6.98 4.35a.24.24 0 0 1 .35 0 .25.25 0 0 1 0 .36.26.26 0 0 1-.35 0 .25.25 0 0 1 0-.36zm5.56-.23a.25.25 0 1 1 0 .35.24.24 0 0 1 0-.35zm-7.11 4.41a.502.502 0 0 1 .71.71.502.502 0 1 1-.71-.71zm211 20.55a.51.51 0 0 1 .71 0 .502.502 0 0 1-.71.71.51.51 0 0 1 0-.71zm6.95-4.49a.51.51 0 0 1 .71 0 .502.502 0 1 1-.71.71.51.51 0 0 1 0-.71z"/></g><circle cx="55.4" cy="294.46" r="1.07"/><path d="M56.09 261.24a1.06 1.06 0 0 1 1.51 0 1.07 1.07 0 0 1-1.51 1.51 1.06 1.06 0 0 1 0-1.51z" class="O"/><circle cx="57.02" cy="296.79" r=".5"/><g class="O"><path d="M64.65 287.75a.5.5 0 1 1 0 .71.5.5 0 0 1 0-.71zM74 257.8a.51.51 0 0 1 .71 0 .502.502 0 0 1-.71.71.51.51 0 0 1 0-.71z"/></g><circle cx="58.31" cy="285.68" r=".5"/><g class="O"><path d="M51 289.68a.25.25 0 0 1 .36 0 .26.26 0 0 1 0 .35.25.25 0 0 1-.36 0 .24.24 0 0 1 0-.35zm5.53-.24a.27.27 0 0 1 .36 0 .255.255 0 0 1-.36.36.27.27 0 0 1 0-.36z"/></g><circle cx="49.78" cy="294.21" r=".5"/></g><g class="O"><path d="M15.15 293.55a.5.5 0 1 1 0 .71.5.5 0 0 1 0-.71z" class="R"/><g class="P"><path d="M231.65 293a.61.61 0 0 1 .85 0 .6.6 0 1 1-.85.85.61.61 0 0 1 0-.85z"/></g></g><circle cx="227.26" cy="298.15" r=".6" class="P"/><circle cx="252.24" cy="294.04" r=".28" class="P"/><circle cx="231.42" cy="273.65" r="1.51" class="P"/><circle cx="261.95" cy="251.83" r="1.51" class="Q"/><g class="P"><circle cx="212.33" cy="294.88" r="1.51"/><circle cx="221.6" cy="255.08" r="1.07"/><circle cx="280.97" cy="227.43" r="1.07"/><path d="M271.68 235a1.06 1.06 0 1 1 0 1.5 1.05 1.05 0 0 1 0-1.5z" class="O"/><circle cx="240.95" cy="297" r="1.07"/><path d="M224.88 275.5a.5.5 0 0 1 .71.71.51.51 0 0 1-.71 0 .5.5 0 0 1 0-.71z" class="O"/><circle cx="242.56" cy="299.33" r=".5"/><circle cx="273.5" cy="294.88" r=".5"/><g class="O"><path d="M288.42 290.79a.502.502 0 0 1 .71.71.502.502 0 0 1-.71-.71zm-38.23-.51a.502.502 0 1 1 .71.71.502.502 0 0 1-.71-.71zm-6.69-2.42a.5.5 0 1 1 0 .71.5.5 0 0 1 0-.71zm-6.99 4.35a.27.27 0 0 1 .36 0 .25.25 0 1 1-.36 0zm5.57-.21a.24.24 0 0 1 .35 0 .25.25 0 0 1 0 .36.24.24 0 0 1-.35 0 .25.25 0 0 1 0-.36zm-7.08 4.39a.51.51 0 0 1 .71 0 .5.5 0 1 1-.71 0z"/></g></g></g><g class="Q"><path d="M154.75 108.07a1.06 1.06 0 1 1-1.06-1.06 1.06 1.06 0 0 1 1.06 1.06z" class="O"/><circle cx="209.53" cy="116.86" r="1.06"/><g class="O"><path d="M126.62 267.65a1.06 1.06 0 1 1-1.06-1 1.05 1.05 0 0 1 1.06 1zm123.12-64.22a1.06 1.06 0 1 1-1.06-1.06 1.06 1.06 0 0 1 1.06 1.06zm-9.23-80.93a1.06 1.06 0 1 1-1.06-1.06 1.07 1.07 0 0 1 1.06 1.06zM288.07 55a1.06 1.06 0 1 1-2.07 0 1.06 1.06 0 1 1 2.12 0z"/></g><circle cx="202.96" cy="27.76" r="1.06"/></g></g></g><circle class="M" cx="153.12" cy="161.66" r="120.41" transform="matrix(.707107 -.707107 .707107 .707107 -69.47 155.62)" opacity=".25" fill="url(#D)"/><circle class="N" cx="120.96" cy="88.47" r="87.15" fill="url(#E)"/></g></g></svg>