<svg id="spaceship" xmlns="http://www.w3.org/2000/svg" xmlns:xlink="http://www.w3.org/1999/xlink" viewBox="0 0 300 300"><defs><style>.cls-1{fill:none;}.cls-2{fill:url(#linear-gradient);}.cls-3{fill:url(#linear-gradient-2);}.cls-4{fill:url(#linear-gradient-3);}.cls-5{fill:#fff;}.cls-6{fill:url(#linear-gradient-4);}.cls-7{fill:url(#linear-gradient-5);}.cls-8{fill:url(#linear-gradient-6);}</style><linearGradient id="linear-gradient" x1="172.07" y1="172.65" x2="193.21" y2="172.65" gradientUnits="userSpaceOnUse"><stop offset="0" stop-color="#8c3a92"/><stop offset="1" stop-color="#f15e60"/></linearGradient><linearGradient id="linear-gradient-2" x1="172.07" y1="172.65" x2="193.21" y2="172.65" gradientTransform="matrix(-1, 0, 0, 1, 300.27, 0)" xlink:href="#linear-gradient"/><linearGradient id="linear-gradient-3" x1="119.53" y1="179.52" x2="180.74" y2="179.52" xlink:href="#linear-gradient"/><linearGradient id="linear-gradient-4" x1="151.64" y1="183.73" x2="153.15" y2="183.73" xlink:href="#linear-gradient"/><linearGradient id="linear-gradient-5" x1="140.79" y1="178.77" x2="152.55" y2="178.77" xlink:href="#linear-gradient"/><linearGradient id="linear-gradient-6" x1="148.41" y1="180.5" x2="159.36" y2="180.5" xlink:href="#linear-gradient"/></defs><rect class="cls-1" x="0.04" width="300" height="300"/><path class="cls-2" d="M172.07,158.58l4.2-1.82s12.54,12.43,16.94,27.19c0,0-5.86,6-14,4.28C177.77,177.14,172.07,158.58,172.07,158.58Z"/><path class="cls-3" d="M128.2,158.58l-4.2-1.82S111.46,169.19,107.06,184c0,0,5.87,6,14,4.28C122.5,177.14,128.2,158.58,128.2,158.58Z"/><path class="cls-4" d="M172.07,158.58a62.11,62.11,0,0,1-21.93,4.89,62.12,62.12,0,0,1-21.94-4.89,153.82,153.82,0,0,0-8.67,41.88,168.07,168.07,0,0,1,61.21,0A153.37,153.37,0,0,0,172.07,158.58Z"/><g id="Logo_-_White_on_Gradation" data-name="Logo - White on Gradation"><circle id="Ellipse_5446" data-name="Ellipse 5446" class="cls-5" cx="150" cy="179.55" r="11.49"/><g id="Group_10743" data-name="Group 10743"><path id="Path_226" data-name="Path 226" class="cls-6" d="M152.4,185.79c.42,0,.75-.23.75-.53v-3c0-.3-.33-.53-.75-.53s-.76.23-.76.53v3C151.64,185.56,152,185.79,152.4,185.79Z"/><g id="Group_9443" data-name="Group 9443"><path id="Path_11" data-name="Path 11" class="cls-7" d="M146.41,173.16a5.61,5.61,0,0,0-5.61,6c.15,3.36,2.7,5.41,6.06,5.24a4.74,4.74,0,0,0,3.76-1.91l-1.73-1.3a3.65,3.65,0,0,1-2.06.88,3.19,3.19,0,1,1,2.84-3.44h0a1.42,1.42,0,0,0,1.5,1.25,1.47,1.47,0,0,0,1.38-1.4h0A5.56,5.56,0,0,0,146.41,173.16Z"/></g><path id="Path_227" data-name="Path 227" class="cls-8" d="M148.91,181.13c1.23-1.2,2.38-2.41,3.48-3.53a4,4,0,0,1,3.29-1.08,4,4,0,0,1,3.55,3,4.58,4.58,0,0,1,.1.63.11.11,0,0,0,0,.07v.43a5.21,5.21,0,0,1-.08.55,3.84,3.84,0,0,1-2.07,2.86,8.36,8.36,0,0,1-.83.32,3.86,3.86,0,0,1-3.76-.93c-.27-.25-.52-.5-.8-.75a.71.71,0,0,1,0-1,.74.74,0,0,1,1-.07l.22.22c.18.18.35.33.53.5a2.4,2.4,0,0,0,2.48.58,2.27,2.27,0,0,0,1.73-1.88,2.38,2.38,0,0,0-2.06-2.81,2.5,2.5,0,0,0-2.18.83c-1.35,1.4-2,2.33-3.2,3.76a1.12,1.12,0,0,1-1.58.1,1.14,1.14,0,0,1-.38-.83,1.24,1.24,0,0,1,.28-.78.58.58,0,0,1,.12-.1Z"/></g></g></svg>