<svg id="spaceship" xmlns="http://www.w3.org/2000/svg" viewBox="0 0 300 300"><defs><style>.cls-1{fill:none;}.cls-2{fill:#eee;}</style></defs><rect class="cls-1" x="0.04" width="300" height="300"/><g id="Path_247" data-name="Path 247"><path class="cls-2" d="M159.14,70.1a.53.53,0,0,0,0-.12,2.34,2.34,0,0,0,0-.26c0-.09,0-.12,0-.17a1.61,1.61,0,0,0,0-.22v-.22a.9.9,0,0,0,0-.18c0-.06,0-.17,0-.26a.53.53,0,0,0,0-.12,1.67,1.67,0,0,0-.08-.3s0,0,0,0a2.49,2.49,0,0,0-.11-.29L153.12,55.2a3.39,3.39,0,0,0-6.16,0l-5.81,12.71a2.12,2.12,0,0,0-.11.29s0,0,0,0a1.67,1.67,0,0,0-.08.3.5.5,0,0,0,0,.13,2.17,2.17,0,0,0,0,.25,1.62,1.62,0,0,0,0,.18,1.61,1.61,0,0,0,0,.22v.22a.88.88,0,0,0,0,.17,1.51,1.51,0,0,0,0,.26.61.61,0,0,0,0,.13,1.82,1.82,0,0,0,.08.29.14.14,0,0,0,0,.06c0,.09.07.19.11.29L147,83.46a3.39,3.39,0,0,0,6.16,0l5.81-12.71a2.12,2.12,0,0,0,.11-.29s0,0,0-.06S159.12,70.2,159.14,70.1Z"/></g></svg>