<svg id="spaceship" xmlns="http://www.w3.org/2000/svg" viewBox="0 0 300 300"><defs><style>.cls-1{fill:none;}.cls-2{fill:#fff;stroke:#000;stroke-miterlimit:10;}</style></defs><rect class="cls-1" x="0.04" width="300" height="300"/><path d="M176.64,142.2a1,1,0,0,0-1-1.63c-6.59,2.27-13.66,3.15-20.64,3.65-9.82.69-20.1.58-29.17-2.91a1,1,0,0,0-1,1.66,39.46,39.46,0,0,0,25.6,9.82A38.89,38.89,0,0,0,176.64,142.2Z"/><path d="M126.46,137.85a7,7,0,0,0-3.29,4.43c-.39,1.57.25,3.76,1.86,4.35a.42.42,0,0,0,.51-.51,12.94,12.94,0,0,1-.89-3.64,5.68,5.68,0,0,1,2.19-4.14C127.11,138.11,126.76,137.68,126.46,137.85Z"/><path d="M172.68,139.59a4.46,4.46,0,0,1,3.68,2.37c.7,1.2.37,2.62,1,3.79a.52.52,0,0,0,.81.11c1.23-1.45.18-3.89-.78-5.22a4.72,4.72,0,0,0-4.84-1.77C172.16,139,172.29,139.57,172.68,139.59Z"/><path id="Path_16207" data-name="Path 16207" class="cls-2" d="M168.54,146.35l-2.14,1.07c-.69.34-1.44-.19-1.69-1.19a3.13,3.13,0,0,1-.07-.81l.48-7.88c.07-1.06.71-1.83,1.44-1.73a1.28,1.28,0,0,1,.83.59l3.8,5.74a2.59,2.59,0,0,1,0,2.71,1.38,1.38,0,0,1-.48.43Z"/><path id="Path_16207-2" data-name="Path 16207" class="cls-2" d="M131.63,146.35l2.13,1.07c.69.34,1.45-.19,1.69-1.19a2.45,2.45,0,0,0,.07-.81l-.48-7.88c-.06-1.06-.7-1.83-1.43-1.73a1.28,1.28,0,0,0-.83.59l-3.8,5.74a2.57,2.57,0,0,0,0,2.71,1.38,1.38,0,0,0,.48.43Z"/></svg>