<svg id="spaceship" xmlns="http://www.w3.org/2000/svg" xmlns:xlink="http://www.w3.org/1999/xlink" viewBox="0 0 300 300"><defs><style>.cls-1{fill:none;}.cls-2{clip-path:url(#clip-path);}.cls-3{clip-path:url(#clip-path-2);}.cls-4{opacity:0.3;}.cls-5{fill:#61d3ff;fill-rule:evenodd;}.cls-6{clip-path:url(#clip-path-3);}.cls-7{clip-path:url(#clip-path-4);}.cls-8{clip-path:url(#clip-path-5);}.cls-9{clip-path:url(#clip-path-6);}.cls-10{fill:#a7bfa2;}.cls-11{fill:#859881;}</style><clipPath id="clip-path"><rect class="cls-1" x="776.93" y="-402.35" width="300" height="300"/></clipPath><clipPath id="clip-path-2"><rect class="cls-1" x="126.93" y="-402.35" width="950" height="400"/></clipPath><clipPath id="clip-path-3"><rect class="cls-1" x="384" y="-402.35" width="300" height="300"/></clipPath><clipPath id="clip-path-4"><rect class="cls-1" x="-266" y="-402.35" width="950" height="400"/></clipPath><clipPath id="clip-path-5"><rect class="cls-1" y="-402.35" width="300" height="300"/></clipPath><clipPath id="clip-path-6"><rect class="cls-1" x="-650" y="-402.35" width="950" height="400"/></clipPath></defs><g class="cls-2"><g class="cls-3"><g class="cls-4"><path class="cls-5" d="M246.6,23.7a.25.25,0,0,1-.34.09.26.26,0,0,1-.09-.35.25.25,0,0,1,.34-.09A.26.26,0,0,1,246.6,23.7Z"/></g></g></g><g class="cls-8"><g class="cls-9"><g class="cls-4"><path class="cls-5" d="M289.17,19a.5.5,0,1,1-.5-.5A.5.5,0,0,1,289.17,19Z"/><path class="cls-5" d="M268.66,27.43a1.06,1.06,0,1,1-.13-1.5A1.06,1.06,0,0,1,268.66,27.43Z"/><path class="cls-5" d="M283.91,13.11a.25.25,0,0,1,0,.5.24.24,0,0,1-.27-.22A.26.26,0,0,1,283.91,13.11Z"/><path class="cls-5" d="M280.47,2.53A.5.5,0,0,1,281,3a.51.51,0,0,1-.46.55.5.5,0,0,1-.54-.46A.49.49,0,0,1,280.47,2.53Z"/><path class="cls-5" d="M269.11,1.33a.15.15,0,0,1,.2,0,.14.14,0,1,1-.2,0Z"/><path class="cls-5" d="M296.78,4.64a.5.5,0,0,1,.71,0,.51.51,0,0,1,0,.71.5.5,0,0,1-.71-.71Z"/></g><g class="cls-4"><path class="cls-5" d="M197.83,12.84a.25.25,0,1,1-.09-.34A.25.25,0,0,1,197.83,12.84Z"/><path class="cls-5" d="M193.1,8.37a.25.25,0,0,1-.34.09.26.26,0,0,1-.1-.34A.27.27,0,0,1,193,8,.26.26,0,0,1,193.1,8.37Z"/><path class="cls-5" d="M203.43,20.8a.25.25,0,0,1-.34.09.25.25,0,0,1-.1-.34.26.26,0,0,1,.35-.09A.24.24,0,0,1,203.43,20.8Z"/><path class="cls-5" d="M39.72,0a.43.43,0,0,1,.4-.48.45.45,0,0,1,.48.41.44.44,0,0,1-.41.47A.43.43,0,0,1,39.72,0Z"/></g></g></g><rect class="cls-1" x="0.04" width="300" height="300"/><path class="cls-10" d="M182,201.52a8.67,8.67,0,0,0,2.37.27c10.47,0,9.56-8.19,8.95-12.81-1.47-11.18-11.92-26.66-17-32.22l-4.34,2.41,8.92,38.18a1.76,1.76,0,0,1-.18,1.08C180.23,199.22,179.66,200.88,182,201.52Z"/><path class="cls-11" d="M176.24,158.86a2.19,2.19,0,0,1,.34-2.34l-4.51,2.62,8.64,38.9S176.83,160.77,176.24,158.86Z"/><path class="cls-11" d="M188.24,194.08a5.58,5.58,0,0,1-.69,2.22,4.62,4.62,0,0,1-1.76,1.78,5.87,5.87,0,0,1-2.47.69c-.43,0-.83,0-1.26,0l-1.21-.17a1.43,1.43,0,0,1,.41-2.83,1.89,1.89,0,0,1,.36.1l.1.05.84.37c.28.07.58.18.86.24a4,4,0,0,0,1.69,0,3.15,3.15,0,0,0,1.51-.89,4.63,4.63,0,0,0,1-1.64l0,0a.3.3,0,0,1,.38-.17A.31.31,0,0,1,188.24,194.08Z"/><path class="cls-10" d="M118.16,201.52a8.67,8.67,0,0,1-2.37.27c-10.47,0-9.56-8.19-9-12.81,1.47-11.18,11.92-26.66,17-32.22l4.34,2.41-8.92,38.18a1.76,1.76,0,0,0,.18,1.08C119.92,199.22,120.49,200.88,118.16,201.52Z"/><path class="cls-11" d="M123.91,158.86a2.19,2.19,0,0,0-.34-2.34l4.51,2.62L119.44,198S123.32,160.77,123.91,158.86Z"/><path class="cls-11" d="M111.91,194.08a5.58,5.58,0,0,0,.69,2.22,4.62,4.62,0,0,0,1.76,1.78,5.87,5.87,0,0,0,2.47.69c.43,0,.83,0,1.26,0l1.21-.17a1.43,1.43,0,0,0-.41-2.83,1.89,1.89,0,0,0-.36.1l-.1.05-.84.37c-.28.07-.58.18-.86.24a4,4,0,0,1-1.69,0,3.15,3.15,0,0,1-1.51-.89,4.63,4.63,0,0,1-1-1.64l0,0a.3.3,0,0,0-.38-.17A.31.31,0,0,0,111.91,194.08Z"/><path class="cls-10" d="M150.6,194.48c0-.07-.51-25.55-.51-31.91,0,0-8.42.23-21.9-4,0,0-8.41,31.67-8.81,42.45h0s.35,1.39.86,3.44c1.42,5.71,4.14,16.54,4.33,17s-1.09,2.53-1.47,4.67c0,0,0,0,0,0a6.13,6.13,0,0,0-.1,1s0,0,0,0a3.84,3.84,0,0,0,.45,2c2.13,3.8,17.29,2.93,19.91-1.11a12.41,12.41,0,0,0,1.1-2.92l0-.15c.05-.17.09-.35.14-.54s.16-.59.24-.9.15-.63.23-.95l.36-1.58.09-.41c.22-1,.43-2.08.64-3.07.1-.53.2-1,.29-1.52,0-.2.07-.39.11-.58l.06-.32c0-.21.07-.41.11-.61s.07-.38.1-.57l.09-.48,0-.18c0-.23.08-.44.11-.62s0-.31.07-.41h0a1,1,0,0,1,0-.15.54.54,0,0,1,0-.08,20.7,20.7,0,0,0,2.85.21h.53V194.48Z"/><path class="cls-11" d="M147.23,212c0,.17-.76,4.46-1.66,8.61-.29,1.34-.6,2.67-.91,3.84-1.71,5-5.58,5.73-5.58,5.73,4.29-2.13,3.3-19.65,3.3-19.65Z"/><path class="cls-11" d="M143.4,226.35c-2.62,4.05-17.78,4.91-19.91,1.12a3.74,3.74,0,0,1-.41-1.22,4.71,4.71,0,0,0,.41,2.9c2.13,3.79,17.29,2.93,19.91-1.12.69-1.06,1.3-3.45,2-6.74l-.42.12A20.11,20.11,0,0,1,143.4,226.35Z"/><path class="cls-11" d="M150.6,212.16v-1.41h-.53c-.61,0-1.22,0-1.84,0s-1.23-.08-1.85-.13-1.24-.12-1.88-.2l-1.93-.24h0a.37.37,0,0,0-.34.12.41.41,0,0,0,0,.58l.21.19a8.72,8.72,0,0,0,1.53,1.06,12,12,0,0,0,1.95.84c.37.11.74.22,1.12.3s.63.14.95.19.7.08,1.06.12l1.06,0,.53,0Z"/><path class="cls-10" d="M149.52,194.48c0-.07.51-25.55.51-31.91,0,0,8.42.23,21.9-4,0,0,8.41,31.67,8.81,42.45h0s-.35,1.39-.86,3.44c-1.42,5.71-4.14,16.54-4.33,17s1.09,2.53,1.47,4.67c0,0,0,0,0,0a6.13,6.13,0,0,1,.1,1s0,0,0,0a3.84,3.84,0,0,1-.45,2c-2.13,3.8-17.29,2.93-19.91-1.11a12.41,12.41,0,0,1-1.1-2.92c0-.05,0-.1,0-.15s-.09-.35-.14-.54-.16-.59-.24-.9-.15-.63-.23-.95l-.36-1.58-.09-.41c-.22-1-.43-2.08-.64-3.07-.1-.53-.2-1-.29-1.52,0-.2-.07-.39-.11-.58l-.06-.32c0-.21-.07-.41-.11-.61s-.07-.38-.1-.57l-.09-.48,0-.18c0-.23-.08-.44-.11-.62s0-.31-.07-.41h0a1,1,0,0,0,0-.15.54.54,0,0,0,0-.08,20.7,20.7,0,0,1-2.85.21h-.53V194.48Z"/><path class="cls-11" d="M152.9,212c0,.17.75,4.46,1.65,8.61.29,1.34.6,2.67.92,3.84,1.7,5,5.57,5.73,5.57,5.73-4.28-2.13-3.3-19.65-3.3-19.65Z"/><path class="cls-11" d="M156.72,226.35c2.62,4.05,17.78,4.91,19.92,1.12a3.73,3.73,0,0,0,.4-1.22,4.71,4.71,0,0,1-.4,2.9c-2.14,3.79-17.3,2.93-19.92-1.12-.69-1.06-1.3-3.45-2-6.74l.43.12A20.21,20.21,0,0,0,156.72,226.35Z"/><path class="cls-11" d="M149.52,213.56l.53,0,1.06,0c.36,0,.71-.06,1.06-.12s.64-.11,1-.19.75-.19,1.12-.3a12,12,0,0,0,1.95-.84,8.72,8.72,0,0,0,1.53-1.06l.21-.19a.41.41,0,0,0,0-.58.37.37,0,0,0-.34-.12h0l-1.93.24c-.64.08-1.26.15-1.88.2s-1.24.11-1.85.13-1.23,0-1.84,0h-.53v2.81Z"/><line class="cls-1" x1="149.52" y1="212.16" x2="149.52" y2="213.56"/><path class="cls-10" d="M94.76,124.28a6.72,6.72,0,0,0,12.95-1.08,27.28,27.28,0,0,0,.59-6.5c-.2-11-9.27-16.12-15.45-21.19a1.82,1.82,0,0,0-2.8,1.79c2.11,7.26,3.8,21.11,4.22,25a7.44,7.44,0,0,0,.49,2Z"/><path class="cls-11" d="M97.45,105.4s7.55,4.59,7.29,11-1.9,6.35-2.18,6.29-1.23.28-1.65-2.26S102.77,112.33,97.45,105.4Z"/><path class="cls-10" d="M205.32,124.28a6.72,6.72,0,0,1-12.95-1.08,27.28,27.28,0,0,1-.59-6.5c.21-11,9.27-16.12,15.45-21.19A1.82,1.82,0,0,1,210,97.3c-2.1,7.26-3.8,21.11-4.22,25a7.44,7.44,0,0,1-.49,2Z"/><path class="cls-11" d="M202.63,105.4s-7.55,4.59-7.29,11,1.91,6.35,2.19,6.29,1.23.28,1.64-2.26S197.31,112.33,202.63,105.4Z"/><path class="cls-10" d="M194.28,118.19c1.16-49.76-43.08-49.77-44.16-49.77s-45.33,0-44.17,49.77c0,0-2.83,45.2,44.14,45.23h0C197.11,163.39,194.28,118.19,194.28,118.19Z"/><path class="cls-11" d="M190.14,139.82s-10.27,21.62-40,21.09h0c-29.74.53-40-21.09-40-21.09,10.33,25.12,36.73,23.71,40,23.86h0C153.42,163.53,179.81,164.94,190.14,139.82Z"/></svg>