<svg id="spaceship" xmlns="http://www.w3.org/2000/svg" viewBox="0 0 300 300"><defs><style>.cls-1{fill:none;}.cls-2{fill:#fff;}.cls-3{fill:#ededed;}</style></defs><rect class="cls-1" x="0.04" width="300" height="300"/><path class="cls-2" d="M145.78,74.4a12.19,12.19,0,0,0-10.28-5,12.42,12.42,0,0,0-9.74,6.1,14.5,14.5,0,0,0-.25,13.95A12.4,12.4,0,0,0,137,96a12.7,12.7,0,0,0,10.56-8.08A14.45,14.45,0,0,0,145.78,74.4Z"/><path d="M145.43,74.69l-.61-.67a6.6,6.6,0,0,0-.75-.74,11.28,11.28,0,0,0-1.09-.85,12,12,0,0,0-3.35-1.66,12.19,12.19,0,0,0-4.73-.46l-.71.08c-.22,0-.43.1-.64.15l-.65.15-.67.25-.67.25-.66.34a7.75,7.75,0,0,0-1.28.79,12,12,0,0,0-4.12,4.93,14.29,14.29,0,0,0-1.23,6.84,12.3,12.3,0,0,0,8.3,11.13,10.48,10.48,0,0,0,7,0A12.5,12.5,0,0,0,145,91.53l.51-.6c.15-.21.29-.44.43-.65a8.25,8.25,0,0,0,.76-1.31c.19-.45.44-.9.58-1.32s.29-.93.42-1.38a14.69,14.69,0,0,0,.28-5,20.49,20.49,0,0,0-.37-2c-.21-.61-.39-1.17-.56-1.68l-.62-1.28a7.34,7.34,0,0,0-.54-.9c-.3-.48-.47-.73-.47-.73Zm.71-.56.49.8a8.66,8.66,0,0,1,.58.95l.64,1.38c.19.53.37,1.13.58,1.78s.31,1.39.37,2.18a15.83,15.83,0,0,1-.36,5.29c-.15.45-.29.91-.44,1.37a15.73,15.73,0,0,1-.65,1.44,8.41,8.41,0,0,1-.82,1.37c-.15.22-.29.46-.45.68l-.55.63a13.15,13.15,0,0,1-5.77,3.89,11.07,11.07,0,0,1-7.38-.14,13.55,13.55,0,0,1-6.11-4.53,14.43,14.43,0,0,1-2.82-7.06,15.68,15.68,0,0,1,.9-7.49,13.49,13.49,0,0,1,4.28-5.7,10.84,10.84,0,0,1,1.44-1l.74-.41.77-.33.76-.31.82-.22.8-.21.71-.1.69-.09h.83a7.57,7.57,0,0,1,1.44.12,9.35,9.35,0,0,1,1.34.26c.42.15.83.27,1.22.42a13,13,0,0,1,3.56,2.26,11.78,11.78,0,0,1,1.12,1.1,5.55,5.55,0,0,1,.71.86l.54.73Z"/><path class="cls-3" d="M147.22,87.71a13.42,13.42,0,0,0,.81-3.39,16.08,16.08,0,0,1-.62,1.81,12.7,12.7,0,0,1-10.52,8.23,12.29,12.29,0,0,1-11.39-6.65,13.87,13.87,0,0,1-1.21-3.28,13.24,13.24,0,0,0,1.38,4.95,12.2,12.2,0,0,0,11.2,6.53C141.26,95.6,145.51,92.17,147.22,87.71Z"/><path d="M143.36,85.52a4.93,4.93,0,1,1-4.93-4.93A4.93,4.93,0,0,1,143.36,85.52Z"/><path class="cls-2" d="M138.58,83.72A1.63,1.63,0,1,1,137,82.1,1.63,1.63,0,0,1,138.58,83.72Z"/><path class="cls-2" d="M155,74.4a12.19,12.19,0,0,1,10.28-5,12.42,12.42,0,0,1,9.74,6.1,14.52,14.52,0,0,1,.25,13.95A12.42,12.42,0,0,1,163.84,96a12.72,12.72,0,0,1-10.56-8.08A14.48,14.48,0,0,1,155,74.4Z"/><path d="M154.66,74.13l.57-.74a6.61,6.61,0,0,1,.73-.84,11,11,0,0,1,1.14-1.06,13.47,13.47,0,0,1,3.58-2.11,11.36,11.36,0,0,1,5.41-.63l.71.1c.25.05.51.13.77.2l.79.22.74.31.75.31.72.41a10.62,10.62,0,0,1,1.4.93,13.3,13.3,0,0,1,4.29,5.54,15,15,0,0,1,1,7.38,14.27,14.27,0,0,1-2.78,7,13,13,0,0,1-6.11,4.39,11.68,11.68,0,0,1-7.23.08,13,13,0,0,1-5.71-3.76l-.54-.62c-.17-.21-.31-.44-.46-.66a8.31,8.31,0,0,1-.83-1.35c-.22-.48-.47-.9-.65-1.41s-.31-.92-.46-1.37a15.9,15.9,0,0,1-.42-5.24c.06-.79.25-1.51.35-2.18s.38-1.25.56-1.79l.62-1.38a8,8,0,0,1,.58-1Zm.72.55-.48.71a8.86,8.86,0,0,0-.54.9q-.26.57-.6,1.29t-.54,1.68c-.1.64-.29,1.31-.35,2a15.14,15.14,0,0,0,.34,4.93c.14.45.29.91.44,1.37a13.23,13.23,0,0,0,.59,1.3,8.45,8.45,0,0,0,.76,1.28c.15.21.28.43.43.63l.51.59A12.27,12.27,0,0,0,161.29,95a11,11,0,0,0,6.87,0A12,12,0,0,0,174,90.88a12.42,12.42,0,0,0,2.39-6.8,13.63,13.63,0,0,0-1.3-6.73A11.81,11.81,0,0,0,171,72.58a7.8,7.8,0,0,0-1.25-.77l-.64-.33-.65-.25L167.8,71l-.62-.15c-.2,0-.4-.11-.61-.15l-.71-.08-.7-.07c.14,0,0,0,.06,0h-.6a5.9,5.9,0,0,0-1.19,0,22,22,0,0,0-2.19.39,13.1,13.1,0,0,0-3.37,1.52,7.14,7.14,0,0,0-1.1.82A6.25,6.25,0,0,0,156,74Z"/><path d="M167.3,85.52a4.93,4.93,0,1,1-4.93-4.93A4.93,4.93,0,0,1,167.3,85.52Z"/><path class="cls-2" d="M162.52,83.72a1.63,1.63,0,1,1-1.63-1.62A1.63,1.63,0,0,1,162.52,83.72Z"/><path class="cls-3" d="M153.79,87.82a13,13,0,0,1-.82-3.33,10.87,10.87,0,0,0,.5,1.59,12.54,12.54,0,0,0,10.42,8,12.22,12.22,0,0,0,11.29-6.48,13.18,13.18,0,0,0,1.2-3.19,14.31,14.31,0,0,1-1.43,5.1,11.79,11.79,0,0,1-11,6.08A12.18,12.18,0,0,1,153.79,87.82Z"/></svg>