<svg id="spaceship" xmlns="http://www.w3.org/2000/svg" xmlns:xlink="http://www.w3.org/1999/xlink" viewBox="0 0 300 300"><defs><style>.cls-1{fill:none;}.cls-2{clip-path:url(#clip-path);}.cls-3{clip-path:url(#clip-path-2);}.cls-4{opacity:0.3;}.cls-5{fill:#61d3ff;fill-rule:evenodd;}.cls-6{fill:#a7bfa2;}.cls-7{fill:#859881;}</style><clipPath id="clip-path"><rect class="cls-1" y="-403.26" width="300" height="300"/></clipPath><clipPath id="clip-path-2"><rect class="cls-1" x="-650" y="-403.26" width="950" height="400"/></clipPath></defs><rect class="cls-1" x="0.04" width="300" height="300"/><g class="cls-2"><g class="cls-3"><g class="cls-4"><path class="cls-5" d="M289.17,18.07a.5.5,0,1,1-.5-.51A.5.5,0,0,1,289.17,18.07Z"/><path class="cls-5" d="M268.66,26.52a1.06,1.06,0,1,1-.13-1.5A1.06,1.06,0,0,1,268.66,26.52Z"/><path class="cls-5" d="M283.91,12.21a.24.24,0,0,1,.27.22.26.26,0,0,1-.23.28.25.25,0,1,1,0-.5Z"/><path class="cls-5" d="M280.47,1.62a.5.5,0,1,1,.09,1,.5.5,0,0,1-.09-1Z"/><path class="cls-5" d="M269.11.42a.15.15,0,0,1,.2,0,.13.13,0,0,1,0,.2.13.13,0,0,1-.2,0A.13.13,0,0,1,269.11.42Z"/><path class="cls-5" d="M296.78,3.73a.5.5,0,1,1,.71.71.5.5,0,0,1-.71-.71Z"/></g><g class="cls-4"><path class="cls-5" d="M197.83,11.93a.25.25,0,1,1-.09-.34A.25.25,0,0,1,197.83,11.93Z"/><path class="cls-5" d="M193.1,7.46a.25.25,0,0,1-.34.09.25.25,0,1,1,.25-.43A.25.25,0,0,1,193.1,7.46Z"/><path class="cls-5" d="M203.43,19.89a.25.25,0,0,1-.34.09.25.25,0,0,1-.1-.34.26.26,0,0,1,.35-.09A.25.25,0,0,1,203.43,19.89Z"/></g></g></g><path class="cls-6" d="M157.86,112.9l-.13,12.62c0,2.71-3.39,4.88-7.51,4.83s-7.42-2.28-7.39-5l.13-12.62Z"/><path class="cls-7" d="M160.71,115.45a5.9,5.9,0,0,0-.2-1.62,160.88,160.88,0,0,0-20.37,0,4.53,4.53,0,0,0-.16.71c-.19,4.3,4.29,8,10,8.24S160.52,119.74,160.71,115.45Z"/><path class="cls-6" d="M115.65,104.82a5.49,5.49,0,0,0,10.4-.82,19,19,0,0,0,.47-4.9c-.16-8.32-7.44-12.16-12.4-16-.94-.72-2.59.27-2.25,1.36,1.69,5.47,3,15.92,3.39,18.85a5.19,5.19,0,0,0,.39,1.5Z"/><path class="cls-7" d="M117.81,90.58s6.07,3.46,5.85,8.28-1.53,4.79-1.75,4.74-1,.21-1.32-1.7S122.08,95.81,117.81,90.58Z"/><path class="cls-6" d="M185,104.82a5.49,5.49,0,0,1-10.4-.82,19,19,0,0,1-.47-4.9c.16-8.32,7.44-12.16,12.4-16,.94-.72,2.58.27,2.25,1.36-1.69,5.47-3,15.92-3.39,18.85a5.53,5.53,0,0,1-.39,1.5Z"/><path class="cls-7" d="M182.88,90.58S176.81,94,177,98.86s1.52,4.79,1.75,4.74,1,.21,1.32-1.7S178.61,95.81,182.88,90.58Z"/><path class="cls-6" d="M173,110.61c-3.1,3.19-9.36,8.54-16.74,10.4a49.08,49.08,0,0,1-10.63.09c-7.68-1.79-14.56-7.22-17.63-10.29-5.26-5.29-6.08-31.88-4.18-38,3.29-10.58,13.91-16.66,26.83-16.6,14.19.06,22.19,6.81,26.33,17.18C178.61,77.46,178.2,105.26,173,110.61Z"/><path class="cls-7" d="M168.65,106.5a6.55,6.55,0,0,0-5.3,1.44c-1.68,1.4-2.41,4.1-1.88,4.36s.48-1.1,3.1-3.06C166.76,107.59,168.93,106.75,168.65,106.5Z"/><path class="cls-7" d="M132.15,106.5a6.58,6.58,0,0,1,5.31,1.44c1.67,1.4,2.4,4.1,1.88,4.36s-.49-1.1-3.11-3.06C134,107.59,131.87,106.75,132.15,106.5Z"/><path class="cls-7" d="M127.62,101.44c-.08,1.13,1.68,2.15,3.93,2.27s4.14-.7,4.22-1.84-1.68-2.14-3.93-2.26S127.71,100.31,127.62,101.44Z"/><path class="cls-7" d="M165.09,101.83c.11,1.13,2,1.93,4.26,1.77s4-1.19,3.88-2.32-2-1.92-4.26-1.77S165,100.7,165.09,101.83Z"/><path class="cls-6" d="M184.81,169.58c.33,1.1-6,2.42-6.37,1.34-5.81-16.19-13.51-34-15.45-38l9.26-4.26C175.45,138.06,180.45,155.09,184.81,169.58Z"/><path class="cls-6" d="M158.74,235c0,.33,8.29.27,8.3-.13.13-3.52.8-33,.83-35.08l-11.39.19C156.88,203.5,158.53,232.64,158.74,235Z"/><ellipse class="cls-6" cx="164.71" cy="203.71" rx="4.36" ry="6.16"/><path class="cls-7" d="M167.66,208.14c.17.26-.72,1.63-2.9,1.73-1.54.07-3.79-.94-3.63-1.32s1.4.35,3.71.12C166.78,208.49,167.51,207.92,167.66,208.14Z"/><path class="cls-6" d="M158.3,228.15l9-.27a21.27,21.27,0,0,0,.09,3.4c4.35,4,16.61,7.09,14.05,10.39-2.27,2.93-6.24,2.52-17.28.61-2.35-.41-4.12-1-4.65-1.48C157.27,238.66,158.88,236,158.3,228.15Z"/><path class="cls-7" d="M179.08,187.2c.78-2.8,3.16-8,1.5-13.09-.25-.78-3.58-.56-3.18.16C180.48,179.79,175.67,186.44,179.08,187.2Z"/><path class="cls-7" d="M181.33,188.43c2.36-3.62,3.3-7.74,1.38-14.33-.23-.81-3.55-1.44-3.26-.66C183.17,183.6,179,186.62,181.33,188.43Z"/><path class="cls-6" d="M185.2,188.54a17.74,17.74,0,0,0,1.84-7.93c0-3.9-1.47-9.55-3-13.54-.31-.79-5.69-.44-6.27.78-2.63,1.81-1.56,8-2.38,13.31-.17,1.13,1,2,1.35,1.6a17.32,17.32,0,0,0,2.31-4c1.17-2.5,2.73-1.55,3.47-.39C185.5,183.11,182.82,188.21,185.2,188.54Z"/><path class="cls-6" d="M156.68,202.43c0,.33,11.77-1.47,11.78-1.87.13-3.52-5.3-17.71-5.26-19.75l-12.9-.25C152,182.1,156.46,200,156.68,202.43Z"/><path class="cls-6" d="M172.25,128.68s-1.7-3.73-14.73-5.66l-7.22,1.87v55.67l12.9.25S163.77,142.73,172.25,128.68Z"/><path class="cls-6" d="M115.88,169.58c-.33,1.1,6,2.42,6.37,1.34,5.81-16.19,13.5-34,15.45-38l-9.26-4.26C125.24,138.06,120.24,155.09,115.88,169.58Z"/><path class="cls-6" d="M141.94,235c0,.33-8.28.27-8.3-.13-.12-3.52-.79-33-.82-35.08l11.39.19C143.81,203.5,142.16,232.64,141.94,235Z"/><ellipse class="cls-6" cx="135.98" cy="203.71" rx="4.36" ry="6.16"/><path class="cls-7" d="M133,208.14c-.17.26.71,1.63,2.9,1.73,1.54.07,3.78-.94,3.63-1.32s-1.4.35-3.71.12C133.91,208.49,133.18,207.92,133,208.14Z"/><path class="cls-6" d="M142.39,228.15l-9-.27a21.4,21.4,0,0,1-.1,3.4c-4.34,4-16.6,7.09-14,10.39,2.26,2.93,6.23,2.52,17.28.61,2.35-.41,4.12-1,4.64-1.48C143.42,238.66,141.81,236,142.39,228.15Z"/><path class="cls-7" d="M121.61,187.2c-.79-2.8-3.17-8-1.5-13.09.25-.78,3.58-.56,3.18.16C120.21,179.79,125,186.44,121.61,187.2Z"/><path class="cls-7" d="M119.36,188.43c-2.36-3.62-3.3-7.74-1.38-14.33.23-.81,3.54-1.44,3.26-.66C117.52,183.6,121.74,186.62,119.36,188.43Z"/><path class="cls-6" d="M115.49,188.54a17.61,17.61,0,0,1-1.84-7.93c0-3.9,1.46-9.55,3-13.54.31-.79,5.69-.44,6.27.78,2.63,1.81,1.56,8,2.38,13.31.17,1.13-1,2-1.35,1.6a16.92,16.92,0,0,1-2.31-4c-1.17-2.5-2.73-1.55-3.47-.39C115.18,183.11,117.86,188.21,115.49,188.54Z"/><path class="cls-6" d="M144,202.43c0,.33-11.77-1.47-11.79-1.87-.12-3.52,5.31-17.71,5.27-19.75l12.9-.25C148.65,182.1,144.23,200,144,202.43Z"/><path class="cls-6" d="M128.44,128.68s1.7-3.73,14.73-5.66l7.22,1.87v55.67l-12.9.25S136.92,142.73,128.44,128.68Z"/></svg>