<svg id="spaceship" xmlns="http://www.w3.org/2000/svg" xmlns:xlink="http://www.w3.org/1999/xlink" viewBox="0 0 300 300"><defs><style>.cls-1{fill:none;}.cls-2{clip-path:url(#clip-path);}.cls-3{clip-path:url(#clip-path-2);}.cls-4{opacity:0.3;}.cls-5{fill:#61d3ff;fill-rule:evenodd;}.cls-6{fill:#a7bfa2;}.cls-7{fill:#859881;}.cls-8{fill:#d89189;}</style><clipPath id="clip-path"><rect class="cls-1" y="-403.26" width="300" height="300"/></clipPath><clipPath id="clip-path-2"><rect class="cls-1" x="-650" y="-403.26" width="950" height="400"/></clipPath></defs><rect class="cls-1" x="0.04" width="300" height="300"/><g class="cls-2"><g class="cls-3"><g class="cls-4"><path class="cls-5" d="M289.17,18.07a.5.5,0,1,1-.5-.51A.5.5,0,0,1,289.17,18.07Z"/><path class="cls-5" d="M268.66,26.52a1.06,1.06,0,1,1-.13-1.5A1.06,1.06,0,0,1,268.66,26.52Z"/><path class="cls-5" d="M283.91,12.21a.24.24,0,0,1,.27.22.26.26,0,0,1-.23.28.25.25,0,1,1,0-.5Z"/><path class="cls-5" d="M280.47,1.62a.5.5,0,1,1,.09,1,.5.5,0,0,1-.09-1Z"/><path class="cls-5" d="M269.11.42a.15.15,0,0,1,.2,0,.13.13,0,0,1,0,.2.13.13,0,0,1-.2,0A.13.13,0,0,1,269.11.42Z"/><path class="cls-5" d="M296.78,3.73a.5.5,0,1,1,.71.71.5.5,0,0,1-.71-.71Z"/></g><g class="cls-4"><path class="cls-5" d="M197.83,11.93a.25.25,0,1,1-.09-.34A.25.25,0,0,1,197.83,11.93Z"/><path class="cls-5" d="M193.1,7.46a.25.25,0,0,1-.34.09.25.25,0,1,1,.25-.43A.25.25,0,0,1,193.1,7.46Z"/><path class="cls-5" d="M203.43,19.89a.25.25,0,0,1-.34.09.25.25,0,0,1-.1-.34.26.26,0,0,1,.35-.09A.25.25,0,0,1,203.43,19.89Z"/></g></g></g><path class="cls-6" d="M192,166v0c2.27,10.8,6.52,26.22,12.88,30.45a3.73,3.73,0,0,0,3.6-.75c-1,1-3.26,4.11.3,6.83a4.26,4.26,0,0,0,5.32.38,5.87,5.87,0,0,0,2.41-3.58c3-12.79-1-24.76-7-34.48a37.48,37.48,0,0,0-8.1-9.25c-3.42-2.83-13.38-11.52-16.38-14a1.3,1.3,0,0,0-2.11,1.27Z"/><path class="cls-7" d="M204.55,161.08c-4-4.8-19.53-19.51-19.52-19.5,26,17,31.86,33.09,32.46,49.85C217.19,179.82,209.49,167,204.55,161.08Z"/><path class="cls-6" d="M185,141.3s14.87,39.18,14.92,52.8c0,0-2.81,24.34-24,29.47,0,0,5.72,1.38,6.36,5.31a0,0,0,0,0,0,0c0,.11,0,.22.05.34a4.83,4.83,0,0,1-.14,1.66c-1.32,5.46-20.34,6.45-21.83,0a8,8,0,0,0-3.91-5.06,16.64,16.64,0,0,0-6.51-2.06V145.59Z"/><path class="cls-7" d="M149.92,223.73a16.64,16.64,0,0,1,6.51,2.06,8,8,0,0,1,3.91,5.06c1.49,6.45,20.51,5.46,21.83,0a4.83,4.83,0,0,0,.14-1.66c0-.12,0-.23-.05-.34a0,0,0,0,1,0,0,2.37,2.37,0,0,1-.08.42c-1.32,5.45-20.34,6.45-21.83,0a7.57,7.57,0,0,0-2.81-4.3,15.76,15.76,0,0,0-7.61-2.82Z"/><path class="cls-6" d="M107.89,166v0c-2.26,10.8-6.51,26.22-12.87,30.45a3.72,3.72,0,0,1-3.6-.75c1,1,3.25,4.11-.3,6.83a4.26,4.26,0,0,1-5.32.38,5.83,5.83,0,0,1-2.41-3.58c-3-12.79,1-24.76,7-34.48a37.07,37.07,0,0,1,8.1-9.25c3.41-2.83,13.38-11.52,16.37-14a1.31,1.31,0,0,1,2.12,1.27Z"/><path class="cls-7" d="M95.3,161.08c4-4.8,19.53-19.51,19.51-19.5-26,17-31.85,33.09-32.45,49.85C82.65,179.82,90.36,167,95.3,161.08Z"/><path class="cls-6" d="M114.89,141.3S100,180.48,100,194.1c0,0,2.8,24.34,24,29.47,0,0-5.72,1.38-6.36,5.31a0,0,0,0,1,0,0c0,.11,0,.22,0,.34a4.83,4.83,0,0,0,.14,1.66c1.32,5.46,20.34,6.45,21.83,0a8,8,0,0,1,3.91-5.06,16.64,16.64,0,0,1,6.51-2.06V145.59Z"/><path class="cls-7" d="M149.92,222.18a15.76,15.76,0,0,0-7.61,2.82,7.57,7.57,0,0,0-2.81,4.3c-1.49,6.45-20.51,5.45-21.83,0a2.37,2.37,0,0,1-.08-.42,0,0,0,0,1,0,0c0,.11,0,.22,0,.34a4.83,4.83,0,0,0,.14,1.66c1.32,5.46,20.34,6.45,21.83,0a8,8,0,0,1,3.91-5.06,16.64,16.64,0,0,1,6.51-2.06Z"/><path class="cls-6" d="M95.77,119.06a6.66,6.66,0,0,0,12.62-1,23,23,0,0,0,.57-5.95c-.19-10.1-9-14.75-15-19.4-1.14-.88-3.13.32-2.72,1.64,2,6.65,3.7,19.32,4.1,22.88a7.08,7.08,0,0,0,.48,1.82Z"/><path class="cls-7" d="M98.39,101.78s7.36,4.2,7.1,10-1.85,5.81-2.12,5.76-1.2.25-1.61-2.08S103.58,108.13,98.39,101.78Z"/><path class="cls-6" d="M203.5,119.06a6.66,6.66,0,0,1-12.62-1,23.48,23.48,0,0,1-.57-5.95c.2-10.1,9-14.75,15.05-19.4,1.14-.88,3.14.32,2.73,1.64-2.05,6.65-3.7,19.32-4.11,22.88a6.36,6.36,0,0,1-.48,1.82Z"/><path class="cls-7" d="M200.88,101.78s-7.36,4.2-7.1,10,1.85,5.81,2.13,5.76,1.2.25,1.6-2.08S195.7,108.13,200.88,101.78Z"/><path class="cls-6" d="M193.15,113.64c1.15-49-42.38-49-43.45-49s-44.59,0-43.45,49c0,0-2.78,44.47,43.43,44.5h0C195.94,158.11,193.15,113.64,193.15,113.64Z"/><path class="cls-7" d="M189.81,133.84s-10.28,22-40.06,21.5h0c-29.77.54-40.06-21.5-40.06-21.5,10.34,25.6,36.77,24.17,40.06,24.33h0C153.05,158,179.48,159.44,189.81,133.84Z"/><path class="cls-8" d="M93.05,167.59l-.06,0Z"/></svg>