<svg xmlns="http://www.w3.org/2000/svg" width="208.208" height="208.207" viewBox="0 0 208.208 208.207">
  <g id="Bridge_Troll_Getting_Ready_Egg" data-name="Bridge Troll Getting Ready Egg" transform="translate(-1692.39 -188.785)">
    <rect id="Rectangle_6523" data-name="Rectangle 6523" width="208.207" height="208.207" transform="translate(1692.39 188.785)" fill="none"/>
    <g id="Group_29379" data-name="Group 29379" transform="translate(1347.26 -369.99)">
      <g id="Group_29379-2" data-name="Group 29379" transform="translate(372.132 726.674)">
        <path id="Path_56210" data-name="Path 56210" d="M548.347,1114.463c0,2.823-59.275,5.111-100.268,5.111s-53.248-2.289-53.248-5.111,12.255-5.111,53.248-5.111S548.347,1111.64,548.347,1114.463Z" transform="translate(-394.831 -1109.352)" fill="#ccc"/>
      </g>
      <g id="Group_29388" data-name="Group 29388" transform="translate(394.831 589.775)">
        <path id="Path_56211" data-name="Path 56211" d="M502.948,679.4c0,28.932-24.2,52.386-54.058,52.386s-54.058-23.454-54.058-52.386,24.2-89.625,54.058-89.625S502.948,650.467,502.948,679.4Z" transform="translate(-394.831 -589.775)" fill="#fff5d1"/>
        <path id="Path_56212" data-name="Path 56212" d="M502.948,679.4c0,28.932-24.2,52.386-54.058,52.386s-54.058-23.454-54.058-52.386,24.2-89.625,54.058-89.625S502.948,650.467,502.948,679.4Z" transform="translate(-394.831 -589.775)" fill="#fff5d1"/>
        <path id="Path_56213" data-name="Path 56213" d="M501.112,671.662c-2.137,17.728-17.574,30.549-34.48,28.635s-28.878-17.837-26.741-35.565,20.325-53.367,37.231-51.453S503.249,653.934,501.112,671.662Z" transform="translate(-427.837 -607.031)" fill="#fff9e3"/>
        <path id="Path_56214" data-name="Path 56214" d="M462.3,604.469c16.12,18.657,27.242,54.627,27.242,74.735,0,27.987-21.545,50.676-48.122,50.676-21.909,0-40.395-15.418-46.215-36.512,1.679,27.467,25.193,49.24,53.959,49.24,29.856,0,54.058-23.454,54.058-52.386C503.227,665.68,485.812,618.288,462.3,604.469Z" transform="translate(-395.11 -600.597)" fill="#f7eabc"/>
        <g id="Group_29384" data-name="Group 29384" transform="translate(22.964 47.742)">
          <g id="Group_29380" data-name="Group 29380">
            <path id="Path_56215" data-name="Path 56215" d="M539.776,796.894l-.793-2.314-.161-.469-.466.169-9.045,3.282-5.633-.965v-8.172l5.072-2.174,7.308-.763.436-.046v-5.819l3.731-3.3-4.505,2.689-.2.119v5.432l-6.945.725-.073.008-.068.029-5.648,2.421h-3l-1.622,1.555h-6.327l-1.339-7.589,4.13-1.752,3.061.859.123.034.1.023.2.047.408.094.816.188,1.3.3.443,3.983.487-4.38.042-.377-.419-.1-1.632-.377-.816-.188-.269-.062.574-3.442.034-.206-.1-.137-3.573-4.686,2.657,5.027-.533,3.2-2.8-.786-.164-.046L514.4,779l-4.784,2.03H506l-.973-2.6-1.947.973-2.765-1.843-1.154-3.461-.1-.3-.314-.031-4.542-.446-.024,0h-4.144l-2.054-1.749-.116-.1-.117-.01-5.76-.494,5.444,1.414,2.108,1.8.136.116h4.454l4.2.413,1.048,3.144-1.335,3.338.973,4.867-.6,4.57-2.486,1.919-2.353,4.152-.013,0-2.924-.669.579-3.729.038-.245-.136-.129-2.411-2.3,1.522,2.68-.56,3.606h-2.7l-2.561-.771,2.3,1.693.07.051h3.256l3.255.745.144.073,2.658,2.954-2.433,2.212-1.081,5.817-1.693,2.921-.032.056-.017.062-.461,1.711-4.619-.447-.534-.052v5.22l.055.083,2.541,3.831-1.622-4.14v-3.922l4.5.435.41.04.107-.4.551-2.047,1.266-2.184H496.1l1.888,3.413-.076.479-2.344,2.734-.149.174.032.143.487,2.19.433-1.947,2.37-2.765.09-.1.022-.136.024-.151,4.394-.646-1.659,2.835-2.833,1-.572.2.289.457,1.823,2.884-.79-2.773,2.574-.9.168-.059.09-.154,1.752-2.993,3.506,8.993,2.433-4.867h7.2l3.513,2.079,3.434,4.152.233.282.3-.131,4.914-2.165-4.886,1.162-3.3-3.986-.054-.065-.073-.043-4.233-2.505-.557-2.673,5.017-2.213,4.79-.86,2.117.64-1.616-1.346.068-2.322,2.034-1.685-2.759,1.039-.233.088-.009.319-.069,2.363-3.807.683.1-5.3,1.414-7.794,5.683.973.127.022.121-.044,8.7-3.157.813,2.37.258.754.494-.522,1.979-2.093Z" transform="translate(-481.987 -770.972)" fill="#a1987a"/>
          </g>
          <g id="Group_29381" data-name="Group 29381">
            <path id="Path_56216" data-name="Path 56216" d="M539.776,796.894l-.793-2.314-.161-.469-.466.169-9.045,3.282-5.633-.965v-8.172l5.072-2.174,7.308-.763.436-.046v-5.819l3.731-3.3-4.505,2.689-.2.119v5.432l-6.945.725-.073.008-.068.029-5.648,2.421h-3l-1.622,1.555h-6.327l-1.339-7.589,4.13-1.752,3.061.859.123.034.1.023.2.047.408.094.816.188,1.3.3.443,3.983.487-4.38.042-.377-.419-.1-1.632-.377-.816-.188-.269-.062.574-3.442.034-.206-.1-.137-3.573-4.686,2.657,5.027-.533,3.2-2.8-.786-.164-.046L514.4,779l-4.784,2.03H506l-.973-2.6-1.947.973-2.765-1.843-1.154-3.461-.1-.3-.314-.031-4.542-.446-.024,0h-4.144l-2.054-1.749-.116-.1-.117-.01-5.76-.494,5.444,1.414,2.108,1.8.136.116h4.454l4.2.413,1.048,3.144-1.335,3.338.973,4.867-.6,4.57-2.486,1.919-2.353,4.152-.013,0-2.924-.669.579-3.729.038-.245-.136-.129-2.411-2.3,1.522,2.68-.56,3.606h-2.7l-2.561-.771,2.3,1.693.07.051h3.256l3.255.745.144.073,2.658,2.954-2.433,2.212-1.081,5.817-1.693,2.921-.032.056-.017.062-.461,1.711-4.619-.447-.534-.052v5.22l.055.083,2.541,3.831-1.622-4.14v-3.922l4.5.435.41.04.107-.4.551-2.047,1.266-2.184H496.1l1.888,3.413-.076.479-2.344,2.734-.149.174.032.143.487,2.19.433-1.947,2.37-2.765.09-.1.022-.136.024-.151,4.394-.646-1.659,2.835-2.833,1-.572.2.289.457,1.823,2.884-.79-2.773,2.574-.9.168-.059.09-.154,1.752-2.993,3.506,8.993,2.433-4.867h7.2l3.513,2.079,3.434,4.152.233.282.3-.131,4.914-2.165-4.886,1.162-3.3-3.986-.054-.065-.073-.043-4.233-2.505-.557-2.673,5.017-2.213,4.79-.86,2.117.64-1.616-1.346.068-2.322,2.034-1.685-2.759,1.039-.233.088-.009.319-.069,2.363-3.807.683.1-5.3,1.414-7.794,5.683.973.127.022.121-.044,8.7-3.157.813,2.37.258.754.494-.522,1.979-2.093Z" transform="translate(-481.987 -770.972)" fill="#a1987a"/>
          </g>
          <path id="Path_56217" data-name="Path 56217" d="M539.776,796.894l-.793-2.314-.161-.469-.466.169-9.045,3.282-5.633-.965v-8.172l5.072-2.174,7.308-.763.436-.046v-5.819l3.731-3.3-4.505,2.689-.2.119v5.432l-6.945.725-.073.008-.068.029-5.648,2.421h-3l-1.622,1.555h-6.327l-1.339-7.589,4.13-1.752,3.061.859.123.034.1.023.2.047.408.094.816.188,1.3.3.443,3.983.487-4.38.042-.377-.419-.1-1.632-.377-.816-.188-.269-.062.574-3.442.034-.206-.1-.137-3.573-4.686,2.657,5.027-.533,3.2-2.8-.786-.164-.046L514.4,779l-4.784,2.03H506l-.973-2.6-1.947.973-2.765-1.843-1.154-3.461-.1-.3-.314-.031-4.542-.446-.024,0h-4.144l-2.054-1.749-.116-.1-.117-.01-5.76-.494,5.444,1.414,2.108,1.8.136.116h4.454l4.2.413,1.048,3.144-1.335,3.338.973,4.867-.6,4.57-2.486,1.919-2.353,4.152-.013,0-2.924-.669.579-3.729.038-.245-.136-.129-2.411-2.3,1.522,2.68-.56,3.606h-2.7l-2.561-.771,2.3,1.693.07.051h3.256l3.255.745.144.073,2.658,2.954-2.433,2.212-1.081,5.817-1.693,2.921-.032.056-.017.062-.461,1.711-4.619-.447-.534-.052v5.22l.055.083,2.541,3.831-1.622-4.14v-3.922l4.5.435.41.04.107-.4.551-2.047,1.266-2.184H496.1l1.888,3.413-.076.479-2.344,2.734-.149.174.032.143.487,2.19.433-1.947,2.37-2.765.09-.1.022-.136.024-.151,4.394-.646-1.659,2.835-2.833,1-.572.2.289.457,1.823,2.884-.79-2.773,2.574-.9.168-.059.09-.154,1.752-2.993,3.506,8.993,2.433-4.867h7.2l3.513,2.079,3.434,4.152.233.282.3-.131,4.914-2.165-4.886,1.162-3.3-3.986-.054-.065-.073-.043-4.233-2.505-.557-2.673,5.017-2.213,4.79-.86,2.117.64-1.616-1.346.068-2.322,2.034-1.685-2.759,1.039-.233.088-.009.319-.069,2.363-3.807.683.1-5.3,1.414-7.794,5.683.973.127.022.121-.044,8.7-3.157.813,2.37.258.754.494-.522,1.979-2.093Z" transform="translate(-481.987 -770.972)" fill="#303030"/>
          <g id="Group_29382" data-name="Group 29382">
            <path id="Path_56218" data-name="Path 56218" d="M597.859,819.334h-6.327l-1.339-7.588v.378l1.339,7.588h6.327l1.622-1.555h3l5.648-2.421.068-.029.073-.008,6.945-.725V814.6l-6.945.725-.073.008-.068.029-5.648,2.421h-3Z" transform="translate(-561.683 -801.003)" fill="#6b6551"/>
            <path id="Path_56219" data-name="Path 56219" d="M542.992,800.683l1.285-3.212v-.378l-1.335,3.338Z" transform="translate(-526.881 -790.211)" fill="#6b6551"/>
            <path id="Path_56220" data-name="Path 56220" d="M535.462,932.364l.076-.479v-.378l-.076.479-2.344,2.735-.149.174.032.143.035.157.082-.1Z" transform="translate(-519.536 -889.209)" fill="#6b6551"/>
            <path id="Path_56221" data-name="Path 56221" d="M496.484,855.934l.56-3.606v-.378l-.56,3.606h-2.7l-2.561-.771.866.638,1.7.51Z" transform="translate(-488.789 -830.614)" fill="#6b6551"/>
            <path id="Path_56222" data-name="Path 56222" d="M638.248,905.618l-.233.088-.009.319-.07,2.363-3.807.683v.378l3.807-.683.07-2.363.009-.319.233-.088,1.923-.724.836-.693Z" transform="translate(-594.042 -869.376)" fill="#6b6551"/>
            <path id="Path_56223" data-name="Path 56223" d="M652.252,919.79v.378l.9.753.712.215Z" transform="translate(-607.39 -880.579)" fill="#6b6551"/>
            <path id="Path_56224" data-name="Path 56224" d="M656.319,861.577l-.793-2.314-.161-.469-.466.169-9.045,3.282-5.633-.964v.378l5.633.964,9.045-3.282.466-.169.161.469.793,2.314,1.3-.665.694-.733Z" transform="translate(-598.53 -835.655)" fill="#6b6551"/>
            <path id="Path_56225" data-name="Path 56225" d="M688.556,792.453l1.316-1.163-4.5,2.689-.2.119v.378l.2-.119Z" transform="translate(-631.633 -785.937)" fill="#6b6551"/>
            <path id="Path_56226" data-name="Path 56226" d="M548.609,931.776V931.4l-1.659,2.835-2.833,1-.572.2.2.309.376-.132,2.833-1Z" transform="translate(-527.326 -889.129)" fill="#6b6551"/>
            <path id="Path_56227" data-name="Path 56227" d="M498,949.582l1.26,3.217.362.546L498,949.2Z" transform="translate(-493.777 -902.243)" fill="#6b6551"/>
            <path id="Path_56228" data-name="Path 56228" d="M487.747,771.844l.117.01.116.1,2.054,1.749h4.144l.024,0,4.542.446.314.031.1.3,1.154,3.462,2.765,1.843,1.947-.973.973,2.6h3.624l4.784-2.03.157-.067.164.046,2.8.786.533-3.2v-.378l-.533,3.2-2.8-.786-.164-.046L514.4,779l-4.784,2.03H506l-.973-2.6-1.947.973-2.765-1.843-1.154-3.461-.1-.3-.314-.031-4.542-.446-.024,0h-4.144l-2.054-1.749-.116-.1-.117-.01-5.76-.494,2.171.564Z" transform="translate(-481.987 -770.972)" fill="#6b6551"/>
            <path id="Path_56229" data-name="Path 56229" d="M548.562,949.228l.594,2.086.2.31-.79-2.773Z" transform="translate(-531.021 -901.982)" fill="#6b6551"/>
            <path id="Path_56230" data-name="Path 56230" d="M618.048,939.419l-.054-.065-.073-.043-4.233-2.505-.557-2.673v.378l.557,2.673,4.233,2.505.073.043.054.065,3.3,3.986,3.023-.719,1.863-.821-4.886,1.162Z" transform="translate(-578.577 -891.142)" fill="#6b6551"/>
            <path id="Path_56231" data-name="Path 56231" d="M499.915,895.09l.017-.062.032-.056,1.693-2.921,1.081-5.817,2.433-2.212v-.378l-2.433,2.212-1.081,5.817-1.693,2.921-.032.056-.017.062-.461,1.711-4.619-.447-.534-.052v.378l.534.052,4.619.447Z" transform="translate(-491.057 -853.958)" fill="#6b6551"/>
            <path id="Path_56232" data-name="Path 56232" d="M510.034,844.532l.013-.084.038-.245-.135-.129-2.411-2.3.467.823,1.944,1.851Z" transform="translate(-500.806 -823.122)" fill="#6b6551"/>
            <path id="Path_56233" data-name="Path 56233" d="M612.394,778.191l.053.069.017-.1.034-.206-.1-.137-3.573-4.686.65,1.23Z" transform="translate(-575.402 -772.559)" fill="#6b6551"/>
            <path id="Path_56234" data-name="Path 56234" d="M520.151,834.721l-2.353,4.152-.013,0-2.924-.669v.378l2.924.669.013,0,2.353-4.152,2.486-1.919.6-4.57v-.378l-.6,4.57Z" transform="translate(-506.199 -813.145)" fill="#6b6551"/>
            <path id="Path_56235" data-name="Path 56235" d="M620.472,805.274v.378l.269.062.816.188,1.632.377.378.087.041-.368-.419-.1-1.632-.377-.816-.188Z" transform="translate(-583.983 -796.236)" fill="#6b6551"/>
          </g>
          <ellipse id="Ellipse_12533" data-name="Ellipse 12533" cx="4.273" cy="8.178" rx="4.273" ry="8.178" transform="translate(19.965 20.667)" fill="#fff"/>
          <ellipse id="Ellipse_12534" data-name="Ellipse 12534" cx="4.273" cy="6.5" rx="4.273" ry="6.5" transform="translate(29.146 22.345)" fill="#fff"/>
          <path id="Path_56236" data-name="Path 56236" d="M578.518,876.36c0,.888-.426,1.609-.95,1.609s-.951-.72-.951-1.609.426-1.608.951-1.608S578.518,875.472,578.518,876.36Z" transform="translate(-551.684 -847.408)" fill="#303030"/>
          <path id="Path_56237" data-name="Path 56237" d="M598.293,877.7a.965.965,0,1,1-.95-1.13A1.052,1.052,0,0,1,598.293,877.7Z" transform="translate(-566.248 -848.745)" fill="#303030"/>
          <path id="Path_56238" data-name="Path 56238" d="M596.648,876.916a.382.382,0,1,1-.382-.382A.382.382,0,0,1,596.648,876.916Z" transform="translate(-565.874 -848.72)" fill="#fff"/>
          <circle id="Ellipse_12535" data-name="Ellipse 12535" cx="0.348" cy="0.348" r="0.348" transform="translate(24.944 27.347)" fill="#fff"/>
          <g id="Group_29383" data-name="Group 29383">
            <path id="Path_56239" data-name="Path 56239" d="M543.914,814.276V813.9l-.923-4.615-.05.126Z" transform="translate(-526.881 -799.189)" fill="#fff"/>
            <path id="Path_56240" data-name="Path 56240" d="M489.539,774.182l.136.116h4.454l4.2.413,1.048,3.144v-.378l-1.048-3.144-4.2-.413h-4.454l-.136-.116-2.108-1.8-1.113-.289-4.332-.747,5.444,1.414Z" transform="translate(-481.987 -770.972)" fill="#fff"/>
            <path id="Path_56241" data-name="Path 56241" d="M611.478,777.777l-1.341-2.538-1.316-2.112,2.657,5.027Z" transform="translate(-575.402 -772.559)" fill="#fff"/>
            <path id="Path_56242" data-name="Path 56242" d="M688.862,794.589l3.731-3.3-2.658,1.972-1.073.949Z" transform="translate(-634.354 -785.937)" fill="#fff"/>
            <path id="Path_56243" data-name="Path 56243" d="M640.221,827.443v.378l5.072-2.174,7.308-.763.436-.045v-.378l-.436.045-7.308.763Z" transform="translate(-598.53 -810.368)" fill="#fff"/>
            <path id="Path_56244" data-name="Path 56244" d="M620.472,795.077l.574-3.442.034-.206-.1.241-.5,3.028Z" transform="translate(-583.983 -786.04)" fill="#fff"/>
            <path id="Path_56245" data-name="Path 56245" d="M597.507,804.555l-.123-.034-3.061-.859-4.13,1.752v.378l4.13-1.752,3.061.859.123.034.1.023.2.047.408.094.816.188,1.3.3.443,3.983.487-4.38.042-.378-.083.365-.446,4.015-.443-3.983-1.3-.3-.816-.188-.408-.094-.2-.047Z" transform="translate(-561.683 -795.049)" fill="#fff"/>
            <path id="Path_56246" data-name="Path 56246" d="M652.252,908.209v.378l.068-2.322,2.034-1.685-1.679,1.013-.355.294Z" transform="translate(-607.39 -869.376)" fill="#fff"/>
            <path id="Path_56247" data-name="Path 56247" d="M573.76,942.323l-.3.131-.233-.282L569.8,938.02l-3.513-2.079h-7.2l-2.433,4.867-3.506-8.993-1.752,2.993-.09.154-.169.059-2.574.9v.378l2.574-.9.169-.059.09-.154,1.752-2.993,3.506,8.993,2.433-4.867h7.2L569.8,938.4l3.434,4.152.233.282.3-.131,4.915-2.165-3.727,1.264Z" transform="translate(-531.021 -889.435)" fill="#fff"/>
            <path id="Path_56248" data-name="Path 56248" d="M543.545,946.7l2.112,3.341-.392-1-1.322-2.091Z" transform="translate(-527.326 -900.397)" fill="#fff"/>
            <path id="Path_56249" data-name="Path 56249" d="M651.843,864.718l-.494.522-.258-.754-.813-2.37-8.7,3.157-.121.044-.127-.022-5.683-.973-1.414,7.793-.1,5.3v.378l.1-5.3,1.414-7.794,5.683.973.127.022.121-.044,8.7-3.157.813,2.37.258.754.494-.522L653.822,863l-1.4,1.1Z" transform="translate(-594.042 -838.101)" fill="#fff"/>
            <path id="Path_56250" data-name="Path 56250" d="M536.38,931.275l.022-.136.024-.151,4.394-.646v-.378l-4.394.646-.024.151-.022.136-.09.1-2.37,2.765-.433,1.947-.37-1.751-.149-.2.032.143.487,2.19.433-1.947,2.37-2.765Z" transform="translate(-519.536 -888.073)" fill="#fff"/>
            <path id="Path_56251" data-name="Path 56251" d="M493.589,864.455h3.256l3.255.745.144.073,2.658,2.954v-.378l-2.658-2.954-.144-.073-3.255-.745h-3.256l-.07-.051-.555-.409-1.742-.906,2.3,1.693Z" transform="translate(-488.789 -838.54)" fill="#fff"/>
            <path id="Path_56252" data-name="Path 56252" d="M515.479,850.845l-.051-.049-.566,3.646v.378l.579-3.729Z" transform="translate(-506.199 -829.764)" fill="#fff"/>
            <path id="Path_56253" data-name="Path 56253" d="M509.061,844.458v-.378l-.574-1.01-.948-1.292Z" transform="translate(-500.806 -823.122)" fill="#fff"/>
            <path id="Path_56254" data-name="Path 56254" d="M509.779,920.911v-.378l-1.888-3.413h-3.067l-1.266,2.184-.551,2.047-.107.4-.41-.04-4.5-.435v.378l4.5.435.41.04.107-.4.551-2.047,1.266-2.184h3.067Z" transform="translate(-493.777 -878.613)" fill="#fff"/>
            <path id="Path_56255" data-name="Path 56255" d="M494.356,948.712l-.055-.083v.378l.055.083,2.541,3.831-.734-1.484Z" transform="translate(-491.057 -901.82)" fill="#fff"/>
            <path id="Path_56256" data-name="Path 56256" d="M613.131,924.108v.378l5.017-2.213,4.79-.86,2.117.64-1.424-.808-.693-.209-4.79.86Z" transform="translate(-578.577 -881.496)" fill="#fff"/>
          </g>
        </g>
        <g id="Group_29387" data-name="Group 29387" transform="translate(40.223 97.383)">
          <path id="Path_56257" data-name="Path 56257" d="M547.492,969.167l4.918,1.2.118.029.148-.066,4.521-2,10.93-2.15.249-.049.078-.185,1.539-3.643-2.231,2.957-10.634,2.092-3.407-1.858-2.342-6.121,1.487,6.6.041.182.192.1,2.85,1.554-3.567,1.577Z" transform="translate(-547.492 -959.376)" fill="#303030"/>
          <g id="Group_29385" data-name="Group 29385" transform="translate(0)">
            <path id="Path_56258" data-name="Path 56258" d="M552.383,993.381l3.567-1.577v-.378L552.383,993l-4.891-.231,1.915.468Z" transform="translate(-547.492 -982.981)" fill="#6b6551"/>
            <path id="Path_56259" data-name="Path 56259" d="M564.59,965.874,568,967.732l10.634-2.092,1.869-2.477.362-.858-2.231,2.957L568,967.355,564.59,965.5l-2.342-6.121.207.918Z" transform="translate(-558.36 -959.376)" fill="#6b6551"/>
          </g>
          <g id="Group_29386" data-name="Group 29386" transform="translate(0)">
            <path id="Path_56260" data-name="Path 56260" d="M563.776,966.162l.192.1,2.85,1.554v-.378l-2.85-1.554-.192-.1-.041-.182-1.074-4.767-.414-1.459,1.487,6.6Z" transform="translate(-558.36 -959.376)" fill="#fff"/>
            <path id="Path_56261" data-name="Path 56261" d="M568.377,973.946l-11.18,2.2-4.669,2.064-1.205-.295-3.831-.558,5.036,1.231,4.669-2.064,11.18-2.2,1.617-3.828-.725,1.338Z" transform="translate(-547.492 -967.565)" fill="#fff"/>
          </g>
        </g>
      </g>
    </g>
  </g>
</svg>
